{"glyphs":{"0":{"ha":924,"x_min":75,"x_max":849,"o":"m 390 -11 q 226 30 297 -11 q 115 147 154 71 q 75 321 75 222 l 75 651 q 115 826 75 750 q 226 942 154 901 q 390 983 297 983 l 538 983 q 700 942 629 983 q 810 826 771 901 q 849 651 849 750 l 849 321 q 810 147 849 222 q 701 30 771 71 q 538 -11 631 -11 l 390 -11 m 535 132 q 644 183 603 132 q 685 318 685 235 l 685 654 q 644 789 685 738 q 535 840 603 840 l 393 840 q 281 789 324 840 q 238 654 238 738 l 238 318 q 281 183 238 235 q 393 132 324 132 l 535 132 z "},"1":{"ha":522,"x_min":33,"x_max":419,"o":"m 257 796 l 33 683 l 33 835 l 292 972 l 419 972 l 419 0 l 257 0 l 257 796 z "},"2":{"ha":797,"x_min":50,"x_max":758,"o":"m 54 124 q 84 263 54 204 q 183 368 114 322 l 528 592 q 572 638 556 610 q 588 694 588 665 l 588 739 q 555 812 588 783 q 471 840 522 840 l 343 840 q 247 797 282 840 q 213 676 213 753 l 50 676 q 128 901 50 819 q 340 983 206 983 l 471 983 q 617 953 553 983 q 715 867 681 922 q 750 739 750 811 l 750 694 q 720 572 750 625 q 626 481 690 519 l 292 268 q 235 215 253 243 q 218 142 218 186 l 758 142 l 758 0 l 54 0 l 54 124 z "},"3":{"ha":844,"x_min":47,"x_max":792,"o":"m 667 501 q 758 419 725 469 q 792 311 792 369 l 792 256 q 753 116 792 176 q 645 22 715 56 q 485 -11 575 -11 l 350 -11 q 128 72 210 -11 q 47 297 47 154 l 207 297 q 245 176 207 221 q 350 132 283 132 l 485 132 q 589 166 549 132 q 629 256 629 200 l 629 311 q 589 396 629 365 q 481 426 549 426 l 313 426 l 313 568 l 481 568 q 576 598 540 568 q 611 681 611 628 l 611 736 q 577 812 611 783 q 488 840 543 840 l 353 840 q 253 796 290 840 q 217 675 217 751 l 54 675 q 134 901 54 818 q 353 983 214 983 l 488 983 q 637 953 572 983 q 738 866 701 922 q 774 736 774 810 l 774 681 q 745 579 774 626 q 667 501 717 532 z "},"4":{"ha":844,"x_min":19,"x_max":817,"o":"m 533 190 l 126 190 q 47 212 75 190 q 19 275 19 233 l 19 310 l 533 972 l 694 972 l 694 335 l 817 335 l 817 190 l 694 190 l 694 0 l 533 0 l 533 190 m 538 329 l 538 761 l 536 761 l 203 329 l 538 329 z "},"5":{"ha":856,"x_min":61,"x_max":797,"o":"m 353 -11 q 139 67 217 -11 q 61 282 61 146 l 221 282 q 256 172 221 213 q 353 132 292 132 l 486 132 q 594 170 553 132 q 635 272 635 208 l 635 351 q 593 443 635 408 q 482 478 551 478 l 94 478 l 94 972 l 761 972 l 761 829 l 257 829 l 257 622 l 482 622 q 647 588 575 622 q 758 493 718 554 q 797 351 797 432 l 797 272 q 758 124 797 189 q 649 24 719 60 q 486 -11 578 -11 l 353 -11 z "},"6":{"ha":868,"x_min":75,"x_max":826,"o":"m 400 -11 q 231 30 304 -11 q 116 145 157 71 q 75 317 75 219 l 75 660 q 115 831 75 757 q 228 944 156 904 q 396 983 300 983 l 515 983 q 663 949 599 983 q 763 851 728 914 q 799 707 799 789 l 639 707 q 605 803 639 767 q 515 840 571 840 l 396 840 q 281 792 325 840 q 238 660 238 743 l 238 531 q 327 598 272 572 q 436 624 382 624 l 528 624 q 685 589 617 624 q 790 491 753 554 q 826 344 826 428 l 826 289 q 785 132 826 200 q 671 26 744 64 q 501 -11 597 -11 l 400 -11 m 501 126 q 619 171 575 126 q 664 289 664 215 l 664 346 q 626 448 664 410 q 525 486 588 486 l 433 486 q 310 441 363 486 q 242 326 257 396 l 242 279 q 286 169 242 211 q 403 126 331 126 l 501 126 z "},"7":{"ha":710,"x_min":11,"x_max":699,"o":"m 201 54 q 216 191 201 121 q 258 317 231 261 l 510 829 l 11 829 l 11 972 l 699 972 l 699 878 l 419 296 q 378 174 392 239 q 364 54 364 110 l 364 0 l 201 0 l 201 54 z "},"8":{"ha":888,"x_min":47,"x_max":840,"o":"m 369 -11 q 201 21 274 -11 q 88 111 128 53 q 47 246 47 169 l 47 303 q 86 415 47 363 q 193 500 125 468 l 193 501 q 110 580 140 532 q 79 681 79 628 l 79 739 q 117 867 79 811 q 224 953 156 922 q 383 983 293 983 l 503 983 q 663 953 593 983 q 770 867 732 922 q 808 739 808 811 l 808 681 q 778 581 808 629 q 694 501 747 533 l 694 500 q 801 415 763 468 q 840 303 840 363 l 840 246 q 800 111 840 169 q 686 21 760 53 q 517 -11 613 -11 l 369 -11 m 503 565 q 606 597 567 565 q 646 681 646 629 l 646 738 q 606 814 646 785 q 503 843 567 843 l 383 843 q 281 814 319 843 q 242 738 242 785 l 242 681 q 281 597 242 629 q 383 565 319 565 l 503 565 m 517 129 q 633 163 589 129 q 678 253 678 197 l 678 300 q 630 394 678 358 q 503 429 582 429 l 383 429 q 258 394 306 429 q 210 300 210 358 l 210 253 q 253 163 210 197 q 369 129 297 129 l 517 129 z "},"9":{"ha":874,"x_min":50,"x_max":799,"o":"m 369 -11 q 216 23 282 -11 q 114 117 150 57 q 78 258 78 178 l 238 258 q 274 167 238 201 q 369 132 310 132 l 489 132 q 596 176 556 132 q 636 293 636 219 l 636 424 q 549 365 600 386 q 444 343 497 343 l 351 343 q 193 379 261 343 q 88 481 125 415 q 50 633 50 547 l 50 689 q 92 843 50 776 q 208 947 133 910 q 382 983 283 983 l 479 983 q 647 947 574 983 q 759 842 719 910 q 799 688 799 775 l 799 293 q 760 133 799 201 q 652 26 722 64 q 489 -11 582 -11 l 369 -11 m 447 481 q 567 520 515 481 q 636 622 619 560 l 636 699 q 593 805 636 764 q 479 846 550 846 l 382 846 q 259 803 306 846 q 213 689 213 760 l 213 633 q 250 522 213 564 q 350 481 288 481 l 447 481 z "},"\u0000":{"ha":0,"x_min":0,"x_max":0,"o":""},"\r":{"ha":388,"x_min":0,"x_max":0,"o":""}," ":{"ha":388,"x_min":0,"x_max":0,"o":""},"A":{"ha":931,"x_min":14,"x_max":917,"o":"m 658 240 l 272 240 l 182 0 l 14 0 l 392 972 l 465 972 q 569 899 540 972 l 917 0 l 747 0 l 658 240 m 318 376 l 613 376 l 467 771 l 465 771 l 318 376 z "},"Á":{"ha":931,"x_min":14,"x_max":917,"o":"m 658 240 l 272 240 l 182 0 l 14 0 l 392 972 l 465 972 q 569 899 540 972 l 917 0 l 747 0 l 658 240 m 318 376 l 613 376 l 467 771 l 465 771 l 318 376 m 518 1311 l 694 1311 l 540 1074 l 389 1074 l 518 1311 z "},"Ă":{"ha":931,"x_min":14,"x_max":917,"o":"m 658 240 l 272 240 l 182 0 l 14 0 l 392 972 l 465 972 q 569 899 540 972 l 917 0 l 747 0 l 658 240 m 318 376 l 613 376 l 467 771 l 465 771 l 318 376 m 457 1063 q 296 1117 357 1063 q 235 1263 235 1172 l 235 1285 l 360 1285 l 360 1263 q 386 1194 360 1219 q 457 1169 413 1169 l 474 1169 q 545 1194 518 1169 q 572 1263 572 1219 l 572 1285 l 696 1285 l 696 1263 q 635 1117 696 1172 q 474 1063 574 1063 l 457 1063 z "},"Ắ":{"ha":931,"x_min":14,"x_max":917,"o":"m 658 240 l 272 240 l 182 0 l 14 0 l 392 972 l 465 972 q 569 899 540 972 l 917 0 l 747 0 l 658 240 m 318 376 l 613 376 l 467 771 l 465 771 l 318 376 m 506 1544 l 654 1544 l 526 1351 l 400 1351 l 506 1544 m 457 1063 q 296 1117 357 1063 q 235 1263 235 1172 l 235 1285 l 360 1285 l 360 1263 q 386 1194 360 1219 q 457 1169 413 1169 l 474 1169 q 545 1194 518 1169 q 572 1263 572 1219 l 572 1285 l 696 1285 l 696 1263 q 635 1117 696 1172 q 474 1063 574 1063 l 457 1063 z "},"Ặ":{"ha":931,"x_min":14,"x_max":917,"o":"m 658 240 l 272 240 l 182 0 l 14 0 l 392 972 l 465 972 q 569 899 540 972 l 917 0 l 747 0 l 658 240 m 318 376 l 613 376 l 467 771 l 465 771 l 318 376 m 465 -293 q 392 -265 419 -293 q 364 -192 364 -237 q 392 -118 364 -146 q 465 -90 419 -90 q 539 -118 511 -90 q 567 -192 567 -146 q 539 -265 567 -237 q 465 -293 511 -293 m 457 1063 q 296 1117 357 1063 q 235 1263 235 1172 l 235 1285 l 360 1285 l 360 1263 q 386 1194 360 1219 q 457 1169 413 1169 l 474 1169 q 545 1194 518 1169 q 572 1263 572 1219 l 572 1285 l 696 1285 l 696 1263 q 635 1117 696 1172 q 474 1063 574 1063 l 457 1063 z "},"Ằ":{"ha":931,"x_min":14,"x_max":917,"o":"m 658 240 l 272 240 l 182 0 l 14 0 l 392 972 l 465 972 q 569 899 540 972 l 917 0 l 747 0 l 658 240 m 318 376 l 613 376 l 467 771 l 465 771 l 318 376 m 279 1544 l 428 1544 l 533 1351 l 407 1351 l 279 1544 m 457 1063 q 296 1117 357 1063 q 235 1263 235 1172 l 235 1285 l 360 1285 l 360 1263 q 386 1194 360 1219 q 457 1169 413 1169 l 474 1169 q 545 1194 518 1169 q 572 1263 572 1219 l 572 1285 l 696 1285 l 696 1263 q 635 1117 696 1172 q 474 1063 574 1063 l 457 1063 z "},"Ẳ":{"ha":931,"x_min":14,"x_max":917,"o":"m 658 240 l 272 240 l 182 0 l 14 0 l 392 972 l 465 972 q 569 899 540 972 l 917 0 l 747 0 l 658 240 m 318 376 l 613 376 l 467 771 l 465 771 l 318 376 m 408 1354 q 424 1393 408 1378 q 469 1425 439 1408 q 506 1450 493 1439 q 518 1476 518 1461 l 518 1492 q 508 1517 518 1508 q 481 1526 499 1526 l 457 1526 q 426 1515 438 1526 q 415 1482 415 1503 l 315 1482 q 351 1582 315 1547 q 457 1617 388 1617 l 481 1617 q 586 1585 550 1617 q 622 1492 622 1553 l 622 1476 q 605 1424 622 1443 q 557 1385 588 1404 q 528 1365 538 1374 q 519 1344 519 1356 l 519 1332 l 408 1332 l 408 1354 m 457 1063 q 296 1117 357 1063 q 235 1263 235 1172 l 235 1285 l 360 1285 l 360 1263 q 386 1194 360 1219 q 457 1169 413 1169 l 474 1169 q 545 1194 518 1169 q 572 1263 572 1219 l 572 1285 l 696 1285 l 696 1263 q 635 1117 696 1172 q 474 1063 574 1063 l 457 1063 z "},"Ẵ":{"ha":931,"x_min":14,"x_max":917,"o":"m 658 240 l 272 240 l 182 0 l 14 0 l 392 972 l 465 972 q 569 899 540 972 l 917 0 l 747 0 l 658 240 m 318 376 l 613 376 l 467 771 l 465 771 l 318 376 m 551 1365 q 503 1376 524 1365 q 454 1410 482 1388 q 424 1432 435 1425 q 400 1439 413 1439 l 392 1439 q 362 1422 374 1439 q 350 1379 350 1406 l 244 1379 q 283 1494 244 1451 q 385 1538 322 1538 l 394 1538 q 444 1526 422 1538 q 497 1490 465 1514 q 525 1469 514 1476 q 546 1463 536 1463 l 554 1463 q 581 1479 571 1463 q 592 1522 592 1496 l 699 1522 q 660 1408 697 1451 q 561 1365 622 1365 l 551 1365 m 457 1063 q 296 1117 357 1063 q 235 1263 235 1172 l 235 1285 l 360 1285 l 360 1263 q 386 1194 360 1219 q 457 1169 413 1169 l 474 1169 q 545 1194 518 1169 q 572 1263 572 1219 l 572 1285 l 696 1285 l 696 1263 q 635 1117 696 1172 q 474 1063 574 1063 l 457 1063 z "},"Ǎ":{"ha":931,"x_min":14,"x_max":917,"o":"m 658 240 l 272 240 l 182 0 l 14 0 l 392 972 l 465 972 q 569 899 540 972 l 917 0 l 747 0 l 658 240 m 318 376 l 613 376 l 467 771 l 465 771 l 318 376 m 214 1321 l 357 1321 l 465 1179 l 572 1321 l 717 1321 l 518 1074 l 411 1074 l 214 1321 z "},"Â":{"ha":931,"x_min":14,"x_max":917,"o":"m 658 240 l 272 240 l 182 0 l 14 0 l 392 972 l 465 972 q 569 899 540 972 l 917 0 l 747 0 l 658 240 m 318 376 l 613 376 l 467 771 l 465 771 l 318 376 m 411 1321 l 518 1321 l 717 1074 l 572 1074 l 465 1215 l 357 1074 l 214 1074 l 411 1321 z "},"Ấ":{"ha":931,"x_min":14,"x_max":917,"o":"m 658 240 l 272 240 l 182 0 l 14 0 l 392 972 l 465 972 q 569 899 540 972 l 917 0 l 747 0 l 658 240 m 318 376 l 613 376 l 467 771 l 465 771 l 318 376 m 722 1492 l 872 1492 l 744 1300 l 617 1300 l 722 1492 m 411 1321 l 518 1321 l 717 1074 l 572 1074 l 465 1215 l 357 1074 l 214 1074 l 411 1321 z "},"Ậ":{"ha":931,"x_min":14,"x_max":917,"o":"m 658 240 l 272 240 l 182 0 l 14 0 l 392 972 l 465 972 q 569 899 540 972 l 917 0 l 747 0 l 658 240 m 318 376 l 613 376 l 467 771 l 465 771 l 318 376 m 465 -293 q 392 -265 419 -293 q 364 -192 364 -237 q 392 -118 364 -146 q 465 -90 419 -90 q 539 -118 511 -90 q 567 -192 567 -146 q 539 -265 567 -237 q 465 -293 511 -293 m 411 1321 l 518 1321 l 717 1074 l 572 1074 l 465 1215 l 357 1074 l 214 1074 l 411 1321 z "},"Ầ":{"ha":931,"x_min":14,"x_max":917,"o":"m 658 240 l 272 240 l 182 0 l 14 0 l 392 972 l 465 972 q 569 899 540 972 l 917 0 l 747 0 l 658 240 m 318 376 l 613 376 l 467 771 l 465 771 l 318 376 m 542 1492 l 692 1492 l 797 1300 l 669 1300 l 542 1492 m 411 1321 l 518 1321 l 717 1074 l 572 1074 l 465 1215 l 357 1074 l 214 1074 l 411 1321 z "},"Ẩ":{"ha":931,"x_min":14,"x_max":917,"o":"m 658 240 l 272 240 l 182 0 l 14 0 l 392 972 l 465 972 q 569 899 540 972 l 917 0 l 747 0 l 658 240 m 318 376 l 613 376 l 467 771 l 465 771 l 318 376 m 646 1288 q 661 1326 646 1311 q 706 1358 676 1340 q 743 1385 732 1375 q 754 1410 754 1394 l 754 1426 q 718 1460 754 1460 l 694 1460 q 653 1415 653 1460 l 553 1415 q 694 1550 553 1550 l 718 1550 q 860 1426 860 1550 l 860 1410 q 842 1358 860 1376 q 794 1319 825 1339 q 765 1297 774 1304 q 757 1278 757 1289 l 757 1265 l 646 1265 l 646 1288 m 411 1321 l 518 1321 l 717 1074 l 572 1074 l 465 1215 l 357 1074 l 214 1074 l 411 1321 z "},"Ẫ":{"ha":931,"x_min":14,"x_max":917,"o":"m 658 240 l 272 240 l 182 0 l 14 0 l 392 972 l 465 972 q 569 899 540 972 l 917 0 l 747 0 l 658 240 m 318 376 l 613 376 l 467 771 l 465 771 l 318 376 m 549 1367 q 499 1378 521 1367 q 451 1410 478 1389 q 437 1421 449 1413 q 415 1433 425 1429 q 397 1438 406 1438 l 389 1438 q 359 1422 371 1438 q 347 1379 347 1406 l 242 1379 q 281 1493 242 1450 q 382 1536 319 1536 l 392 1536 q 441 1525 419 1536 q 494 1492 463 1514 q 520 1474 507 1482 q 543 1465 533 1465 l 551 1465 q 578 1481 568 1465 q 589 1522 589 1496 l 696 1522 q 657 1409 694 1451 q 558 1367 619 1367 l 549 1367 m 411 1321 l 518 1321 l 717 1074 l 572 1074 l 465 1215 l 357 1074 l 214 1074 l 411 1321 z "},"Ä":{"ha":931,"x_min":14,"x_max":917,"o":"m 658 240 l 272 240 l 182 0 l 14 0 l 392 972 l 465 972 q 569 899 540 972 l 917 0 l 747 0 l 658 240 m 318 376 l 613 376 l 467 771 l 465 771 l 318 376 m 304 1075 q 240 1100 264 1075 q 215 1164 215 1125 q 240 1228 215 1204 q 304 1253 264 1253 q 368 1228 343 1253 q 393 1164 393 1204 q 368 1100 393 1125 q 304 1075 343 1075 m 626 1075 q 563 1100 588 1075 q 538 1164 538 1125 q 563 1228 538 1204 q 626 1253 588 1253 q 691 1228 667 1253 q 715 1164 715 1204 q 691 1100 715 1125 q 626 1075 667 1075 z "},"Ạ":{"ha":931,"x_min":14,"x_max":917,"o":"m 658 240 l 272 240 l 182 0 l 14 0 l 392 972 l 465 972 q 569 899 540 972 l 917 0 l 747 0 l 658 240 m 318 376 l 613 376 l 467 771 l 465 771 l 318 376 m 465 -293 q 392 -265 419 -293 q 364 -192 364 -237 q 392 -118 364 -146 q 465 -90 419 -90 q 539 -118 511 -90 q 567 -192 567 -146 q 539 -265 567 -237 q 465 -293 511 -293 z "},"À":{"ha":931,"x_min":14,"x_max":917,"o":"m 658 240 l 272 240 l 182 0 l 14 0 l 392 972 l 465 972 q 569 899 540 972 l 917 0 l 747 0 l 658 240 m 318 376 l 613 376 l 467 771 l 465 771 l 318 376 m 235 1311 l 411 1311 l 540 1074 l 389 1074 l 235 1311 z "},"Ả":{"ha":931,"x_min":14,"x_max":917,"o":"m 658 240 l 272 240 l 182 0 l 14 0 l 392 972 l 465 972 q 569 899 540 972 l 917 0 l 747 0 l 658 240 m 318 376 l 613 376 l 467 771 l 465 771 l 318 376 m 396 1086 q 415 1133 396 1115 q 468 1171 433 1151 q 511 1201 497 1189 q 525 1232 525 1214 l 525 1247 q 513 1279 525 1268 q 479 1290 501 1290 l 451 1290 q 399 1235 399 1290 l 286 1235 q 328 1352 286 1313 q 451 1392 369 1392 l 479 1392 q 600 1355 558 1392 q 642 1247 642 1318 l 642 1232 q 622 1171 642 1193 q 567 1125 603 1149 q 534 1101 544 1111 q 524 1076 524 1090 l 524 1058 l 396 1058 l 396 1086 z "},"Ā":{"ha":931,"x_min":14,"x_max":917,"o":"m 658 240 l 272 240 l 182 0 l 14 0 l 392 972 l 465 972 q 569 899 540 972 l 917 0 l 747 0 l 658 240 m 318 376 l 613 376 l 467 771 l 465 771 l 318 376 m 258 1214 l 672 1214 l 672 1092 l 258 1092 l 258 1214 z "},"Ą":{"ha":931,"x_min":14,"x_max":988,"o":"m 658 240 l 272 240 l 182 0 l 14 0 l 392 972 l 465 972 q 569 899 540 972 l 917 0 l 747 0 l 658 240 m 318 376 l 613 376 l 467 771 l 465 771 l 318 376 m 860 -311 q 735 -273 782 -311 q 689 -171 689 -235 l 689 -153 q 715 -66 689 -108 q 782 0 740 -24 l 915 0 q 846 -60 872 -24 q 819 -133 819 -97 l 819 -151 q 837 -190 819 -175 q 883 -204 854 -204 l 903 -204 q 947 -197 924 -204 q 988 -176 971 -189 l 988 -281 q 939 -303 969 -294 q 878 -311 908 -311 l 860 -311 z "},"Å":{"ha":931,"x_min":14,"x_max":917,"o":"m 658 240 l 272 240 l 182 0 l 14 0 l 392 972 l 465 972 q 569 899 540 972 l 917 0 l 747 0 l 658 240 m 318 376 l 613 376 l 467 771 l 465 771 l 318 376 m 465 1036 q 347 1080 392 1036 q 303 1196 303 1124 q 348 1310 303 1267 q 465 1354 393 1354 q 583 1310 538 1354 q 628 1196 628 1267 q 583 1080 628 1124 q 465 1036 539 1036 m 465 1129 q 514 1147 496 1129 q 532 1196 532 1165 q 514 1243 532 1225 q 465 1261 496 1261 q 417 1243 435 1261 q 399 1196 399 1225 q 417 1147 399 1165 q 465 1129 435 1129 z "},"Ǻ":{"ha":931,"x_min":14,"x_max":917,"o":"m 658 240 l 272 240 l 182 0 l 14 0 l 392 972 l 465 972 q 569 899 540 972 l 917 0 l 747 0 l 658 240 m 318 376 l 613 376 l 467 771 l 465 771 l 318 376 m 465 1036 q 347 1080 392 1036 q 303 1196 303 1124 q 348 1310 303 1267 q 465 1354 393 1354 q 583 1310 538 1354 q 628 1196 628 1267 q 583 1080 628 1124 q 465 1036 539 1036 m 465 1129 q 514 1147 496 1129 q 532 1196 532 1165 q 514 1243 532 1225 q 465 1261 496 1261 q 417 1243 435 1261 q 399 1196 399 1225 q 417 1147 399 1165 q 465 1129 435 1129 m 518 1661 l 694 1661 l 540 1424 l 389 1424 l 518 1661 z "},"Ã":{"ha":931,"x_min":14,"x_max":917,"o":"m 658 240 l 272 240 l 182 0 l 14 0 l 392 972 l 465 972 q 569 899 540 972 l 917 0 l 747 0 l 658 240 m 318 376 l 613 376 l 467 771 l 465 771 l 318 376 m 553 1063 q 497 1077 521 1063 q 443 1117 472 1092 q 413 1142 425 1133 q 388 1150 400 1150 l 378 1150 q 347 1130 358 1150 q 333 1078 335 1110 l 215 1078 q 258 1211 215 1160 q 371 1263 301 1263 l 382 1263 q 440 1247 415 1263 q 496 1206 465 1232 q 524 1183 513 1190 q 544 1175 535 1175 l 556 1175 q 584 1194 572 1175 q 597 1247 596 1214 l 714 1247 q 672 1113 714 1164 q 563 1063 631 1063 l 553 1063 z "},"Æ":{"ha":1318,"x_min":-6,"x_max":1265,"o":"m 731 832 l 731 568 l 1210 568 l 1210 426 l 731 426 l 731 140 l 1265 140 l 1265 0 l 694 0 q 606 32 639 0 q 574 118 574 64 l 574 243 l 293 243 l 160 0 l -6 0 l 529 972 l 1265 972 l 1265 832 l 731 832 m 585 382 l 585 794 l 363 382 l 585 382 z "},"Ǽ":{"ha":1318,"x_min":-6,"x_max":1265,"o":"m 731 832 l 731 568 l 1210 568 l 1210 426 l 731 426 l 731 140 l 1265 140 l 1265 0 l 694 0 q 606 32 639 0 q 574 118 574 64 l 574 243 l 293 243 l 160 0 l -6 0 l 529 972 l 1265 972 l 1265 832 l 731 832 m 585 382 l 585 794 l 363 382 l 585 382 m 786 1311 l 963 1311 l 808 1074 l 657 1074 l 786 1311 z "},"B":{"ha":946,"x_min":94,"x_max":901,"o":"m 214 0 q 128 33 161 0 q 94 117 94 65 l 94 972 l 554 972 q 762 910 683 972 q 840 747 840 849 l 840 676 q 817 585 840 628 q 751 515 793 542 l 751 514 q 860 439 819 492 q 901 319 901 386 l 901 250 q 822 67 901 135 q 608 0 743 0 l 214 0 m 563 557 q 646 590 614 557 q 678 676 678 624 l 678 733 q 642 804 678 778 q 549 831 607 831 l 257 831 l 257 557 l 563 557 m 594 142 q 701 172 663 142 q 739 257 739 203 l 739 319 q 706 395 739 367 q 617 424 672 424 l 257 424 l 257 142 l 594 142 z "},"C":{"ha":943,"x_min":67,"x_max":901,"o":"m 411 -11 q 231 34 308 -11 q 110 162 153 79 q 67 353 67 244 l 67 619 q 110 810 67 728 q 233 938 154 893 q 417 983 313 983 l 564 983 q 739 941 663 983 q 857 822 815 899 q 899 643 899 744 l 739 643 q 690 786 739 732 q 564 840 642 840 l 417 840 q 281 778 332 840 q 229 614 229 715 l 229 358 q 279 194 229 256 q 411 132 329 132 l 561 132 q 692 193 642 132 q 742 351 742 254 l 901 351 q 859 161 901 243 q 740 34 817 79 q 561 -11 663 -11 l 411 -11 z "},"Ć":{"ha":943,"x_min":67,"x_max":901,"o":"m 411 -11 q 231 34 308 -11 q 110 162 153 79 q 67 353 67 244 l 67 619 q 110 810 67 728 q 233 938 154 893 q 417 983 313 983 l 564 983 q 739 941 663 983 q 857 822 815 899 q 899 643 899 744 l 739 643 q 690 786 739 732 q 564 840 642 840 l 417 840 q 281 778 332 840 q 229 614 229 715 l 229 358 q 279 194 229 256 q 411 132 329 132 l 561 132 q 692 193 642 132 q 742 351 742 254 l 901 351 q 859 161 901 243 q 740 34 817 79 q 561 -11 663 -11 l 411 -11 m 538 1311 l 714 1311 l 560 1074 l 408 1074 l 538 1311 z "},"Č":{"ha":943,"x_min":67,"x_max":901,"o":"m 411 -11 q 231 34 308 -11 q 110 162 153 79 q 67 353 67 244 l 67 619 q 110 810 67 728 q 233 938 154 893 q 417 983 313 983 l 564 983 q 739 941 663 983 q 857 822 815 899 q 899 643 899 744 l 739 643 q 690 786 739 732 q 564 840 642 840 l 417 840 q 281 778 332 840 q 229 614 229 715 l 229 358 q 279 194 229 256 q 411 132 329 132 l 561 132 q 692 193 642 132 q 742 351 742 254 l 901 351 q 859 161 901 243 q 740 34 817 79 q 561 -11 663 -11 l 411 -11 m 233 1321 l 376 1321 l 485 1179 l 592 1321 l 736 1321 l 538 1074 l 431 1074 l 233 1321 z "},"Ç":{"ha":943,"x_min":67,"x_max":901,"o":"m 542 -11 l 515 -68 l 528 -68 q 616 -99 583 -68 q 649 -179 649 -129 l 649 -203 q 602 -299 649 -262 q 479 -335 556 -335 l 364 -335 l 364 -236 l 468 -236 q 512 -226 496 -236 q 528 -200 528 -217 l 528 -181 q 514 -156 528 -165 q 476 -146 500 -146 l 394 -146 l 394 -78 l 422 -11 l 411 -11 q 231 34 308 -11 q 110 162 153 79 q 67 353 67 244 l 67 619 q 110 810 67 728 q 233 938 154 893 q 417 983 313 983 l 564 983 q 739 941 663 983 q 857 822 815 899 q 899 643 899 744 l 739 643 q 690 786 739 732 q 564 840 642 840 l 417 840 q 281 778 332 840 q 229 614 229 715 l 229 358 q 279 194 229 256 q 411 132 329 132 l 561 132 q 692 193 642 132 q 742 351 742 254 l 901 351 q 859 161 901 243 q 740 34 817 79 q 561 -11 663 -11 l 542 -11 z "},"Ĉ":{"ha":943,"x_min":67,"x_max":901,"o":"m 411 -11 q 231 34 308 -11 q 110 162 153 79 q 67 353 67 244 l 67 619 q 110 810 67 728 q 233 938 154 893 q 417 983 313 983 l 564 983 q 739 941 663 983 q 857 822 815 899 q 899 643 899 744 l 739 643 q 690 786 739 732 q 564 840 642 840 l 417 840 q 281 778 332 840 q 229 614 229 715 l 229 358 q 279 194 229 256 q 411 132 329 132 l 561 132 q 692 193 642 132 q 742 351 742 254 l 901 351 q 859 161 901 243 q 740 34 817 79 q 561 -11 663 -11 l 411 -11 m 431 1321 l 538 1321 l 736 1074 l 592 1074 l 485 1215 l 376 1074 l 233 1074 l 431 1321 z "},"Ċ":{"ha":943,"x_min":67,"x_max":901,"o":"m 411 -11 q 231 34 308 -11 q 110 162 153 79 q 67 353 67 244 l 67 619 q 110 810 67 728 q 233 938 154 893 q 417 983 313 983 l 564 983 q 739 941 663 983 q 857 822 815 899 q 899 643 899 744 l 739 643 q 690 786 739 732 q 564 840 642 840 l 417 840 q 281 778 332 840 q 229 614 229 715 l 229 358 q 279 194 229 256 q 411 132 329 132 l 561 132 q 692 193 642 132 q 742 351 742 254 l 901 351 q 859 161 901 243 q 740 34 817 79 q 561 -11 663 -11 l 411 -11 m 485 1067 q 411 1094 439 1067 q 383 1167 383 1122 q 411 1241 383 1213 q 485 1269 439 1269 q 558 1241 531 1269 q 586 1167 586 1213 q 558 1094 586 1122 q 485 1067 531 1067 z "},"D":{"ha":963,"x_min":94,"x_max":901,"o":"m 214 0 q 127 32 160 0 q 94 117 94 64 l 94 972 l 538 972 q 728 931 646 972 q 856 815 811 890 q 901 642 901 740 l 901 358 q 810 91 901 182 q 543 0 719 0 l 214 0 m 539 143 q 688 199 638 143 q 739 364 739 256 l 739 636 q 682 776 739 722 q 533 829 625 829 l 257 829 l 257 143 l 539 143 z "},"Ð":{"ha":1033,"x_min":32,"x_max":972,"o":"m 608 972 q 799 931 717 972 q 927 815 882 890 q 972 642 972 740 l 972 358 q 881 91 972 182 q 614 0 790 0 l 285 0 q 198 32 231 0 q 165 117 165 64 l 165 414 l 32 414 l 32 556 l 165 556 l 165 972 l 608 972 m 810 636 q 753 776 810 722 q 604 829 696 829 l 328 829 l 328 556 l 621 556 l 621 414 l 328 414 l 328 143 l 610 143 q 759 199 708 143 q 810 364 810 256 l 810 636 z "},"Ď":{"ha":963,"x_min":94,"x_max":901,"o":"m 214 0 q 127 32 160 0 q 94 117 94 64 l 94 972 l 538 972 q 728 931 646 972 q 856 815 811 890 q 901 642 901 740 l 901 358 q 810 91 901 182 q 543 0 719 0 l 214 0 m 539 143 q 688 199 638 143 q 739 364 739 256 l 739 636 q 682 776 739 722 q 533 829 625 829 l 257 829 l 257 143 l 539 143 m 236 1321 l 379 1321 l 488 1179 l 594 1321 l 739 1321 l 540 1074 l 433 1074 l 236 1321 z "},"Đ":{"ha":1033,"x_min":32,"x_max":972,"o":"m 608 972 q 799 931 717 972 q 927 815 882 890 q 972 642 972 740 l 972 358 q 881 91 972 182 q 614 0 790 0 l 285 0 q 198 32 231 0 q 165 117 165 64 l 165 414 l 32 414 l 32 556 l 165 556 l 165 972 l 608 972 m 810 636 q 753 776 810 722 q 604 829 696 829 l 328 829 l 328 556 l 621 556 l 621 414 l 328 414 l 328 143 l 610 143 q 759 199 708 143 q 810 364 810 256 l 810 636 z "},"Ḍ":{"ha":963,"x_min":94,"x_max":901,"o":"m 214 0 q 127 32 160 0 q 94 117 94 64 l 94 972 l 538 972 q 728 931 646 972 q 856 815 811 890 q 901 642 901 740 l 901 358 q 810 91 901 182 q 543 0 719 0 l 214 0 m 539 143 q 688 199 638 143 q 739 364 739 256 l 739 636 q 682 776 739 722 q 533 829 625 829 l 257 829 l 257 143 l 539 143 m 494 -293 q 421 -265 449 -293 q 393 -192 393 -237 q 421 -118 393 -146 q 494 -90 449 -90 q 568 -118 540 -90 q 596 -192 596 -146 q 568 -265 596 -237 q 494 -293 540 -293 z "},"Ḏ":{"ha":963,"x_min":94,"x_max":901,"o":"m 214 0 q 127 32 160 0 q 94 117 94 64 l 94 972 l 538 972 q 728 931 646 972 q 856 815 811 890 q 901 642 901 740 l 901 358 q 810 91 901 182 q 543 0 719 0 l 214 0 m 539 143 q 688 199 638 143 q 739 364 739 256 l 739 636 q 682 776 739 722 q 533 829 625 829 l 257 829 l 257 143 l 539 143 m 288 -110 l 701 -110 l 701 -235 l 288 -235 l 288 -110 z "},"E":{"ha":860,"x_min":94,"x_max":807,"o":"m 214 0 q 127 33 160 0 q 94 118 94 65 l 94 972 l 807 972 l 807 832 l 257 832 l 257 568 l 765 568 l 765 426 l 257 426 l 257 140 l 807 140 l 807 0 l 214 0 z "},"É":{"ha":860,"x_min":94,"x_max":807,"o":"m 214 0 q 127 33 160 0 q 94 118 94 65 l 94 972 l 807 972 l 807 832 l 257 832 l 257 568 l 765 568 l 765 426 l 257 426 l 257 140 l 807 140 l 807 0 l 214 0 m 508 1311 l 685 1311 l 531 1074 l 379 1074 l 508 1311 z "},"Ĕ":{"ha":860,"x_min":94,"x_max":807,"o":"m 214 0 q 127 33 160 0 q 94 118 94 65 l 94 972 l 807 972 l 807 832 l 257 832 l 257 568 l 765 568 l 765 426 l 257 426 l 257 140 l 807 140 l 807 0 l 214 0 m 447 1063 q 286 1117 347 1063 q 225 1263 225 1172 l 225 1285 l 350 1285 l 350 1263 q 376 1194 350 1219 q 447 1169 403 1169 l 464 1169 q 535 1194 508 1169 q 563 1263 563 1219 l 563 1285 l 686 1285 l 686 1263 q 625 1117 686 1172 q 464 1063 564 1063 l 447 1063 z "},"Ě":{"ha":860,"x_min":94,"x_max":807,"o":"m 214 0 q 127 33 160 0 q 94 118 94 65 l 94 972 l 807 972 l 807 832 l 257 832 l 257 568 l 765 568 l 765 426 l 257 426 l 257 140 l 807 140 l 807 0 l 214 0 m 204 1321 l 347 1321 l 456 1179 l 563 1321 l 707 1321 l 508 1074 l 401 1074 l 204 1321 z "},"Ê":{"ha":860,"x_min":94,"x_max":807,"o":"m 214 0 q 127 33 160 0 q 94 118 94 65 l 94 972 l 807 972 l 807 832 l 257 832 l 257 568 l 765 568 l 765 426 l 257 426 l 257 140 l 807 140 l 807 0 l 214 0 m 401 1321 l 508 1321 l 707 1074 l 563 1074 l 456 1215 l 347 1074 l 204 1074 l 401 1321 z "},"Ế":{"ha":860,"x_min":94,"x_max":863,"o":"m 214 0 q 127 33 160 0 q 94 118 94 65 l 94 972 l 807 972 l 807 832 l 257 832 l 257 568 l 765 568 l 765 426 l 257 426 l 257 140 l 807 140 l 807 0 l 214 0 m 713 1492 l 863 1492 l 735 1300 l 607 1300 l 713 1492 m 401 1321 l 508 1321 l 707 1074 l 563 1074 l 456 1215 l 347 1074 l 204 1074 l 401 1321 z "},"Ệ":{"ha":860,"x_min":94,"x_max":807,"o":"m 214 0 q 127 33 160 0 q 94 118 94 65 l 94 972 l 807 972 l 807 832 l 257 832 l 257 568 l 765 568 l 765 426 l 257 426 l 257 140 l 807 140 l 807 0 l 214 0 m 461 -293 q 388 -265 415 -293 q 360 -192 360 -237 q 388 -118 360 -146 q 461 -90 415 -90 q 535 -118 507 -90 q 563 -192 563 -146 q 535 -265 563 -237 q 461 -293 507 -293 m 401 1321 l 508 1321 l 707 1074 l 563 1074 l 456 1215 l 347 1074 l 204 1074 l 401 1321 z "},"Ề":{"ha":860,"x_min":94,"x_max":807,"o":"m 214 0 q 127 33 160 0 q 94 118 94 65 l 94 972 l 807 972 l 807 832 l 257 832 l 257 568 l 765 568 l 765 426 l 257 426 l 257 140 l 807 140 l 807 0 l 214 0 m 532 1492 l 682 1492 l 788 1300 l 660 1300 l 532 1492 m 401 1321 l 508 1321 l 707 1074 l 563 1074 l 456 1215 l 347 1074 l 204 1074 l 401 1321 z "},"Ể":{"ha":860,"x_min":94,"x_max":850,"o":"m 214 0 q 127 33 160 0 q 94 118 94 65 l 94 972 l 807 972 l 807 832 l 257 832 l 257 568 l 765 568 l 765 426 l 257 426 l 257 140 l 807 140 l 807 0 l 214 0 m 636 1288 q 651 1326 636 1311 q 696 1358 667 1340 q 733 1385 722 1375 q 744 1410 744 1394 l 744 1426 q 708 1460 744 1460 l 685 1460 q 643 1415 643 1460 l 543 1415 q 685 1550 543 1550 l 708 1550 q 850 1426 850 1550 l 850 1410 q 833 1358 850 1376 q 785 1319 815 1339 q 756 1297 764 1304 q 747 1278 747 1289 l 747 1265 l 636 1265 l 636 1288 m 401 1321 l 508 1321 l 707 1074 l 563 1074 l 456 1215 l 347 1074 l 204 1074 l 401 1321 z "},"Ễ":{"ha":860,"x_min":94,"x_max":807,"o":"m 214 0 q 127 33 160 0 q 94 118 94 65 l 94 972 l 807 972 l 807 832 l 257 832 l 257 568 l 765 568 l 765 426 l 257 426 l 257 140 l 807 140 l 807 0 l 214 0 m 539 1367 q 490 1378 511 1367 q 442 1410 468 1389 q 427 1421 439 1413 q 406 1433 415 1429 q 388 1438 396 1438 l 379 1438 q 349 1422 361 1438 q 338 1379 338 1406 l 232 1379 q 271 1493 232 1450 q 372 1536 310 1536 l 382 1536 q 431 1525 410 1536 q 485 1492 453 1514 q 510 1474 497 1482 q 533 1465 524 1465 l 542 1465 q 569 1481 558 1465 q 579 1522 579 1496 l 686 1522 q 647 1409 685 1451 q 549 1367 610 1367 l 539 1367 m 401 1321 l 508 1321 l 707 1074 l 563 1074 l 456 1215 l 347 1074 l 204 1074 l 401 1321 z "},"Ë":{"ha":860,"x_min":94,"x_max":807,"o":"m 214 0 q 127 33 160 0 q 94 118 94 65 l 94 972 l 807 972 l 807 832 l 257 832 l 257 568 l 765 568 l 765 426 l 257 426 l 257 140 l 807 140 l 807 0 l 214 0 m 294 1075 q 230 1100 254 1075 q 206 1164 206 1125 q 230 1228 206 1204 q 294 1253 254 1253 q 358 1228 333 1253 q 383 1164 383 1204 q 358 1100 383 1125 q 294 1075 333 1075 m 617 1075 q 553 1100 578 1075 q 528 1164 528 1125 q 553 1228 528 1204 q 617 1253 578 1253 q 681 1228 657 1253 q 706 1164 706 1204 q 681 1100 706 1125 q 617 1075 657 1075 z "},"Ė":{"ha":860,"x_min":94,"x_max":807,"o":"m 214 0 q 127 33 160 0 q 94 118 94 65 l 94 972 l 807 972 l 807 832 l 257 832 l 257 568 l 765 568 l 765 426 l 257 426 l 257 140 l 807 140 l 807 0 l 214 0 m 456 1067 q 382 1094 410 1067 q 354 1167 354 1122 q 382 1241 354 1213 q 456 1269 410 1269 q 529 1241 501 1269 q 557 1167 557 1213 q 529 1094 557 1122 q 456 1067 501 1067 z "},"Ẹ":{"ha":860,"x_min":94,"x_max":807,"o":"m 214 0 q 127 33 160 0 q 94 118 94 65 l 94 972 l 807 972 l 807 832 l 257 832 l 257 568 l 765 568 l 765 426 l 257 426 l 257 140 l 807 140 l 807 0 l 214 0 m 461 -293 q 388 -265 415 -293 q 360 -192 360 -237 q 388 -118 360 -146 q 461 -90 415 -90 q 535 -118 507 -90 q 563 -192 563 -146 q 535 -265 563 -237 q 461 -293 507 -293 z "},"È":{"ha":860,"x_min":94,"x_max":807,"o":"m 214 0 q 127 33 160 0 q 94 118 94 65 l 94 972 l 807 972 l 807 832 l 257 832 l 257 568 l 765 568 l 765 426 l 257 426 l 257 140 l 807 140 l 807 0 l 214 0 m 225 1311 l 401 1311 l 531 1074 l 379 1074 l 225 1311 z "},"Ẻ":{"ha":860,"x_min":94,"x_max":807,"o":"m 214 0 q 127 33 160 0 q 94 118 94 65 l 94 972 l 807 972 l 807 832 l 257 832 l 257 568 l 765 568 l 765 426 l 257 426 l 257 140 l 807 140 l 807 0 l 214 0 m 386 1086 q 405 1133 386 1115 q 458 1171 424 1151 q 501 1201 488 1189 q 515 1232 515 1214 l 515 1247 q 503 1279 515 1268 q 469 1290 492 1290 l 442 1290 q 389 1235 389 1290 l 276 1235 q 318 1352 276 1313 q 442 1392 360 1392 l 469 1392 q 590 1355 549 1392 q 632 1247 632 1318 l 632 1232 q 613 1171 632 1193 q 557 1125 593 1149 q 524 1101 535 1111 q 514 1076 514 1090 l 514 1058 l 386 1058 l 386 1086 z "},"Ē":{"ha":860,"x_min":94,"x_max":807,"o":"m 214 0 q 127 33 160 0 q 94 118 94 65 l 94 972 l 807 972 l 807 832 l 257 832 l 257 568 l 765 568 l 765 426 l 257 426 l 257 140 l 807 140 l 807 0 l 214 0 m 249 1214 l 663 1214 l 663 1092 l 249 1092 l 249 1214 z "},"Ę":{"ha":860,"x_min":94,"x_max":878,"o":"m 214 0 q 127 33 160 0 q 94 118 94 65 l 94 972 l 807 972 l 807 832 l 257 832 l 257 568 l 765 568 l 765 426 l 257 426 l 257 140 l 807 140 l 807 0 l 214 0 m 750 -311 q 626 -273 672 -311 q 579 -171 579 -235 l 579 -153 q 605 -66 579 -108 q 672 0 631 -24 l 806 0 q 736 -60 763 -24 q 710 -133 710 -97 l 710 -151 q 727 -190 710 -175 q 774 -204 744 -204 l 793 -204 q 838 -197 814 -204 q 878 -176 861 -189 l 878 -281 q 829 -303 860 -294 q 768 -311 799 -311 l 750 -311 z "},"Ẽ":{"ha":860,"x_min":94,"x_max":807,"o":"m 214 0 q 127 33 160 0 q 94 118 94 65 l 94 972 l 807 972 l 807 832 l 257 832 l 257 568 l 765 568 l 765 426 l 257 426 l 257 140 l 807 140 l 807 0 l 214 0 m 543 1063 q 487 1077 511 1063 q 433 1117 463 1092 q 403 1142 415 1133 q 378 1150 390 1150 l 368 1150 q 337 1130 349 1150 q 324 1078 325 1110 l 206 1078 q 249 1211 206 1160 q 361 1263 292 1263 l 372 1263 q 431 1247 406 1263 q 486 1206 456 1232 q 514 1183 503 1190 q 535 1175 525 1175 l 546 1175 q 574 1194 563 1175 q 588 1247 586 1214 l 704 1247 q 663 1113 704 1164 q 553 1063 621 1063 l 543 1063 z "},"F":{"ha":826,"x_min":94,"x_max":793,"o":"m 94 972 l 793 972 l 793 831 l 257 831 l 257 538 l 742 538 l 742 396 l 257 396 l 257 0 l 94 0 l 94 972 z "},"G":{"ha":976,"x_min":67,"x_max":915,"o":"m 414 -11 q 231 34 310 -11 q 110 162 153 79 q 67 353 67 244 l 67 619 q 110 810 67 728 q 234 938 154 893 q 418 983 314 983 l 571 983 q 747 942 671 983 q 865 827 824 901 q 907 656 907 753 l 747 656 q 699 790 747 739 q 571 840 650 840 l 418 840 q 281 778 333 840 q 229 614 229 717 l 229 358 q 280 194 229 256 q 414 132 331 132 l 572 132 q 704 189 653 132 q 756 335 756 246 l 756 382 l 486 382 l 486 524 l 915 524 l 915 335 q 872 155 915 233 q 751 33 829 76 q 572 -11 674 -11 l 414 -11 z "},"Ğ":{"ha":976,"x_min":67,"x_max":915,"o":"m 414 -11 q 231 34 310 -11 q 110 162 153 79 q 67 353 67 244 l 67 619 q 110 810 67 728 q 234 938 154 893 q 418 983 314 983 l 571 983 q 747 942 671 983 q 865 827 824 901 q 907 656 907 753 l 747 656 q 699 790 747 739 q 571 840 650 840 l 418 840 q 281 778 333 840 q 229 614 229 717 l 229 358 q 280 194 229 256 q 414 132 331 132 l 572 132 q 704 189 653 132 q 756 335 756 246 l 756 382 l 486 382 l 486 524 l 915 524 l 915 335 q 872 155 915 233 q 751 33 829 76 q 572 -11 674 -11 l 414 -11 m 482 1063 q 321 1117 382 1063 q 260 1263 260 1172 l 260 1285 l 385 1285 l 385 1263 q 411 1194 385 1219 q 482 1169 438 1169 l 499 1169 q 570 1194 543 1169 q 597 1263 597 1219 l 597 1285 l 721 1285 l 721 1263 q 660 1117 721 1172 q 499 1063 599 1063 l 482 1063 z "},"Ǧ":{"ha":976,"x_min":67,"x_max":915,"o":"m 414 -11 q 231 34 310 -11 q 110 162 153 79 q 67 353 67 244 l 67 619 q 110 810 67 728 q 234 938 154 893 q 418 983 314 983 l 571 983 q 747 942 671 983 q 865 827 824 901 q 907 656 907 753 l 747 656 q 699 790 747 739 q 571 840 650 840 l 418 840 q 281 778 333 840 q 229 614 229 717 l 229 358 q 280 194 229 256 q 414 132 331 132 l 572 132 q 704 189 653 132 q 756 335 756 246 l 756 382 l 486 382 l 486 524 l 915 524 l 915 335 q 872 155 915 233 q 751 33 829 76 q 572 -11 674 -11 l 414 -11 m 239 1321 l 382 1321 l 490 1179 l 597 1321 l 742 1321 l 543 1074 l 436 1074 l 239 1321 z "},"Ĝ":{"ha":976,"x_min":67,"x_max":915,"o":"m 414 -11 q 231 34 310 -11 q 110 162 153 79 q 67 353 67 244 l 67 619 q 110 810 67 728 q 234 938 154 893 q 418 983 314 983 l 571 983 q 747 942 671 983 q 865 827 824 901 q 907 656 907 753 l 747 656 q 699 790 747 739 q 571 840 650 840 l 418 840 q 281 778 333 840 q 229 614 229 717 l 229 358 q 280 194 229 256 q 414 132 331 132 l 572 132 q 704 189 653 132 q 756 335 756 246 l 756 382 l 486 382 l 486 524 l 915 524 l 915 335 q 872 155 915 233 q 751 33 829 76 q 572 -11 674 -11 l 414 -11 m 436 1321 l 543 1321 l 742 1074 l 597 1074 l 490 1215 l 382 1074 l 239 1074 l 436 1321 z "},"Ģ":{"ha":976,"x_min":67,"x_max":915,"o":"m 414 -11 q 231 34 310 -11 q 110 162 153 79 q 67 353 67 244 l 67 619 q 110 810 67 728 q 234 938 154 893 q 418 983 314 983 l 571 983 q 747 942 671 983 q 865 827 824 901 q 907 656 907 753 l 747 656 q 699 790 747 739 q 571 840 650 840 l 418 840 q 281 778 333 840 q 229 614 229 717 l 229 358 q 280 194 229 256 q 414 132 331 132 l 572 132 q 704 189 653 132 q 756 335 756 246 l 756 382 l 486 382 l 486 524 l 915 524 l 915 335 q 872 155 915 233 q 751 33 829 76 q 572 -11 674 -11 l 414 -11 m 303 -326 l 338 -296 q 414 -143 414 -233 l 414 -92 l 572 -92 l 572 -143 q 541 -298 572 -232 q 444 -412 510 -364 l 404 -443 l 303 -326 z "},"Ġ":{"ha":976,"x_min":67,"x_max":915,"o":"m 414 -11 q 231 34 310 -11 q 110 162 153 79 q 67 353 67 244 l 67 619 q 110 810 67 728 q 234 938 154 893 q 418 983 314 983 l 571 983 q 747 942 671 983 q 865 827 824 901 q 907 656 907 753 l 747 656 q 699 790 747 739 q 571 840 650 840 l 418 840 q 281 778 333 840 q 229 614 229 717 l 229 358 q 280 194 229 256 q 414 132 331 132 l 572 132 q 704 189 653 132 q 756 335 756 246 l 756 382 l 486 382 l 486 524 l 915 524 l 915 335 q 872 155 915 233 q 751 33 829 76 q 572 -11 674 -11 l 414 -11 m 490 1067 q 417 1094 444 1067 q 389 1167 389 1122 q 417 1241 389 1213 q 490 1269 444 1269 q 564 1241 536 1269 q 592 1167 592 1213 q 564 1094 592 1122 q 490 1067 536 1067 z "},"Ḡ":{"ha":976,"x_min":67,"x_max":915,"o":"m 414 -11 q 231 34 310 -11 q 110 162 153 79 q 67 353 67 244 l 67 619 q 110 810 67 728 q 234 938 154 893 q 418 983 314 983 l 571 983 q 747 942 671 983 q 865 827 824 901 q 907 656 907 753 l 747 656 q 699 790 747 739 q 571 840 650 840 l 418 840 q 281 778 333 840 q 229 614 229 717 l 229 358 q 280 194 229 256 q 414 132 331 132 l 572 132 q 704 189 653 132 q 756 335 756 246 l 756 382 l 486 382 l 486 524 l 915 524 l 915 335 q 872 155 915 233 q 751 33 829 76 q 572 -11 674 -11 l 414 -11 m 283 1214 l 697 1214 l 697 1092 l 283 1092 l 283 1214 z "},"H":{"ha":993,"x_min":94,"x_max":899,"o":"m 94 972 l 257 972 l 257 560 l 738 560 l 738 972 l 899 972 l 899 0 l 738 0 l 738 418 l 257 418 l 257 0 l 94 0 l 94 972 z "},"Ħ":{"ha":1065,"x_min":19,"x_max":1046,"o":"m 1046 704 l 935 704 l 935 0 l 774 0 l 774 418 l 293 418 l 293 0 l 131 0 l 131 704 l 19 704 l 19 818 l 131 818 l 131 972 l 293 972 l 293 818 l 774 818 l 774 972 l 935 972 l 935 818 l 1046 818 l 1046 704 m 774 704 l 293 704 l 293 560 l 774 560 l 774 704 z "},"Ḫ":{"ha":993,"x_min":94,"x_max":899,"o":"m 94 972 l 257 972 l 257 560 l 738 560 l 738 972 l 899 972 l 899 0 l 738 0 l 738 418 l 257 418 l 257 0 l 94 0 l 94 972 m 485 -311 q 324 -256 385 -311 q 263 -111 263 -201 l 263 -89 l 388 -89 l 388 -111 q 414 -179 388 -154 q 485 -204 440 -204 l 501 -204 q 573 -179 546 -204 q 600 -111 600 -154 l 600 -89 l 724 -89 l 724 -111 q 663 -256 724 -201 q 501 -311 601 -311 l 485 -311 z "},"Ĥ":{"ha":993,"x_min":94,"x_max":899,"o":"m 94 972 l 257 972 l 257 560 l 738 560 l 738 972 l 899 972 l 899 0 l 738 0 l 738 418 l 257 418 l 257 0 l 94 0 l 94 972 m 438 1321 l 544 1321 l 743 1074 l 599 1074 l 492 1215 l 383 1074 l 240 1074 l 438 1321 z "},"Ḥ":{"ha":993,"x_min":94,"x_max":899,"o":"m 94 972 l 257 972 l 257 560 l 738 560 l 738 972 l 899 972 l 899 0 l 738 0 l 738 418 l 257 418 l 257 0 l 94 0 l 94 972 m 493 -293 q 419 -265 447 -293 q 392 -192 392 -237 q 419 -118 392 -146 q 493 -90 447 -90 q 567 -118 539 -90 q 594 -192 594 -146 q 567 -265 594 -237 q 493 -293 539 -293 z "},"I":{"ha":379,"x_min":108,"x_max":271,"o":"m 108 972 l 271 972 l 271 0 l 108 0 l 108 972 z "},"Ĳ":{"ha":1193,"x_min":108,"x_max":1110,"o":"m 108 972 l 271 972 l 271 0 l 108 0 l 108 972 m 696 -11 q 539 31 607 -11 q 433 151 471 74 q 396 328 396 228 l 556 328 q 594 185 556 239 q 696 132 633 132 l 807 132 q 909 188 871 132 q 947 339 947 244 l 947 972 l 1110 972 l 1110 333 q 1073 151 1110 229 q 969 31 1036 74 q 813 -11 901 -11 l 696 -11 z "},"Í":{"ha":379,"x_min":108,"x_max":418,"o":"m 108 972 l 271 972 l 271 0 l 108 0 l 108 972 m 242 1311 l 418 1311 l 264 1074 l 113 1074 l 242 1311 z "},"Ĭ":{"ha":379,"x_min":-42,"x_max":419,"o":"m 108 972 l 271 972 l 271 0 l 108 0 l 108 972 m 181 1063 q 19 1117 81 1063 q -42 1263 -42 1172 l -42 1285 l 83 1285 l 83 1263 q 110 1194 83 1219 q 181 1169 136 1169 l 197 1169 q 269 1194 242 1169 q 296 1263 296 1219 l 296 1285 l 419 1285 l 419 1263 q 358 1117 419 1172 q 197 1063 297 1063 l 181 1063 z "},"Ǐ":{"ha":379,"x_min":-62,"x_max":440,"o":"m 108 972 l 271 972 l 271 0 l 108 0 l 108 972 m -62 1321 l 81 1321 l 189 1179 l 296 1321 l 440 1321 l 242 1074 l 135 1074 l -62 1321 z "},"Î":{"ha":379,"x_min":-62,"x_max":440,"o":"m 108 972 l 271 972 l 271 0 l 108 0 l 108 972 m 135 1321 l 242 1321 l 440 1074 l 296 1074 l 189 1215 l 81 1074 l -62 1074 l 135 1321 z "},"Ï":{"ha":379,"x_min":-61,"x_max":439,"o":"m 108 972 l 271 972 l 271 0 l 108 0 l 108 972 m 28 1075 q -37 1100 -12 1075 q -61 1164 -61 1125 q -37 1228 -61 1204 q 28 1253 -12 1253 q 92 1228 67 1253 q 117 1164 117 1204 q 92 1100 117 1125 q 28 1075 67 1075 m 350 1075 q 286 1100 311 1075 q 261 1164 261 1125 q 286 1228 261 1204 q 350 1253 311 1253 q 415 1228 390 1253 q 439 1164 439 1204 q 415 1100 439 1125 q 350 1075 390 1075 z "},"İ":{"ha":379,"x_min":88,"x_max":290,"o":"m 108 972 l 271 972 l 271 0 l 108 0 l 108 972 m 189 1067 q 115 1094 143 1067 q 88 1167 88 1122 q 115 1241 88 1213 q 189 1269 143 1269 q 263 1241 235 1269 q 290 1167 290 1213 q 263 1094 290 1122 q 189 1067 235 1067 z "},"Ị":{"ha":379,"x_min":88,"x_max":290,"o":"m 108 972 l 271 972 l 271 0 l 108 0 l 108 972 m 189 -293 q 115 -265 143 -293 q 88 -192 88 -237 q 115 -118 88 -146 q 189 -90 143 -90 q 263 -118 235 -90 q 290 -192 290 -146 q 263 -265 290 -237 q 189 -293 235 -293 z "},"Ì":{"ha":379,"x_min":-42,"x_max":271,"o":"m 108 972 l 271 972 l 271 0 l 108 0 l 108 972 m -42 1311 l 135 1311 l 264 1074 l 113 1074 l -42 1311 z "},"Ỉ":{"ha":379,"x_min":10,"x_max":365,"o":"m 108 972 l 271 972 l 271 0 l 108 0 l 108 972 m 119 1086 q 138 1133 119 1115 q 192 1171 157 1151 q 235 1201 221 1189 q 249 1232 249 1214 l 249 1247 q 237 1279 249 1268 q 203 1290 225 1290 l 175 1290 q 122 1235 122 1290 l 10 1235 q 51 1352 10 1313 q 175 1392 93 1392 l 203 1392 q 324 1355 282 1392 q 365 1247 365 1318 l 365 1232 q 346 1171 365 1193 q 290 1125 326 1149 q 258 1101 268 1111 q 247 1076 247 1090 l 247 1058 l 119 1058 l 119 1086 z "},"Ī":{"ha":379,"x_min":-18,"x_max":396,"o":"m 108 972 l 271 972 l 271 0 l 108 0 l 108 972 m -18 1214 l 396 1214 l 396 1092 l -18 1092 l -18 1214 z "},"Į":{"ha":379,"x_min":43,"x_max":342,"o":"m 108 972 l 271 972 l 271 0 l 108 0 l 108 972 m 214 -311 q 90 -273 136 -311 q 43 -171 43 -235 l 43 -153 q 69 -66 43 -108 q 136 0 94 -24 l 269 0 q 200 -60 226 -24 q 174 -133 174 -97 l 174 -151 q 191 -190 174 -175 q 238 -204 208 -204 l 257 -204 q 301 -197 278 -204 q 342 -176 325 -189 l 342 -281 q 293 -303 324 -294 q 232 -311 263 -311 l 214 -311 z "},"Ĩ":{"ha":379,"x_min":-61,"x_max":438,"o":"m 108 972 l 271 972 l 271 0 l 108 0 l 108 972 m 276 1063 q 220 1077 244 1063 q 167 1117 196 1092 q 136 1142 149 1133 q 111 1150 124 1150 l 101 1150 q 70 1130 82 1150 q 57 1078 58 1110 l -61 1078 q -18 1211 -61 1160 q 94 1263 25 1263 l 106 1263 q 164 1247 139 1263 q 219 1206 189 1232 q 247 1183 236 1190 q 268 1175 258 1175 l 279 1175 q 308 1194 296 1175 q 321 1247 319 1214 l 438 1247 q 396 1113 438 1164 q 286 1063 354 1063 l 276 1063 z "},"J":{"ha":828,"x_min":31,"x_max":744,"o":"m 331 -11 q 174 31 242 -11 q 68 151 106 74 q 31 328 31 228 l 190 328 q 229 185 190 239 q 331 132 268 132 l 442 132 q 544 188 506 132 q 582 339 582 244 l 582 972 l 744 972 l 744 333 q 708 151 744 229 q 603 31 671 74 q 447 -11 536 -11 l 331 -11 z "},"Ĵ":{"ha":828,"x_min":31,"x_max":913,"o":"m 331 -11 q 174 31 242 -11 q 68 151 106 74 q 31 328 31 228 l 190 328 q 229 185 190 239 q 331 132 268 132 l 442 132 q 544 188 506 132 q 582 339 582 244 l 582 972 l 744 972 l 744 333 q 708 151 744 229 q 603 31 671 74 q 447 -11 536 -11 l 331 -11 m 607 1321 l 714 1321 l 913 1074 l 768 1074 l 661 1215 l 553 1074 l 410 1074 l 607 1321 z "},"K":{"ha":915,"x_min":94,"x_max":896,"o":"m 699 0 l 360 428 l 257 318 l 257 0 l 94 0 l 94 972 l 257 972 l 257 524 l 671 972 l 871 972 l 469 544 l 896 0 l 699 0 z "},"Ķ":{"ha":915,"x_min":94,"x_max":896,"o":"m 699 0 l 360 428 l 257 318 l 257 0 l 94 0 l 94 972 l 257 972 l 257 524 l 671 972 l 871 972 l 469 544 l 896 0 l 699 0 m 274 -326 l 308 -296 q 385 -143 385 -233 l 385 -92 l 543 -92 l 543 -143 q 512 -298 543 -232 q 415 -412 481 -364 l 375 -443 l 274 -326 z "},"L":{"ha":804,"x_min":94,"x_max":785,"o":"m 214 0 q 126 32 158 0 q 94 117 94 64 l 94 972 l 257 972 l 257 142 l 785 142 l 785 0 l 214 0 z "},"Ĺ":{"ha":804,"x_min":94,"x_max":785,"o":"m 214 0 q 126 32 158 0 q 94 117 94 64 l 94 972 l 257 972 l 257 142 l 785 142 l 785 0 l 214 0 m 228 1311 l 404 1311 l 250 1074 l 99 1074 l 228 1311 z "},"Ľ":{"ha":819,"x_min":94,"x_max":800,"o":"m 214 0 q 126 32 158 0 q 94 117 94 64 l 94 972 l 257 972 l 257 142 l 785 142 l 785 0 l 214 0 m 531 729 l 565 758 q 642 913 642 821 l 642 972 l 800 972 l 800 913 q 769 758 800 824 q 672 642 738 692 l 632 611 l 531 729 z "},"Ļ":{"ha":804,"x_min":94,"x_max":785,"o":"m 214 0 q 126 32 158 0 q 94 117 94 64 l 94 972 l 257 972 l 257 142 l 785 142 l 785 0 l 214 0 m 257 -326 l 292 -296 q 368 -143 368 -233 l 368 -92 l 526 -92 l 526 -143 q 495 -298 526 -232 q 399 -412 464 -364 l 358 -443 l 257 -326 z "},"Ŀ":{"ha":804,"x_min":94,"x_max":785,"o":"m 214 0 q 126 32 158 0 q 94 117 94 64 l 94 972 l 257 972 l 257 142 l 785 142 l 785 0 l 214 0 z "},"Ḷ":{"ha":804,"x_min":94,"x_max":785,"o":"m 214 0 q 126 32 158 0 q 94 117 94 64 l 94 972 l 257 972 l 257 142 l 785 142 l 785 0 l 214 0 m 446 -293 q 372 -265 400 -293 q 344 -192 344 -237 q 372 -118 344 -146 q 446 -90 400 -90 q 519 -118 492 -90 q 547 -192 547 -146 q 519 -265 547 -237 q 446 -293 492 -293 z "},"Ḹ":{"ha":804,"x_min":-32,"x_max":785,"o":"m 214 0 q 126 32 158 0 q 94 117 94 64 l 94 972 l 257 972 l 257 142 l 785 142 l 785 0 l 214 0 m 446 -293 q 372 -265 400 -293 q 344 -192 344 -237 q 372 -118 344 -146 q 446 -90 400 -90 q 519 -118 492 -90 q 547 -192 547 -146 q 519 -265 547 -237 q 446 -293 492 -293 m -32 1214 l 382 1214 l 382 1092 l -32 1092 l -32 1214 z "},"Ḻ":{"ha":804,"x_min":94,"x_max":785,"o":"m 214 0 q 126 32 158 0 q 94 117 94 64 l 94 972 l 257 972 l 257 142 l 785 142 l 785 0 l 214 0 m 239 -110 l 653 -110 l 653 -235 l 239 -235 l 239 -110 z "},"Ł":{"ha":836,"x_min":19,"x_max":817,"o":"m 817 142 l 817 0 l 247 0 q 159 32 192 0 q 126 117 126 64 l 126 319 l 19 257 l 19 415 l 126 478 l 126 972 l 289 972 l 289 574 l 472 681 l 472 522 l 289 415 l 289 142 l 817 142 z "},"M":{"ha":1131,"x_min":94,"x_max":1036,"o":"m 94 972 l 242 972 l 569 372 l 889 972 l 1036 972 l 1036 0 l 876 0 l 876 671 l 647 246 q 610 198 628 213 q 569 183 592 183 l 524 183 l 253 671 l 253 0 l 94 0 l 94 972 z "},"Ṃ":{"ha":1131,"x_min":94,"x_max":1036,"o":"m 94 972 l 242 972 l 569 372 l 889 972 l 1036 972 l 1036 0 l 876 0 l 876 671 l 647 246 q 610 198 628 213 q 569 183 592 183 l 524 183 l 253 671 l 253 0 l 94 0 l 94 972 m 567 -293 q 493 -265 521 -293 q 465 -192 465 -237 q 493 -118 465 -146 q 567 -90 521 -90 q 640 -118 613 -90 q 668 -192 668 -146 q 640 -265 668 -237 q 567 -293 613 -293 z "},"N":{"ha":985,"x_min":94,"x_max":890,"o":"m 94 972 l 240 972 l 732 261 l 732 972 l 890 972 l 890 0 l 743 0 l 253 708 l 253 0 l 94 0 l 94 972 z "},"Ń":{"ha":985,"x_min":94,"x_max":890,"o":"m 94 972 l 240 972 l 732 261 l 732 972 l 890 972 l 890 0 l 743 0 l 253 708 l 253 0 l 94 0 l 94 972 m 544 1311 l 721 1311 l 567 1074 l 415 1074 l 544 1311 z "},"Ň":{"ha":985,"x_min":94,"x_max":890,"o":"m 94 972 l 240 972 l 732 261 l 732 972 l 890 972 l 890 0 l 743 0 l 253 708 l 253 0 l 94 0 l 94 972 m 240 1321 l 383 1321 l 492 1179 l 599 1321 l 743 1321 l 544 1074 l 438 1074 l 240 1321 z "},"Ņ":{"ha":985,"x_min":94,"x_max":890,"o":"m 94 972 l 240 972 l 732 261 l 732 972 l 890 972 l 890 0 l 743 0 l 253 708 l 253 0 l 94 0 l 94 972 m 304 -326 l 339 -296 q 415 -143 415 -233 l 415 -92 l 574 -92 l 574 -143 q 542 -298 574 -232 q 446 -412 511 -364 l 406 -443 l 304 -326 z "},"Ṅ":{"ha":985,"x_min":94,"x_max":890,"o":"m 94 972 l 240 972 l 732 261 l 732 972 l 890 972 l 890 0 l 743 0 l 253 708 l 253 0 l 94 0 l 94 972 m 492 1067 q 418 1094 446 1067 q 390 1167 390 1122 q 418 1241 390 1213 q 492 1269 446 1269 q 565 1241 538 1269 q 593 1167 593 1213 q 565 1094 593 1122 q 492 1067 538 1067 z "},"Ṇ":{"ha":985,"x_min":94,"x_max":890,"o":"m 94 972 l 240 972 l 732 261 l 732 972 l 890 972 l 890 0 l 743 0 l 253 708 l 253 0 l 94 0 l 94 972 m 493 -293 q 419 -265 447 -293 q 392 -192 392 -237 q 419 -118 392 -146 q 493 -90 447 -90 q 567 -118 539 -90 q 594 -192 594 -146 q 567 -265 594 -237 q 493 -293 539 -293 z "},"Ŋ":{"ha":988,"x_min":94,"x_max":893,"o":"m 550 -149 l 628 -149 q 708 -116 683 -149 q 733 -11 733 -83 l 733 1 l 256 703 l 256 0 l 94 0 l 94 972 l 238 972 l 732 242 l 732 972 l 893 972 l 893 -4 q 832 -221 893 -156 q 628 -286 771 -286 l 550 -286 l 550 -149 z "},"Ṉ":{"ha":985,"x_min":94,"x_max":890,"o":"m 94 972 l 240 972 l 732 261 l 732 972 l 890 972 l 890 0 l 743 0 l 253 708 l 253 0 l 94 0 l 94 972 m 286 -110 l 700 -110 l 700 -235 l 286 -235 l 286 -110 z "},"Ñ":{"ha":985,"x_min":94,"x_max":890,"o":"m 94 972 l 240 972 l 732 261 l 732 972 l 890 972 l 890 0 l 743 0 l 253 708 l 253 0 l 94 0 l 94 972 m 579 1063 q 523 1077 547 1063 q 469 1117 499 1092 q 439 1142 451 1133 q 414 1150 426 1150 l 404 1150 q 373 1130 385 1150 q 360 1078 361 1110 l 242 1078 q 285 1211 242 1160 q 397 1263 328 1263 l 408 1263 q 467 1247 442 1263 q 522 1206 492 1232 q 550 1183 539 1190 q 571 1175 561 1175 l 582 1175 q 610 1194 599 1175 q 624 1247 622 1214 l 740 1247 q 699 1113 740 1164 q 589 1063 657 1063 l 579 1063 z "},"O":{"ha":993,"x_min":67,"x_max":926,"o":"m 422 -11 q 236 34 317 -11 q 111 162 156 79 q 67 353 67 244 l 67 619 q 111 810 67 728 q 236 938 156 893 q 422 983 317 983 l 569 983 q 756 938 675 983 q 882 810 838 893 q 926 619 926 728 l 926 353 q 882 162 926 244 q 756 34 838 79 q 569 -11 675 -11 l 422 -11 m 569 132 q 710 194 656 132 q 764 358 764 257 l 764 614 q 710 778 764 715 q 569 840 657 840 l 424 840 q 283 778 336 840 q 229 614 229 715 l 229 358 q 283 194 229 257 q 424 132 336 132 l 569 132 z "},"Ó":{"ha":993,"x_min":67,"x_max":926,"o":"m 422 -11 q 236 34 317 -11 q 111 162 156 79 q 67 353 67 244 l 67 619 q 111 810 67 728 q 236 938 156 893 q 422 983 317 983 l 569 983 q 756 938 675 983 q 882 810 838 893 q 926 619 926 728 l 926 353 q 882 162 926 244 q 756 34 838 79 q 569 -11 675 -11 l 422 -11 m 569 132 q 710 194 656 132 q 764 358 764 257 l 764 614 q 710 778 764 715 q 569 840 657 840 l 424 840 q 283 778 336 840 q 229 614 229 715 l 229 358 q 283 194 229 257 q 424 132 336 132 l 569 132 m 549 1311 l 725 1311 l 571 1074 l 419 1074 l 549 1311 z "},"Ŏ":{"ha":993,"x_min":67,"x_max":926,"o":"m 422 -11 q 236 34 317 -11 q 111 162 156 79 q 67 353 67 244 l 67 619 q 111 810 67 728 q 236 938 156 893 q 422 983 317 983 l 569 983 q 756 938 675 983 q 882 810 838 893 q 926 619 926 728 l 926 353 q 882 162 926 244 q 756 34 838 79 q 569 -11 675 -11 l 422 -11 m 569 132 q 710 194 656 132 q 764 358 764 257 l 764 614 q 710 778 764 715 q 569 840 657 840 l 424 840 q 283 778 336 840 q 229 614 229 715 l 229 358 q 283 194 229 257 q 424 132 336 132 l 569 132 m 488 1063 q 326 1117 388 1063 q 265 1263 265 1172 l 265 1285 l 390 1285 l 390 1263 q 417 1194 390 1219 q 488 1169 443 1169 l 504 1169 q 576 1194 549 1169 q 603 1263 603 1219 l 603 1285 l 726 1285 l 726 1263 q 665 1117 726 1172 q 504 1063 604 1063 l 488 1063 z "},"Ǒ":{"ha":993,"x_min":67,"x_max":926,"o":"m 422 -11 q 236 34 317 -11 q 111 162 156 79 q 67 353 67 244 l 67 619 q 111 810 67 728 q 236 938 156 893 q 422 983 317 983 l 569 983 q 756 938 675 983 q 882 810 838 893 q 926 619 926 728 l 926 353 q 882 162 926 244 q 756 34 838 79 q 569 -11 675 -11 l 422 -11 m 569 132 q 710 194 656 132 q 764 358 764 257 l 764 614 q 710 778 764 715 q 569 840 657 840 l 424 840 q 283 778 336 840 q 229 614 229 715 l 229 358 q 283 194 229 257 q 424 132 336 132 l 569 132 m 244 1321 l 388 1321 l 496 1179 l 603 1321 l 747 1321 l 549 1074 l 442 1074 l 244 1321 z "},"Ô":{"ha":993,"x_min":67,"x_max":926,"o":"m 422 -11 q 236 34 317 -11 q 111 162 156 79 q 67 353 67 244 l 67 619 q 111 810 67 728 q 236 938 156 893 q 422 983 317 983 l 569 983 q 756 938 675 983 q 882 810 838 893 q 926 619 926 728 l 926 353 q 882 162 926 244 q 756 34 838 79 q 569 -11 675 -11 l 422 -11 m 569 132 q 710 194 656 132 q 764 358 764 257 l 764 614 q 710 778 764 715 q 569 840 657 840 l 424 840 q 283 778 336 840 q 229 614 229 715 l 229 358 q 283 194 229 257 q 424 132 336 132 l 569 132 m 442 1321 l 549 1321 l 747 1074 l 603 1074 l 496 1215 l 388 1074 l 244 1074 l 442 1321 z "},"Ố":{"ha":993,"x_min":67,"x_max":926,"o":"m 422 -11 q 236 34 317 -11 q 111 162 156 79 q 67 353 67 244 l 67 619 q 111 810 67 728 q 236 938 156 893 q 422 983 317 983 l 569 983 q 756 938 675 983 q 882 810 838 893 q 926 619 926 728 l 926 353 q 882 162 926 244 q 756 34 838 79 q 569 -11 675 -11 l 422 -11 m 569 132 q 710 194 656 132 q 764 358 764 257 l 764 614 q 710 778 764 715 q 569 840 657 840 l 424 840 q 283 778 336 840 q 229 614 229 715 l 229 358 q 283 194 229 257 q 424 132 336 132 l 569 132 m 753 1492 l 903 1492 l 775 1300 l 647 1300 l 753 1492 m 442 1321 l 549 1321 l 747 1074 l 603 1074 l 496 1215 l 388 1074 l 244 1074 l 442 1321 z "},"Ộ":{"ha":993,"x_min":67,"x_max":926,"o":"m 422 -11 q 236 34 317 -11 q 111 162 156 79 q 67 353 67 244 l 67 619 q 111 810 67 728 q 236 938 156 893 q 422 983 317 983 l 569 983 q 756 938 675 983 q 882 810 838 893 q 926 619 926 728 l 926 353 q 882 162 926 244 q 756 34 838 79 q 569 -11 675 -11 l 422 -11 m 569 132 q 710 194 656 132 q 764 358 764 257 l 764 614 q 710 778 764 715 q 569 840 657 840 l 424 840 q 283 778 336 840 q 229 614 229 715 l 229 358 q 283 194 229 257 q 424 132 336 132 l 569 132 m 496 -293 q 422 -265 450 -293 q 394 -192 394 -237 q 422 -118 394 -146 q 496 -90 450 -90 q 569 -118 542 -90 q 597 -192 597 -146 q 569 -265 597 -237 q 496 -293 542 -293 m 442 1321 l 549 1321 l 747 1074 l 603 1074 l 496 1215 l 388 1074 l 244 1074 l 442 1321 z "},"Ồ":{"ha":993,"x_min":67,"x_max":926,"o":"m 422 -11 q 236 34 317 -11 q 111 162 156 79 q 67 353 67 244 l 67 619 q 111 810 67 728 q 236 938 156 893 q 422 983 317 983 l 569 983 q 756 938 675 983 q 882 810 838 893 q 926 619 926 728 l 926 353 q 882 162 926 244 q 756 34 838 79 q 569 -11 675 -11 l 422 -11 m 569 132 q 710 194 656 132 q 764 358 764 257 l 764 614 q 710 778 764 715 q 569 840 657 840 l 424 840 q 283 778 336 840 q 229 614 229 715 l 229 358 q 283 194 229 257 q 424 132 336 132 l 569 132 m 572 1492 l 722 1492 l 828 1300 l 700 1300 l 572 1492 m 442 1321 l 549 1321 l 747 1074 l 603 1074 l 496 1215 l 388 1074 l 244 1074 l 442 1321 z "},"Ổ":{"ha":993,"x_min":67,"x_max":926,"o":"m 422 -11 q 236 34 317 -11 q 111 162 156 79 q 67 353 67 244 l 67 619 q 111 810 67 728 q 236 938 156 893 q 422 983 317 983 l 569 983 q 756 938 675 983 q 882 810 838 893 q 926 619 926 728 l 926 353 q 882 162 926 244 q 756 34 838 79 q 569 -11 675 -11 l 422 -11 m 569 132 q 710 194 656 132 q 764 358 764 257 l 764 614 q 710 778 764 715 q 569 840 657 840 l 424 840 q 283 778 336 840 q 229 614 229 715 l 229 358 q 283 194 229 257 q 424 132 336 132 l 569 132 m 676 1288 q 692 1326 676 1311 q 736 1358 707 1340 q 774 1385 763 1375 q 785 1410 785 1394 l 785 1426 q 749 1460 785 1460 l 725 1460 q 683 1415 683 1460 l 583 1415 q 725 1550 583 1550 l 749 1550 q 890 1426 890 1550 l 890 1410 q 873 1358 890 1376 q 825 1319 856 1339 q 796 1297 804 1304 q 788 1278 788 1289 l 788 1265 l 676 1265 l 676 1288 m 442 1321 l 549 1321 l 747 1074 l 603 1074 l 496 1215 l 388 1074 l 244 1074 l 442 1321 z "},"Ỗ":{"ha":993,"x_min":67,"x_max":926,"o":"m 422 -11 q 236 34 317 -11 q 111 162 156 79 q 67 353 67 244 l 67 619 q 111 810 67 728 q 236 938 156 893 q 422 983 317 983 l 569 983 q 756 938 675 983 q 882 810 838 893 q 926 619 926 728 l 926 353 q 882 162 926 244 q 756 34 838 79 q 569 -11 675 -11 l 422 -11 m 569 132 q 710 194 656 132 q 764 358 764 257 l 764 614 q 710 778 764 715 q 569 840 657 840 l 424 840 q 283 778 336 840 q 229 614 229 715 l 229 358 q 283 194 229 257 q 424 132 336 132 l 569 132 m 579 1367 q 530 1378 551 1367 q 482 1410 508 1389 q 467 1421 479 1413 q 446 1433 456 1429 q 428 1438 436 1438 l 419 1438 q 390 1422 401 1438 q 378 1379 378 1406 l 272 1379 q 311 1493 272 1450 q 413 1536 350 1536 l 422 1536 q 472 1525 450 1536 q 525 1492 493 1514 q 551 1474 538 1482 q 574 1465 564 1465 l 582 1465 q 609 1481 599 1465 q 619 1522 619 1496 l 726 1522 q 688 1409 725 1451 q 589 1367 650 1367 l 579 1367 m 442 1321 l 549 1321 l 747 1074 l 603 1074 l 496 1215 l 388 1074 l 244 1074 l 442 1321 z "},"Ö":{"ha":993,"x_min":67,"x_max":926,"o":"m 422 -11 q 236 34 317 -11 q 111 162 156 79 q 67 353 67 244 l 67 619 q 111 810 67 728 q 236 938 156 893 q 422 983 317 983 l 569 983 q 756 938 675 983 q 882 810 838 893 q 926 619 926 728 l 926 353 q 882 162 926 244 q 756 34 838 79 q 569 -11 675 -11 l 422 -11 m 569 132 q 710 194 656 132 q 764 358 764 257 l 764 614 q 710 778 764 715 q 569 840 657 840 l 424 840 q 283 778 336 840 q 229 614 229 715 l 229 358 q 283 194 229 257 q 424 132 336 132 l 569 132 m 335 1075 q 270 1100 294 1075 q 246 1164 246 1125 q 270 1228 246 1204 q 335 1253 294 1253 q 399 1228 374 1253 q 424 1164 424 1204 q 399 1100 424 1125 q 335 1075 374 1075 m 657 1075 q 593 1100 618 1075 q 568 1164 568 1125 q 593 1228 568 1204 q 657 1253 618 1253 q 722 1228 697 1253 q 746 1164 746 1204 q 722 1100 746 1125 q 657 1075 697 1075 z "},"Ọ":{"ha":993,"x_min":67,"x_max":926,"o":"m 422 -11 q 236 34 317 -11 q 111 162 156 79 q 67 353 67 244 l 67 619 q 111 810 67 728 q 236 938 156 893 q 422 983 317 983 l 569 983 q 756 938 675 983 q 882 810 838 893 q 926 619 926 728 l 926 353 q 882 162 926 244 q 756 34 838 79 q 569 -11 675 -11 l 422 -11 m 569 132 q 710 194 656 132 q 764 358 764 257 l 764 614 q 710 778 764 715 q 569 840 657 840 l 424 840 q 283 778 336 840 q 229 614 229 715 l 229 358 q 283 194 229 257 q 424 132 336 132 l 569 132 m 496 -293 q 422 -265 450 -293 q 394 -192 394 -237 q 422 -118 394 -146 q 496 -90 450 -90 q 569 -118 542 -90 q 597 -192 597 -146 q 569 -265 597 -237 q 496 -293 542 -293 z "},"Ò":{"ha":993,"x_min":67,"x_max":926,"o":"m 422 -11 q 236 34 317 -11 q 111 162 156 79 q 67 353 67 244 l 67 619 q 111 810 67 728 q 236 938 156 893 q 422 983 317 983 l 569 983 q 756 938 675 983 q 882 810 838 893 q 926 619 926 728 l 926 353 q 882 162 926 244 q 756 34 838 79 q 569 -11 675 -11 l 422 -11 m 569 132 q 710 194 656 132 q 764 358 764 257 l 764 614 q 710 778 764 715 q 569 840 657 840 l 424 840 q 283 778 336 840 q 229 614 229 715 l 229 358 q 283 194 229 257 q 424 132 336 132 l 569 132 m 265 1311 l 442 1311 l 571 1074 l 419 1074 l 265 1311 z "},"Ỏ":{"ha":993,"x_min":67,"x_max":926,"o":"m 422 -11 q 236 34 317 -11 q 111 162 156 79 q 67 353 67 244 l 67 619 q 111 810 67 728 q 236 938 156 893 q 422 983 317 983 l 569 983 q 756 938 675 983 q 882 810 838 893 q 926 619 926 728 l 926 353 q 882 162 926 244 q 756 34 838 79 q 569 -11 675 -11 l 422 -11 m 569 132 q 710 194 656 132 q 764 358 764 257 l 764 614 q 710 778 764 715 q 569 840 657 840 l 424 840 q 283 778 336 840 q 229 614 229 715 l 229 358 q 283 194 229 257 q 424 132 336 132 l 569 132 m 426 1086 q 445 1133 426 1115 q 499 1171 464 1151 q 542 1201 528 1189 q 556 1232 556 1214 l 556 1247 q 544 1279 556 1268 q 510 1290 532 1290 l 482 1290 q 429 1235 429 1290 l 317 1235 q 358 1352 317 1313 q 482 1392 400 1392 l 510 1392 q 631 1355 589 1392 q 672 1247 672 1318 l 672 1232 q 653 1171 672 1193 q 597 1125 633 1149 q 565 1101 575 1111 q 554 1076 554 1090 l 554 1058 l 426 1058 l 426 1086 z "},"Ơ":{"ha":1126,"x_min":67,"x_max":1153,"o":"m 1153 978 l 1153 928 q 1093 733 1153 804 q 925 661 1033 663 q 926 619 926 647 l 926 353 q 882 162 926 244 q 756 34 838 79 q 569 -11 675 -11 l 422 -11 q 236 34 317 -11 q 111 162 156 79 q 67 353 67 244 l 67 619 q 111 810 67 728 q 236 938 156 893 q 422 983 317 983 l 569 983 q 765 933 681 983 q 890 793 849 882 l 910 793 q 979 828 954 793 q 1004 928 1004 864 l 1004 978 l 1153 978 m 764 614 q 710 778 764 715 q 569 840 657 840 l 424 840 q 283 778 336 840 q 229 614 229 715 l 229 358 q 283 194 229 257 q 424 132 336 132 l 569 132 q 710 194 656 132 q 764 358 764 257 l 764 614 z "},"Ớ":{"ha":1126,"x_min":67,"x_max":1153,"o":"m 1153 978 l 1153 928 q 1093 733 1153 804 q 925 661 1033 663 q 926 619 926 647 l 926 353 q 882 162 926 244 q 756 34 838 79 q 569 -11 675 -11 l 422 -11 q 236 34 317 -11 q 111 162 156 79 q 67 353 67 244 l 67 619 q 111 810 67 728 q 236 938 156 893 q 422 983 317 983 l 569 983 q 765 933 681 983 q 890 793 849 882 l 910 793 q 979 828 954 793 q 1004 928 1004 864 l 1004 978 l 1153 978 m 764 614 q 710 778 764 715 q 569 840 657 840 l 424 840 q 283 778 336 840 q 229 614 229 715 l 229 358 q 283 194 229 257 q 424 132 336 132 l 569 132 q 710 194 656 132 q 764 358 764 257 l 764 614 m 549 1311 l 725 1311 l 571 1074 l 419 1074 l 549 1311 z "},"Ợ":{"ha":1126,"x_min":67,"x_max":1153,"o":"m 1153 978 l 1153 928 q 1093 733 1153 804 q 925 661 1033 663 q 926 619 926 647 l 926 353 q 882 162 926 244 q 756 34 838 79 q 569 -11 675 -11 l 422 -11 q 236 34 317 -11 q 111 162 156 79 q 67 353 67 244 l 67 619 q 111 810 67 728 q 236 938 156 893 q 422 983 317 983 l 569 983 q 765 933 681 983 q 890 793 849 882 l 910 793 q 979 828 954 793 q 1004 928 1004 864 l 1004 978 l 1153 978 m 764 614 q 710 778 764 715 q 569 840 657 840 l 424 840 q 283 778 336 840 q 229 614 229 715 l 229 358 q 283 194 229 257 q 424 132 336 132 l 569 132 q 710 194 656 132 q 764 358 764 257 l 764 614 m 496 -293 q 422 -265 450 -293 q 394 -192 394 -237 q 422 -118 394 -146 q 496 -90 450 -90 q 569 -118 542 -90 q 597 -192 597 -146 q 569 -265 597 -237 q 496 -293 542 -293 z "},"Ờ":{"ha":1126,"x_min":67,"x_max":1153,"o":"m 1153 978 l 1153 928 q 1093 733 1153 804 q 925 661 1033 663 q 926 619 926 647 l 926 353 q 882 162 926 244 q 756 34 838 79 q 569 -11 675 -11 l 422 -11 q 236 34 317 -11 q 111 162 156 79 q 67 353 67 244 l 67 619 q 111 810 67 728 q 236 938 156 893 q 422 983 317 983 l 569 983 q 765 933 681 983 q 890 793 849 882 l 910 793 q 979 828 954 793 q 1004 928 1004 864 l 1004 978 l 1153 978 m 764 614 q 710 778 764 715 q 569 840 657 840 l 424 840 q 283 778 336 840 q 229 614 229 715 l 229 358 q 283 194 229 257 q 424 132 336 132 l 569 132 q 710 194 656 132 q 764 358 764 257 l 764 614 m 265 1311 l 442 1311 l 571 1074 l 419 1074 l 265 1311 z "},"Ở":{"ha":1126,"x_min":67,"x_max":1153,"o":"m 1153 978 l 1153 928 q 1093 733 1153 804 q 925 661 1033 663 q 926 619 926 647 l 926 353 q 882 162 926 244 q 756 34 838 79 q 569 -11 675 -11 l 422 -11 q 236 34 317 -11 q 111 162 156 79 q 67 353 67 244 l 67 619 q 111 810 67 728 q 236 938 156 893 q 422 983 317 983 l 569 983 q 765 933 681 983 q 890 793 849 882 l 910 793 q 979 828 954 793 q 1004 928 1004 864 l 1004 978 l 1153 978 m 764 614 q 710 778 764 715 q 569 840 657 840 l 424 840 q 283 778 336 840 q 229 614 229 715 l 229 358 q 283 194 229 257 q 424 132 336 132 l 569 132 q 710 194 656 132 q 764 358 764 257 l 764 614 m 426 1086 q 445 1133 426 1115 q 499 1171 464 1151 q 542 1201 528 1189 q 556 1232 556 1214 l 556 1247 q 544 1279 556 1268 q 510 1290 532 1290 l 482 1290 q 429 1235 429 1290 l 317 1235 q 358 1352 317 1313 q 482 1392 400 1392 l 510 1392 q 631 1355 589 1392 q 672 1247 672 1318 l 672 1232 q 653 1171 672 1193 q 597 1125 633 1149 q 565 1101 575 1111 q 554 1076 554 1090 l 554 1058 l 426 1058 l 426 1086 z "},"Ỡ":{"ha":1126,"x_min":67,"x_max":1153,"o":"m 1153 978 l 1153 928 q 1093 733 1153 804 q 925 661 1033 663 q 926 619 926 647 l 926 353 q 882 162 926 244 q 756 34 838 79 q 569 -11 675 -11 l 422 -11 q 236 34 317 -11 q 111 162 156 79 q 67 353 67 244 l 67 619 q 111 810 67 728 q 236 938 156 893 q 422 983 317 983 l 569 983 q 765 933 681 983 q 890 793 849 882 l 910 793 q 979 828 954 793 q 1004 928 1004 864 l 1004 978 l 1153 978 m 764 614 q 710 778 764 715 q 569 840 657 840 l 424 840 q 283 778 336 840 q 229 614 229 715 l 229 358 q 283 194 229 257 q 424 132 336 132 l 569 132 q 710 194 656 132 q 764 358 764 257 l 764 614 m 583 1063 q 527 1077 551 1063 q 474 1117 503 1092 q 443 1142 456 1133 q 418 1150 431 1150 l 408 1150 q 377 1130 389 1150 q 364 1078 365 1110 l 246 1078 q 289 1211 246 1160 q 401 1263 332 1263 l 413 1263 q 471 1247 446 1263 q 526 1206 496 1232 q 554 1183 543 1190 q 575 1175 565 1175 l 586 1175 q 615 1194 603 1175 q 628 1247 626 1214 l 744 1247 q 703 1113 744 1164 q 593 1063 661 1063 l 583 1063 z "},"Ő":{"ha":993,"x_min":67,"x_max":926,"o":"m 422 -11 q 236 34 317 -11 q 111 162 156 79 q 67 353 67 244 l 67 619 q 111 810 67 728 q 236 938 156 893 q 422 983 317 983 l 569 983 q 756 938 675 983 q 882 810 838 893 q 926 619 926 728 l 926 353 q 882 162 926 244 q 756 34 838 79 q 569 -11 675 -11 l 422 -11 m 569 132 q 710 194 656 132 q 764 358 764 257 l 764 614 q 710 778 764 715 q 569 840 657 840 l 424 840 q 283 778 336 840 q 229 614 229 715 l 229 358 q 283 194 229 257 q 424 132 336 132 l 569 132 m 419 1311 l 589 1311 l 435 1074 l 292 1074 l 419 1311 m 658 1311 l 828 1311 l 675 1074 l 531 1074 l 658 1311 z "},"Ō":{"ha":993,"x_min":67,"x_max":926,"o":"m 422 -11 q 236 34 317 -11 q 111 162 156 79 q 67 353 67 244 l 67 619 q 111 810 67 728 q 236 938 156 893 q 422 983 317 983 l 569 983 q 756 938 675 983 q 882 810 838 893 q 926 619 926 728 l 926 353 q 882 162 926 244 q 756 34 838 79 q 569 -11 675 -11 l 422 -11 m 569 132 q 710 194 656 132 q 764 358 764 257 l 764 614 q 710 778 764 715 q 569 840 657 840 l 424 840 q 283 778 336 840 q 229 614 229 715 l 229 358 q 283 194 229 257 q 424 132 336 132 l 569 132 m 289 1214 l 703 1214 l 703 1092 l 289 1092 l 289 1214 z "},"Ø":{"ha":993,"x_min":60,"x_max":935,"o":"m 831 881 q 901 765 876 832 q 926 619 926 699 l 926 353 q 882 162 926 244 q 756 34 838 79 q 569 -11 675 -11 l 422 -11 q 258 24 332 -11 l 193 -75 l 60 -75 l 167 86 q 92 203 118 135 q 67 353 67 271 l 67 619 q 111 810 67 728 q 236 938 156 893 q 422 983 317 983 l 569 983 q 740 946 665 983 l 800 1036 l 935 1036 l 831 881 m 229 358 q 261 226 229 282 l 657 821 q 569 840 615 840 l 424 840 q 283 778 336 840 q 229 614 229 715 l 229 358 m 764 614 q 736 739 764 686 l 343 149 q 424 132 379 132 l 569 132 q 710 194 656 132 q 764 358 764 257 l 764 614 z "},"Ǿ":{"ha":993,"x_min":60,"x_max":935,"o":"m 831 881 q 901 765 876 832 q 926 619 926 699 l 926 353 q 882 162 926 244 q 756 34 838 79 q 569 -11 675 -11 l 422 -11 q 258 24 332 -11 l 193 -75 l 60 -75 l 167 86 q 92 203 118 135 q 67 353 67 271 l 67 619 q 111 810 67 728 q 236 938 156 893 q 422 983 317 983 l 569 983 q 740 946 665 983 l 800 1036 l 935 1036 l 831 881 m 229 358 q 261 226 229 282 l 657 821 q 569 840 615 840 l 424 840 q 283 778 336 840 q 229 614 229 715 l 229 358 m 764 614 q 736 739 764 686 l 343 149 q 424 132 379 132 l 569 132 q 710 194 656 132 q 764 358 764 257 l 764 614 m 549 1311 l 725 1311 l 571 1074 l 419 1074 l 549 1311 z "},"Õ":{"ha":993,"x_min":67,"x_max":926,"o":"m 422 -11 q 236 34 317 -11 q 111 162 156 79 q 67 353 67 244 l 67 619 q 111 810 67 728 q 236 938 156 893 q 422 983 317 983 l 569 983 q 756 938 675 983 q 882 810 838 893 q 926 619 926 728 l 926 353 q 882 162 926 244 q 756 34 838 79 q 569 -11 675 -11 l 422 -11 m 569 132 q 710 194 656 132 q 764 358 764 257 l 764 614 q 710 778 764 715 q 569 840 657 840 l 424 840 q 283 778 336 840 q 229 614 229 715 l 229 358 q 283 194 229 257 q 424 132 336 132 l 569 132 m 583 1063 q 527 1077 551 1063 q 474 1117 503 1092 q 443 1142 456 1133 q 418 1150 431 1150 l 408 1150 q 377 1130 389 1150 q 364 1078 365 1110 l 246 1078 q 289 1211 246 1160 q 401 1263 332 1263 l 413 1263 q 471 1247 446 1263 q 526 1206 496 1232 q 554 1183 543 1190 q 575 1175 565 1175 l 586 1175 q 615 1194 603 1175 q 628 1247 626 1214 l 744 1247 q 703 1113 744 1164 q 593 1063 661 1063 l 583 1063 z "},"Œ":{"ha":1515,"x_min":67,"x_max":1463,"o":"m 422 -11 q 236 35 317 -11 q 111 163 156 81 q 67 354 67 246 l 67 617 q 111 808 67 725 q 237 938 156 892 q 424 983 318 983 l 569 983 q 698 958 638 983 q 797 886 758 932 l 797 972 l 1463 972 l 1463 832 l 929 832 l 929 568 l 1415 568 l 1415 426 l 929 426 l 929 140 l 1463 140 l 1463 0 l 915 0 q 842 22 872 0 q 801 82 811 43 l 800 99 q 698 17 761 46 q 563 -11 635 -11 l 422 -11 m 568 132 q 712 195 657 132 q 767 361 767 258 l 767 611 q 713 777 767 714 q 571 840 658 840 l 425 840 q 283 777 336 840 q 229 611 229 714 l 229 360 q 283 194 229 257 q 424 132 336 132 l 568 132 z "},"P":{"ha":893,"x_min":94,"x_max":865,"o":"m 94 972 l 593 972 q 790 903 715 972 q 865 722 865 835 l 865 589 q 787 399 865 471 q 581 328 708 328 l 257 328 l 257 0 l 94 0 l 94 972 m 578 469 q 669 504 635 469 q 703 594 703 539 l 703 718 q 672 800 703 769 q 590 831 642 831 l 257 831 l 257 469 l 578 469 z "},"Þ":{"ha":913,"x_min":94,"x_max":865,"o":"m 593 814 q 790 745 715 814 q 865 565 865 676 l 865 431 q 829 294 865 353 q 727 202 793 235 q 575 169 661 169 l 257 169 l 257 0 l 94 0 l 94 972 l 257 972 l 257 814 l 593 814 m 703 560 q 672 642 703 611 q 590 672 642 672 l 257 672 l 257 311 l 572 311 q 667 346 631 311 q 703 438 703 381 l 703 560 z "},"Q":{"ha":999,"x_min":67,"x_max":971,"o":"m 868 -60 l 758 49 q 567 -11 668 -11 l 421 -11 q 235 34 315 -11 q 111 162 156 79 q 67 353 67 244 l 67 619 q 111 810 67 728 q 237 938 156 893 q 424 983 318 983 l 571 983 q 757 938 676 983 q 882 810 838 893 q 926 619 926 728 l 926 361 q 863 154 926 249 l 971 47 l 868 -60 m 567 132 q 651 154 610 132 l 518 286 l 619 393 l 747 268 q 764 361 764 310 l 764 614 q 710 778 764 715 q 569 840 657 840 l 424 840 q 283 778 338 840 q 229 614 229 715 l 229 358 q 282 194 229 257 q 422 132 335 132 l 567 132 z "},"R":{"ha":929,"x_min":94,"x_max":893,"o":"m 94 972 l 596 972 q 789 907 715 972 q 863 735 863 842 l 863 636 q 819 509 863 564 q 697 428 775 454 l 697 425 q 769 358 742 399 q 815 251 796 317 l 893 0 l 725 0 l 650 240 q 594 336 632 303 q 507 369 557 369 l 257 369 l 257 0 l 94 0 l 94 972 m 560 510 q 662 544 624 510 q 700 635 700 579 l 700 731 q 671 803 700 775 q 593 831 642 831 l 257 831 l 257 510 l 560 510 z "},"Ŕ":{"ha":929,"x_min":94,"x_max":893,"o":"m 94 972 l 596 972 q 789 907 715 972 q 863 735 863 842 l 863 636 q 819 509 863 564 q 697 428 775 454 l 697 425 q 769 358 742 399 q 815 251 796 317 l 893 0 l 725 0 l 650 240 q 594 336 632 303 q 507 369 557 369 l 257 369 l 257 0 l 94 0 l 94 972 m 560 510 q 662 544 624 510 q 700 635 700 579 l 700 731 q 671 803 700 775 q 593 831 642 831 l 257 831 l 257 510 l 560 510 m 511 1311 l 688 1311 l 533 1074 l 382 1074 l 511 1311 z "},"Ř":{"ha":929,"x_min":94,"x_max":893,"o":"m 94 972 l 596 972 q 789 907 715 972 q 863 735 863 842 l 863 636 q 819 509 863 564 q 697 428 775 454 l 697 425 q 769 358 742 399 q 815 251 796 317 l 893 0 l 725 0 l 650 240 q 594 336 632 303 q 507 369 557 369 l 257 369 l 257 0 l 94 0 l 94 972 m 560 510 q 662 544 624 510 q 700 635 700 579 l 700 731 q 671 803 700 775 q 593 831 642 831 l 257 831 l 257 510 l 560 510 m 207 1321 l 350 1321 l 458 1179 l 565 1321 l 710 1321 l 511 1074 l 404 1074 l 207 1321 z "},"Ŗ":{"ha":929,"x_min":94,"x_max":893,"o":"m 94 972 l 596 972 q 789 907 715 972 q 863 735 863 842 l 863 636 q 819 509 863 564 q 697 428 775 454 l 697 425 q 769 358 742 399 q 815 251 796 317 l 893 0 l 725 0 l 650 240 q 594 336 632 303 q 507 369 557 369 l 257 369 l 257 0 l 94 0 l 94 972 m 560 510 q 662 544 624 510 q 700 635 700 579 l 700 731 q 671 803 700 775 q 593 831 642 831 l 257 831 l 257 510 l 560 510 m 290 -326 l 325 -296 q 401 -143 401 -233 l 401 -92 l 560 -92 l 560 -143 q 528 -298 560 -232 q 432 -412 497 -364 l 392 -443 l 290 -326 z "},"Ṛ":{"ha":929,"x_min":94,"x_max":893,"o":"m 94 972 l 596 972 q 789 907 715 972 q 863 735 863 842 l 863 636 q 819 509 863 564 q 697 428 775 454 l 697 425 q 769 358 742 399 q 815 251 796 317 l 893 0 l 725 0 l 650 240 q 594 336 632 303 q 507 369 557 369 l 257 369 l 257 0 l 94 0 l 94 972 m 560 510 q 662 544 624 510 q 700 635 700 579 l 700 731 q 671 803 700 775 q 593 831 642 831 l 257 831 l 257 510 l 560 510 m 479 -293 q 406 -265 433 -293 q 378 -192 378 -237 q 406 -118 378 -146 q 479 -90 433 -90 q 553 -118 525 -90 q 581 -192 581 -146 q 553 -265 581 -237 q 479 -293 525 -293 z "},"Ṝ":{"ha":929,"x_min":94,"x_max":893,"o":"m 94 972 l 596 972 q 789 907 715 972 q 863 735 863 842 l 863 636 q 819 509 863 564 q 697 428 775 454 l 697 425 q 769 358 742 399 q 815 251 796 317 l 893 0 l 725 0 l 650 240 q 594 336 632 303 q 507 369 557 369 l 257 369 l 257 0 l 94 0 l 94 972 m 560 510 q 662 544 624 510 q 700 635 700 579 l 700 731 q 671 803 700 775 q 593 831 642 831 l 257 831 l 257 510 l 560 510 m 479 -293 q 406 -265 433 -293 q 378 -192 378 -237 q 406 -118 378 -146 q 479 -90 433 -90 q 553 -118 525 -90 q 581 -192 581 -146 q 553 -265 581 -237 q 479 -293 525 -293 m 251 1214 l 665 1214 l 665 1092 l 251 1092 l 251 1214 z "},"Ṟ":{"ha":929,"x_min":94,"x_max":893,"o":"m 94 972 l 596 972 q 789 907 715 972 q 863 735 863 842 l 863 636 q 819 509 863 564 q 697 428 775 454 l 697 425 q 769 358 742 399 q 815 251 796 317 l 893 0 l 725 0 l 650 240 q 594 336 632 303 q 507 369 557 369 l 257 369 l 257 0 l 94 0 l 94 972 m 560 510 q 662 544 624 510 q 700 635 700 579 l 700 731 q 671 803 700 775 q 593 831 642 831 l 257 831 l 257 510 l 560 510 m 272 -110 l 686 -110 l 686 -235 l 272 -235 l 272 -110 z "},"S":{"ha":897,"x_min":61,"x_max":843,"o":"m 372 -11 q 144 72 228 -11 q 61 300 61 156 l 221 300 q 262 177 221 222 q 375 132 303 132 l 529 132 q 639 162 597 132 q 681 240 681 192 l 681 301 q 651 364 681 339 q 568 399 622 389 l 315 442 q 134 519 197 461 q 71 668 71 578 l 71 744 q 109 869 71 815 q 217 953 147 924 q 378 983 286 983 l 535 983 q 687 948 621 983 q 789 847 753 913 q 825 697 825 782 l 667 697 q 630 801 667 761 q 535 840 593 840 l 378 840 q 273 812 313 840 q 233 735 233 783 l 233 685 q 261 620 233 646 q 342 586 289 594 l 594 542 q 778 465 714 521 q 843 321 843 408 l 843 231 q 804 105 843 160 q 694 19 765 50 q 532 -11 624 -11 l 372 -11 z "},"Ś":{"ha":897,"x_min":61,"x_max":843,"o":"m 372 -11 q 144 72 228 -11 q 61 300 61 156 l 221 300 q 262 177 221 222 q 375 132 303 132 l 529 132 q 639 162 597 132 q 681 240 681 192 l 681 301 q 651 364 681 339 q 568 399 622 389 l 315 442 q 134 519 197 461 q 71 668 71 578 l 71 744 q 109 869 71 815 q 217 953 147 924 q 378 983 286 983 l 535 983 q 687 948 621 983 q 789 847 753 913 q 825 697 825 782 l 667 697 q 630 801 667 761 q 535 840 593 840 l 378 840 q 273 812 313 840 q 233 735 233 783 l 233 685 q 261 620 233 646 q 342 586 289 594 l 594 542 q 778 465 714 521 q 843 321 843 408 l 843 231 q 804 105 843 160 q 694 19 765 50 q 532 -11 624 -11 l 372 -11 m 504 1311 l 681 1311 l 526 1074 l 375 1074 l 504 1311 z "},"Š":{"ha":897,"x_min":61,"x_max":843,"o":"m 372 -11 q 144 72 228 -11 q 61 300 61 156 l 221 300 q 262 177 221 222 q 375 132 303 132 l 529 132 q 639 162 597 132 q 681 240 681 192 l 681 301 q 651 364 681 339 q 568 399 622 389 l 315 442 q 134 519 197 461 q 71 668 71 578 l 71 744 q 109 869 71 815 q 217 953 147 924 q 378 983 286 983 l 535 983 q 687 948 621 983 q 789 847 753 913 q 825 697 825 782 l 667 697 q 630 801 667 761 q 535 840 593 840 l 378 840 q 273 812 313 840 q 233 735 233 783 l 233 685 q 261 620 233 646 q 342 586 289 594 l 594 542 q 778 465 714 521 q 843 321 843 408 l 843 231 q 804 105 843 160 q 694 19 765 50 q 532 -11 624 -11 l 372 -11 m 200 1321 l 343 1321 l 451 1179 l 558 1321 l 703 1321 l 504 1074 l 397 1074 l 200 1321 z "},"Ş":{"ha":897,"x_min":61,"x_max":843,"o":"m 594 542 q 778 465 714 521 q 843 321 843 408 l 843 231 q 804 105 843 160 q 694 19 765 50 q 532 -11 624 -11 l 514 -11 l 489 -68 l 501 -68 q 589 -99 556 -68 q 622 -179 622 -129 l 622 -203 q 576 -299 622 -262 q 453 -335 529 -335 l 338 -335 l 338 -236 l 442 -236 q 485 -226 469 -236 q 501 -200 501 -217 l 501 -181 q 488 -156 501 -165 q 450 -146 474 -146 l 367 -146 l 367 -78 l 394 -11 l 372 -11 q 144 72 228 -11 q 61 300 61 156 l 221 300 q 262 177 221 222 q 375 132 303 132 l 529 132 q 639 162 597 132 q 681 240 681 192 l 681 301 q 651 364 681 339 q 568 399 622 389 l 315 442 q 134 519 197 461 q 71 668 71 578 l 71 744 q 109 869 71 815 q 217 953 147 924 q 378 983 286 983 l 535 983 q 687 948 621 983 q 789 847 753 913 q 825 697 825 782 l 667 697 q 630 801 667 761 q 535 840 593 840 l 378 840 q 273 812 313 840 q 233 735 233 783 l 233 685 q 261 620 233 646 q 342 586 289 594 l 594 542 z "},"Ŝ":{"ha":897,"x_min":61,"x_max":843,"o":"m 372 -11 q 144 72 228 -11 q 61 300 61 156 l 221 300 q 262 177 221 222 q 375 132 303 132 l 529 132 q 639 162 597 132 q 681 240 681 192 l 681 301 q 651 364 681 339 q 568 399 622 389 l 315 442 q 134 519 197 461 q 71 668 71 578 l 71 744 q 109 869 71 815 q 217 953 147 924 q 378 983 286 983 l 535 983 q 687 948 621 983 q 789 847 753 913 q 825 697 825 782 l 667 697 q 630 801 667 761 q 535 840 593 840 l 378 840 q 273 812 313 840 q 233 735 233 783 l 233 685 q 261 620 233 646 q 342 586 289 594 l 594 542 q 778 465 714 521 q 843 321 843 408 l 843 231 q 804 105 843 160 q 694 19 765 50 q 532 -11 624 -11 l 372 -11 m 397 1321 l 504 1321 l 703 1074 l 558 1074 l 451 1215 l 343 1074 l 200 1074 l 397 1321 z "},"Ș":{"ha":897,"x_min":61,"x_max":843,"o":"m 372 -11 q 144 72 228 -11 q 61 300 61 156 l 221 300 q 262 177 221 222 q 375 132 303 132 l 529 132 q 639 162 597 132 q 681 240 681 192 l 681 301 q 651 364 681 339 q 568 399 622 389 l 315 442 q 134 519 197 461 q 71 668 71 578 l 71 744 q 109 869 71 815 q 217 953 147 924 q 378 983 286 983 l 535 983 q 687 948 621 983 q 789 847 753 913 q 825 697 825 782 l 667 697 q 630 801 667 761 q 535 840 593 840 l 378 840 q 273 812 313 840 q 233 735 233 783 l 233 685 q 261 620 233 646 q 342 586 289 594 l 594 542 q 778 465 714 521 q 843 321 843 408 l 843 231 q 804 105 843 160 q 694 19 765 50 q 532 -11 624 -11 l 372 -11 m 279 -326 l 314 -296 q 390 -143 390 -233 l 390 -92 l 549 -92 l 549 -143 q 517 -298 549 -232 q 421 -412 486 -364 l 381 -443 l 279 -326 z "},"Ṡ":{"ha":897,"x_min":61,"x_max":843,"o":"m 372 -11 q 144 72 228 -11 q 61 300 61 156 l 221 300 q 262 177 221 222 q 375 132 303 132 l 529 132 q 639 162 597 132 q 681 240 681 192 l 681 301 q 651 364 681 339 q 568 399 622 389 l 315 442 q 134 519 197 461 q 71 668 71 578 l 71 744 q 109 869 71 815 q 217 953 147 924 q 378 983 286 983 l 535 983 q 687 948 621 983 q 789 847 753 913 q 825 697 825 782 l 667 697 q 630 801 667 761 q 535 840 593 840 l 378 840 q 273 812 313 840 q 233 735 233 783 l 233 685 q 261 620 233 646 q 342 586 289 594 l 594 542 q 778 465 714 521 q 843 321 843 408 l 843 231 q 804 105 843 160 q 694 19 765 50 q 532 -11 624 -11 l 372 -11 m 451 1067 q 378 1094 406 1067 q 350 1167 350 1122 q 378 1241 350 1213 q 451 1269 406 1269 q 525 1241 497 1269 q 553 1167 553 1213 q 525 1094 553 1122 q 451 1067 497 1067 z "},"Ṣ":{"ha":897,"x_min":61,"x_max":843,"o":"m 372 -11 q 144 72 228 -11 q 61 300 61 156 l 221 300 q 262 177 221 222 q 375 132 303 132 l 529 132 q 639 162 597 132 q 681 240 681 192 l 681 301 q 651 364 681 339 q 568 399 622 389 l 315 442 q 134 519 197 461 q 71 668 71 578 l 71 744 q 109 869 71 815 q 217 953 147 924 q 378 983 286 983 l 535 983 q 687 948 621 983 q 789 847 753 913 q 825 697 825 782 l 667 697 q 630 801 667 761 q 535 840 593 840 l 378 840 q 273 812 313 840 q 233 735 233 783 l 233 685 q 261 620 233 646 q 342 586 289 594 l 594 542 q 778 465 714 521 q 843 321 843 408 l 843 231 q 804 105 843 160 q 694 19 765 50 q 532 -11 624 -11 l 372 -11 m 468 -293 q 394 -265 422 -293 q 367 -192 367 -237 q 394 -118 367 -146 q 468 -90 422 -90 q 542 -118 514 -90 q 569 -192 569 -146 q 542 -265 569 -237 q 468 -293 514 -293 z "},"ẞ":{"ha":933,"x_min":83,"x_max":892,"o":"m 572 -11 q 402 51 467 -11 q 338 215 338 114 l 485 215 q 508 151 485 175 q 572 126 532 126 l 644 126 q 709 157 685 126 q 733 240 733 188 l 733 283 q 713 363 733 333 q 646 407 692 392 l 450 476 l 450 568 l 624 833 l 407 833 q 288 790 332 833 q 243 674 243 746 l 243 0 l 83 0 l 83 674 q 123 830 83 763 q 236 935 163 897 q 407 972 310 972 l 810 972 l 810 858 l 618 563 l 721 524 q 851 431 810 489 q 892 283 892 372 l 892 240 q 824 58 892 126 q 644 -11 756 -11 l 572 -11 z "},"Ə":{"ha":1010,"x_min":67,"x_max":943,"o":"m 574 983 q 767 940 683 983 q 897 819 851 897 q 943 638 943 740 l 943 354 q 897 163 943 246 q 767 35 851 81 q 574 -11 683 -11 l 415 -11 q 233 33 313 -11 q 110 158 154 78 q 67 344 67 239 l 67 526 l 781 526 l 781 638 q 724 785 781 729 q 574 842 667 842 l 426 842 q 285 790 339 842 q 232 651 232 738 l 72 651 q 117 825 72 750 q 241 942 161 900 q 426 983 321 983 l 574 983 m 574 131 q 724 192 667 131 q 781 354 781 253 l 781 385 l 229 385 l 229 344 q 281 189 229 247 q 415 131 332 131 l 574 131 z "},"T":{"ha":829,"x_min":25,"x_max":804,"o":"m 333 832 l 25 832 l 25 972 l 804 972 l 804 832 l 496 832 l 496 0 l 333 0 l 333 832 z "},"Ŧ":{"ha":829,"x_min":25,"x_max":804,"o":"m 496 832 l 496 503 l 701 503 l 701 378 l 496 378 l 496 0 l 333 0 l 333 378 l 124 378 l 124 503 l 333 503 l 333 832 l 25 832 l 25 972 l 804 972 l 804 832 l 496 832 z "},"Ť":{"ha":829,"x_min":25,"x_max":804,"o":"m 333 832 l 25 832 l 25 972 l 804 972 l 804 832 l 496 832 l 496 0 l 333 0 l 333 832 m 160 1321 l 303 1321 l 411 1179 l 518 1321 l 663 1321 l 464 1074 l 357 1074 l 160 1321 z "},"Ţ":{"ha":829,"x_min":25,"x_max":804,"o":"m 463 0 l 432 -68 l 444 -68 q 532 -99 499 -68 q 565 -179 565 -129 l 565 -203 q 519 -299 565 -262 q 396 -335 472 -335 l 281 -335 l 281 -236 l 385 -236 q 428 -226 413 -236 q 444 -200 444 -217 l 444 -181 q 431 -156 444 -165 q 393 -146 417 -146 l 310 -146 l 310 -78 l 343 0 l 333 0 l 333 832 l 25 832 l 25 972 l 804 972 l 804 832 l 496 832 l 496 0 l 463 0 z "},"Ț":{"ha":829,"x_min":25,"x_max":804,"o":"m 333 832 l 25 832 l 25 972 l 804 972 l 804 832 l 496 832 l 496 0 l 333 0 l 333 832 m 222 -326 l 257 -296 q 333 -143 333 -233 l 333 -92 l 492 -92 l 492 -143 q 460 -298 492 -232 q 364 -412 429 -364 l 324 -443 l 222 -326 z "},"Ṭ":{"ha":829,"x_min":25,"x_max":804,"o":"m 333 832 l 25 832 l 25 972 l 804 972 l 804 832 l 496 832 l 496 0 l 333 0 l 333 832 m 411 -293 q 338 -265 365 -293 q 310 -192 310 -237 q 338 -118 310 -146 q 411 -90 365 -90 q 485 -118 457 -90 q 513 -192 513 -146 q 485 -265 513 -237 q 411 -293 457 -293 z "},"Ṯ":{"ha":829,"x_min":25,"x_max":804,"o":"m 333 832 l 25 832 l 25 972 l 804 972 l 804 832 l 496 832 l 496 0 l 333 0 l 333 832 m 204 -110 l 618 -110 l 618 -235 l 204 -235 l 204 -110 z "},"U":{"ha":988,"x_min":89,"x_max":899,"o":"m 418 -11 q 246 31 321 -11 q 130 151 171 74 q 89 329 89 228 l 89 972 l 251 972 l 251 332 q 297 187 251 242 q 418 132 343 132 l 567 132 q 690 187 643 132 q 736 332 736 242 l 736 972 l 899 972 l 899 329 q 857 151 899 228 q 740 31 815 74 q 567 -11 665 -11 l 418 -11 z "},"Ú":{"ha":988,"x_min":89,"x_max":899,"o":"m 418 -11 q 246 31 321 -11 q 130 151 171 74 q 89 329 89 228 l 89 972 l 251 972 l 251 332 q 297 187 251 242 q 418 132 343 132 l 567 132 q 690 187 643 132 q 736 332 736 242 l 736 972 l 899 972 l 899 329 q 857 151 899 228 q 740 31 815 74 q 567 -11 665 -11 l 418 -11 m 546 1311 l 722 1311 l 568 1074 l 417 1074 l 546 1311 z "},"Ŭ":{"ha":988,"x_min":89,"x_max":899,"o":"m 418 -11 q 246 31 321 -11 q 130 151 171 74 q 89 329 89 228 l 89 972 l 251 972 l 251 332 q 297 187 251 242 q 418 132 343 132 l 567 132 q 690 187 643 132 q 736 332 736 242 l 736 972 l 899 972 l 899 329 q 857 151 899 228 q 740 31 815 74 q 567 -11 665 -11 l 418 -11 m 485 1063 q 324 1117 385 1063 q 263 1263 263 1172 l 263 1285 l 388 1285 l 388 1263 q 414 1194 388 1219 q 485 1169 440 1169 l 501 1169 q 573 1194 546 1169 q 600 1263 600 1219 l 600 1285 l 724 1285 l 724 1263 q 663 1117 724 1172 q 501 1063 601 1063 l 485 1063 z "},"Ǔ":{"ha":988,"x_min":89,"x_max":899,"o":"m 418 -11 q 246 31 321 -11 q 130 151 171 74 q 89 329 89 228 l 89 972 l 251 972 l 251 332 q 297 187 251 242 q 418 132 343 132 l 567 132 q 690 187 643 132 q 736 332 736 242 l 736 972 l 899 972 l 899 329 q 857 151 899 228 q 740 31 815 74 q 567 -11 665 -11 l 418 -11 m 242 1321 l 385 1321 l 493 1179 l 600 1321 l 744 1321 l 546 1074 l 439 1074 l 242 1321 z "},"Û":{"ha":988,"x_min":89,"x_max":899,"o":"m 418 -11 q 246 31 321 -11 q 130 151 171 74 q 89 329 89 228 l 89 972 l 251 972 l 251 332 q 297 187 251 242 q 418 132 343 132 l 567 132 q 690 187 643 132 q 736 332 736 242 l 736 972 l 899 972 l 899 329 q 857 151 899 228 q 740 31 815 74 q 567 -11 665 -11 l 418 -11 m 439 1321 l 546 1321 l 744 1074 l 600 1074 l 493 1215 l 385 1074 l 242 1074 l 439 1321 z "},"Ü":{"ha":988,"x_min":89,"x_max":899,"o":"m 418 -11 q 246 31 321 -11 q 130 151 171 74 q 89 329 89 228 l 89 972 l 251 972 l 251 332 q 297 187 251 242 q 418 132 343 132 l 567 132 q 690 187 643 132 q 736 332 736 242 l 736 972 l 899 972 l 899 329 q 857 151 899 228 q 740 31 815 74 q 567 -11 665 -11 l 418 -11 m 332 1075 q 267 1100 292 1075 q 243 1164 243 1125 q 267 1228 243 1204 q 332 1253 292 1253 q 396 1228 371 1253 q 421 1164 421 1204 q 396 1100 421 1125 q 332 1075 371 1075 m 654 1075 q 590 1100 615 1075 q 565 1164 565 1125 q 590 1228 565 1204 q 654 1253 615 1253 q 719 1228 694 1253 q 743 1164 743 1204 q 719 1100 743 1125 q 654 1075 694 1075 z "},"Ǘ":{"ha":988,"x_min":89,"x_max":899,"o":"m 418 -11 q 246 31 321 -11 q 130 151 171 74 q 89 329 89 228 l 89 972 l 251 972 l 251 332 q 297 187 251 242 q 418 132 343 132 l 567 132 q 690 187 643 132 q 736 332 736 242 l 736 972 l 899 972 l 899 329 q 857 151 899 228 q 740 31 815 74 q 567 -11 665 -11 l 418 -11 m 533 1507 l 682 1507 l 554 1314 l 428 1314 l 533 1507 m 332 1075 q 267 1100 292 1075 q 243 1164 243 1125 q 267 1228 243 1204 q 332 1253 292 1253 q 396 1228 371 1253 q 421 1164 421 1204 q 396 1100 421 1125 q 332 1075 371 1075 m 654 1075 q 590 1100 615 1075 q 565 1164 565 1125 q 590 1228 565 1204 q 654 1253 615 1253 q 719 1228 694 1253 q 743 1164 743 1204 q 719 1100 743 1125 q 654 1075 694 1075 z "},"Ǚ":{"ha":988,"x_min":89,"x_max":899,"o":"m 418 -11 q 246 31 321 -11 q 130 151 171 74 q 89 329 89 228 l 89 972 l 251 972 l 251 332 q 297 187 251 242 q 418 132 343 132 l 567 132 q 690 187 643 132 q 736 332 736 242 l 736 972 l 899 972 l 899 329 q 857 151 899 228 q 740 31 815 74 q 567 -11 665 -11 l 418 -11 m 279 1524 l 403 1524 l 493 1400 l 583 1524 l 707 1524 l 542 1306 l 443 1306 l 279 1524 m 332 1075 q 267 1100 292 1075 q 243 1164 243 1125 q 267 1228 243 1204 q 332 1253 292 1253 q 396 1228 371 1253 q 421 1164 421 1204 q 396 1100 421 1125 q 332 1075 371 1075 m 654 1075 q 590 1100 615 1075 q 565 1164 565 1125 q 590 1228 565 1204 q 654 1253 615 1253 q 719 1228 694 1253 q 743 1164 743 1204 q 719 1100 743 1125 q 654 1075 694 1075 z "},"Ǜ":{"ha":988,"x_min":89,"x_max":899,"o":"m 418 -11 q 246 31 321 -11 q 130 151 171 74 q 89 329 89 228 l 89 972 l 251 972 l 251 332 q 297 187 251 242 q 418 132 343 132 l 567 132 q 690 187 643 132 q 736 332 736 242 l 736 972 l 899 972 l 899 329 q 857 151 899 228 q 740 31 815 74 q 567 -11 665 -11 l 418 -11 m 304 1507 l 453 1507 l 558 1314 l 432 1314 l 304 1507 m 332 1075 q 267 1100 292 1075 q 243 1164 243 1125 q 267 1228 243 1204 q 332 1253 292 1253 q 396 1228 371 1253 q 421 1164 421 1204 q 396 1100 421 1125 q 332 1075 371 1075 m 654 1075 q 590 1100 615 1075 q 565 1164 565 1125 q 590 1228 565 1204 q 654 1253 615 1253 q 719 1228 694 1253 q 743 1164 743 1204 q 719 1100 743 1125 q 654 1075 694 1075 z "},"Ǖ":{"ha":988,"x_min":89,"x_max":899,"o":"m 418 -11 q 246 31 321 -11 q 130 151 171 74 q 89 329 89 228 l 89 972 l 251 972 l 251 332 q 297 187 251 242 q 418 132 343 132 l 567 132 q 690 187 643 132 q 736 332 736 242 l 736 972 l 899 972 l 899 329 q 857 151 899 228 q 740 31 815 74 q 567 -11 665 -11 l 418 -11 m 286 1456 l 700 1456 l 700 1339 l 286 1339 l 286 1456 m 332 1075 q 267 1100 292 1075 q 243 1164 243 1125 q 267 1228 243 1204 q 332 1253 292 1253 q 396 1228 371 1253 q 421 1164 421 1204 q 396 1100 421 1125 q 332 1075 371 1075 m 654 1075 q 590 1100 615 1075 q 565 1164 565 1125 q 590 1228 565 1204 q 654 1253 615 1253 q 719 1228 694 1253 q 743 1164 743 1204 q 719 1100 743 1125 q 654 1075 694 1075 z "},"Ụ":{"ha":988,"x_min":89,"x_max":899,"o":"m 418 -11 q 246 31 321 -11 q 130 151 171 74 q 89 329 89 228 l 89 972 l 251 972 l 251 332 q 297 187 251 242 q 418 132 343 132 l 567 132 q 690 187 643 132 q 736 332 736 242 l 736 972 l 899 972 l 899 329 q 857 151 899 228 q 740 31 815 74 q 567 -11 665 -11 l 418 -11 m 493 -293 q 419 -265 447 -293 q 392 -192 392 -237 q 419 -118 392 -146 q 493 -90 447 -90 q 567 -118 539 -90 q 594 -192 594 -146 q 567 -265 594 -237 q 493 -293 539 -293 z "},"Ù":{"ha":988,"x_min":89,"x_max":899,"o":"m 418 -11 q 246 31 321 -11 q 130 151 171 74 q 89 329 89 228 l 89 972 l 251 972 l 251 332 q 297 187 251 242 q 418 132 343 132 l 567 132 q 690 187 643 132 q 736 332 736 242 l 736 972 l 899 972 l 899 329 q 857 151 899 228 q 740 31 815 74 q 567 -11 665 -11 l 418 -11 m 263 1311 l 439 1311 l 568 1074 l 417 1074 l 263 1311 z "},"Ủ":{"ha":988,"x_min":89,"x_max":899,"o":"m 418 -11 q 246 31 321 -11 q 130 151 171 74 q 89 329 89 228 l 89 972 l 251 972 l 251 332 q 297 187 251 242 q 418 132 343 132 l 567 132 q 690 187 643 132 q 736 332 736 242 l 736 972 l 899 972 l 899 329 q 857 151 899 228 q 740 31 815 74 q 567 -11 665 -11 l 418 -11 m 424 1086 q 442 1133 424 1115 q 496 1171 461 1151 q 539 1201 525 1189 q 553 1232 553 1214 l 553 1247 q 541 1279 553 1268 q 507 1290 529 1290 l 479 1290 q 426 1235 426 1290 l 314 1235 q 356 1352 314 1313 q 479 1392 397 1392 l 507 1392 q 628 1355 586 1392 q 669 1247 669 1318 l 669 1232 q 650 1171 669 1193 q 594 1125 631 1149 q 562 1101 572 1111 q 551 1076 551 1090 l 551 1058 l 424 1058 l 424 1086 z "},"Ư":{"ha":1135,"x_min":89,"x_max":1157,"o":"m 1157 972 l 1157 922 q 1094 726 1157 797 q 922 656 1032 656 l 899 656 l 899 329 q 857 151 899 228 q 740 31 815 74 q 567 -11 665 -11 l 418 -11 q 246 31 321 -11 q 130 151 171 74 q 89 329 89 228 l 89 972 l 251 972 l 251 332 q 297 187 251 242 q 418 132 343 132 l 567 132 q 690 187 643 132 q 736 332 736 242 l 736 972 l 899 972 l 899 788 l 914 788 q 983 823 958 788 q 1008 922 1008 858 l 1008 972 l 1157 972 z "},"Ứ":{"ha":1135,"x_min":89,"x_max":1157,"o":"m 1157 972 l 1157 922 q 1094 726 1157 797 q 922 656 1032 656 l 899 656 l 899 329 q 857 151 899 228 q 740 31 815 74 q 567 -11 665 -11 l 418 -11 q 246 31 321 -11 q 130 151 171 74 q 89 329 89 228 l 89 972 l 251 972 l 251 332 q 297 187 251 242 q 418 132 343 132 l 567 132 q 690 187 643 132 q 736 332 736 242 l 736 972 l 899 972 l 899 788 l 914 788 q 983 823 958 788 q 1008 922 1008 858 l 1008 972 l 1157 972 m 546 1311 l 722 1311 l 568 1074 l 417 1074 l 546 1311 z "},"Ự":{"ha":1135,"x_min":89,"x_max":1157,"o":"m 1157 972 l 1157 922 q 1094 726 1157 797 q 922 656 1032 656 l 899 656 l 899 329 q 857 151 899 228 q 740 31 815 74 q 567 -11 665 -11 l 418 -11 q 246 31 321 -11 q 130 151 171 74 q 89 329 89 228 l 89 972 l 251 972 l 251 332 q 297 187 251 242 q 418 132 343 132 l 567 132 q 690 187 643 132 q 736 332 736 242 l 736 972 l 899 972 l 899 788 l 914 788 q 983 823 958 788 q 1008 922 1008 858 l 1008 972 l 1157 972 m 493 -293 q 419 -265 447 -293 q 392 -192 392 -237 q 419 -118 392 -146 q 493 -90 447 -90 q 567 -118 539 -90 q 594 -192 594 -146 q 567 -265 594 -237 q 493 -293 539 -293 z "},"Ừ":{"ha":1135,"x_min":89,"x_max":1157,"o":"m 1157 972 l 1157 922 q 1094 726 1157 797 q 922 656 1032 656 l 899 656 l 899 329 q 857 151 899 228 q 740 31 815 74 q 567 -11 665 -11 l 418 -11 q 246 31 321 -11 q 130 151 171 74 q 89 329 89 228 l 89 972 l 251 972 l 251 332 q 297 187 251 242 q 418 132 343 132 l 567 132 q 690 187 643 132 q 736 332 736 242 l 736 972 l 899 972 l 899 788 l 914 788 q 983 823 958 788 q 1008 922 1008 858 l 1008 972 l 1157 972 m 263 1311 l 439 1311 l 568 1074 l 417 1074 l 263 1311 z "},"Ử":{"ha":1135,"x_min":89,"x_max":1157,"o":"m 1157 972 l 1157 922 q 1094 726 1157 797 q 922 656 1032 656 l 899 656 l 899 329 q 857 151 899 228 q 740 31 815 74 q 567 -11 665 -11 l 418 -11 q 246 31 321 -11 q 130 151 171 74 q 89 329 89 228 l 89 972 l 251 972 l 251 332 q 297 187 251 242 q 418 132 343 132 l 567 132 q 690 187 643 132 q 736 332 736 242 l 736 972 l 899 972 l 899 788 l 914 788 q 983 823 958 788 q 1008 922 1008 858 l 1008 972 l 1157 972 m 424 1086 q 442 1133 424 1115 q 496 1171 461 1151 q 539 1201 525 1189 q 553 1232 553 1214 l 553 1247 q 541 1279 553 1268 q 507 1290 529 1290 l 479 1290 q 426 1235 426 1290 l 314 1235 q 356 1352 314 1313 q 479 1392 397 1392 l 507 1392 q 628 1355 586 1392 q 669 1247 669 1318 l 669 1232 q 650 1171 669 1193 q 594 1125 631 1149 q 562 1101 572 1111 q 551 1076 551 1090 l 551 1058 l 424 1058 l 424 1086 z "},"Ữ":{"ha":1135,"x_min":89,"x_max":1157,"o":"m 1157 972 l 1157 922 q 1094 726 1157 797 q 922 656 1032 656 l 899 656 l 899 329 q 857 151 899 228 q 740 31 815 74 q 567 -11 665 -11 l 418 -11 q 246 31 321 -11 q 130 151 171 74 q 89 329 89 228 l 89 972 l 251 972 l 251 332 q 297 187 251 242 q 418 132 343 132 l 567 132 q 690 187 643 132 q 736 332 736 242 l 736 972 l 899 972 l 899 788 l 914 788 q 983 823 958 788 q 1008 922 1008 858 l 1008 972 l 1157 972 m 581 1063 q 524 1077 549 1063 q 471 1117 500 1092 q 440 1142 453 1133 q 415 1150 428 1150 l 406 1150 q 374 1130 386 1150 q 361 1078 363 1110 l 243 1078 q 286 1211 243 1160 q 399 1263 329 1263 l 410 1263 q 468 1247 443 1263 q 524 1206 493 1232 q 551 1183 540 1190 q 572 1175 563 1175 l 583 1175 q 612 1194 600 1175 q 625 1247 624 1214 l 742 1247 q 700 1113 742 1164 q 590 1063 658 1063 l 581 1063 z "},"Ű":{"ha":988,"x_min":89,"x_max":899,"o":"m 418 -11 q 246 31 321 -11 q 130 151 171 74 q 89 329 89 228 l 89 972 l 251 972 l 251 332 q 297 187 251 242 q 418 132 343 132 l 567 132 q 690 187 643 132 q 736 332 736 242 l 736 972 l 899 972 l 899 329 q 857 151 899 228 q 740 31 815 74 q 567 -11 665 -11 l 418 -11 m 417 1311 l 586 1311 l 432 1074 l 289 1074 l 417 1311 m 656 1311 l 825 1311 l 672 1074 l 528 1074 l 656 1311 z "},"Ū":{"ha":988,"x_min":89,"x_max":899,"o":"m 418 -11 q 246 31 321 -11 q 130 151 171 74 q 89 329 89 228 l 89 972 l 251 972 l 251 332 q 297 187 251 242 q 418 132 343 132 l 567 132 q 690 187 643 132 q 736 332 736 242 l 736 972 l 899 972 l 899 329 q 857 151 899 228 q 740 31 815 74 q 567 -11 665 -11 l 418 -11 m 286 1214 l 700 1214 l 700 1092 l 286 1092 l 286 1214 z "},"Ų":{"ha":988,"x_min":89,"x_max":899,"o":"m 899 972 l 899 329 q 831 110 899 199 q 647 -3 763 21 q 582 -62 607 -26 q 557 -133 557 -99 l 557 -151 q 574 -190 557 -175 q 621 -204 592 -204 l 640 -204 q 685 -197 661 -204 q 725 -176 708 -189 l 725 -281 q 676 -303 707 -294 q 615 -311 646 -311 l 597 -311 q 473 -273 519 -311 q 426 -171 426 -235 l 426 -153 q 447 -75 426 -114 q 503 -11 468 -36 l 418 -11 q 246 31 321 -11 q 130 151 171 74 q 89 329 89 228 l 89 972 l 251 972 l 251 332 q 297 187 251 242 q 418 132 343 132 l 567 132 q 690 187 643 132 q 736 332 736 242 l 736 972 l 899 972 z "},"Ů":{"ha":988,"x_min":89,"x_max":899,"o":"m 418 -11 q 246 31 321 -11 q 130 151 171 74 q 89 329 89 228 l 89 972 l 251 972 l 251 332 q 297 187 251 242 q 418 132 343 132 l 567 132 q 690 187 643 132 q 736 332 736 242 l 736 972 l 899 972 l 899 329 q 857 151 899 228 q 740 31 815 74 q 567 -11 665 -11 l 418 -11 m 493 1036 q 375 1080 419 1036 q 331 1196 331 1124 q 376 1310 331 1267 q 493 1354 421 1354 q 610 1310 565 1354 q 656 1196 656 1267 q 611 1080 656 1124 q 493 1036 567 1036 m 493 1129 q 542 1147 524 1129 q 560 1196 560 1165 q 542 1243 560 1225 q 493 1261 524 1261 q 444 1243 463 1261 q 426 1196 426 1225 q 444 1147 426 1165 q 493 1129 463 1129 z "},"Ũ":{"ha":988,"x_min":89,"x_max":899,"o":"m 418 -11 q 246 31 321 -11 q 130 151 171 74 q 89 329 89 228 l 89 972 l 251 972 l 251 332 q 297 187 251 242 q 418 132 343 132 l 567 132 q 690 187 643 132 q 736 332 736 242 l 736 972 l 899 972 l 899 329 q 857 151 899 228 q 740 31 815 74 q 567 -11 665 -11 l 418 -11 m 581 1063 q 524 1077 549 1063 q 471 1117 500 1092 q 440 1142 453 1133 q 415 1150 428 1150 l 406 1150 q 374 1130 386 1150 q 361 1078 363 1110 l 243 1078 q 286 1211 243 1160 q 399 1263 329 1263 l 410 1263 q 468 1247 443 1263 q 524 1206 493 1232 q 551 1183 540 1190 q 572 1175 563 1175 l 583 1175 q 612 1194 600 1175 q 625 1247 624 1214 l 742 1247 q 700 1113 742 1164 q 590 1063 658 1063 l 581 1063 z "},"V":{"ha":910,"x_min":14,"x_max":896,"o":"m 449 0 q 347 81 379 0 l 14 972 l 182 972 l 454 203 l 456 203 l 729 972 l 896 972 l 526 0 l 449 0 z "},"W":{"ha":1203,"x_min":31,"x_max":1172,"o":"m 314 0 q 240 24 269 0 q 200 103 211 47 l 31 972 l 194 972 l 324 232 l 326 232 l 542 921 l 603 921 q 692 846 668 921 l 876 233 l 879 233 l 1008 972 l 1172 972 l 1001 103 q 963 25 990 50 q 889 0 936 0 l 822 0 l 606 706 l 603 706 l 381 0 l 314 0 z "},"Ẃ":{"ha":1203,"x_min":31,"x_max":1172,"o":"m 314 0 q 240 24 269 0 q 200 103 211 47 l 31 972 l 194 972 l 324 232 l 326 232 l 542 921 l 603 921 q 692 846 668 921 l 876 233 l 879 233 l 1008 972 l 1172 972 l 1001 103 q 963 25 990 50 q 889 0 936 0 l 822 0 l 606 706 l 603 706 l 381 0 l 314 0 m 656 1311 l 832 1311 l 678 1074 l 526 1074 l 656 1311 z "},"Ŵ":{"ha":1203,"x_min":31,"x_max":1172,"o":"m 314 0 q 240 24 269 0 q 200 103 211 47 l 31 972 l 194 972 l 324 232 l 326 232 l 542 921 l 603 921 q 692 846 668 921 l 876 233 l 879 233 l 1008 972 l 1172 972 l 1001 103 q 963 25 990 50 q 889 0 936 0 l 822 0 l 606 706 l 603 706 l 381 0 l 314 0 m 549 1321 l 656 1321 l 854 1074 l 710 1074 l 603 1215 l 494 1074 l 351 1074 l 549 1321 z "},"Ẅ":{"ha":1203,"x_min":31,"x_max":1172,"o":"m 314 0 q 240 24 269 0 q 200 103 211 47 l 31 972 l 194 972 l 324 232 l 326 232 l 542 921 l 603 921 q 692 846 668 921 l 876 233 l 879 233 l 1008 972 l 1172 972 l 1001 103 q 963 25 990 50 q 889 0 936 0 l 822 0 l 606 706 l 603 706 l 381 0 l 314 0 m 442 1075 q 377 1100 401 1075 q 353 1164 353 1125 q 377 1228 353 1204 q 442 1253 401 1253 q 506 1228 481 1253 q 531 1164 531 1204 q 506 1100 531 1125 q 442 1075 481 1075 m 764 1075 q 700 1100 725 1075 q 675 1164 675 1125 q 700 1228 675 1204 q 764 1253 725 1253 q 828 1228 804 1253 q 853 1164 853 1204 q 828 1100 853 1125 q 764 1075 804 1075 z "},"Ẁ":{"ha":1203,"x_min":31,"x_max":1172,"o":"m 314 0 q 240 24 269 0 q 200 103 211 47 l 31 972 l 194 972 l 324 232 l 326 232 l 542 921 l 603 921 q 692 846 668 921 l 876 233 l 879 233 l 1008 972 l 1172 972 l 1001 103 q 963 25 990 50 q 889 0 936 0 l 822 0 l 606 706 l 603 706 l 381 0 l 314 0 m 372 1311 l 549 1311 l 678 1074 l 526 1074 l 372 1311 z "},"X":{"ha":876,"x_min":6,"x_max":871,"o":"m 346 496 l 19 972 l 203 972 l 439 629 l 675 972 l 857 972 l 531 496 l 871 0 l 688 0 l 439 364 l 189 0 l 6 0 l 346 496 z "},"Y":{"ha":892,"x_min":6,"x_max":886,"o":"m 365 376 l 6 972 l 182 972 l 446 525 l 710 972 l 886 972 l 526 376 l 526 0 l 365 0 l 365 376 z "},"Ý":{"ha":892,"x_min":6,"x_max":886,"o":"m 365 376 l 6 972 l 182 972 l 446 525 l 710 972 l 886 972 l 526 376 l 526 0 l 365 0 l 365 376 m 499 1311 l 675 1311 l 521 1074 l 369 1074 l 499 1311 z "},"Ŷ":{"ha":892,"x_min":6,"x_max":886,"o":"m 365 376 l 6 972 l 182 972 l 446 525 l 710 972 l 886 972 l 526 376 l 526 0 l 365 0 l 365 376 m 392 1321 l 499 1321 l 697 1074 l 553 1074 l 446 1215 l 338 1074 l 194 1074 l 392 1321 z "},"Ÿ":{"ha":892,"x_min":6,"x_max":886,"o":"m 365 376 l 6 972 l 182 972 l 446 525 l 710 972 l 886 972 l 526 376 l 526 0 l 365 0 l 365 376 m 285 1075 q 220 1100 244 1075 q 196 1164 196 1125 q 220 1228 196 1204 q 285 1253 244 1253 q 349 1228 324 1253 q 374 1164 374 1204 q 349 1100 374 1125 q 285 1075 324 1075 m 607 1075 q 543 1100 568 1075 q 518 1164 518 1125 q 543 1228 518 1204 q 607 1253 568 1253 q 672 1228 647 1253 q 696 1164 696 1204 q 672 1100 696 1125 q 607 1075 647 1075 z "},"Ẏ":{"ha":892,"x_min":6,"x_max":886,"o":"m 365 376 l 6 972 l 182 972 l 446 525 l 710 972 l 886 972 l 526 376 l 526 0 l 365 0 l 365 376 m 446 1067 q 372 1094 400 1067 q 344 1167 344 1122 q 372 1241 344 1213 q 446 1269 400 1269 q 519 1241 492 1269 q 547 1167 547 1213 q 519 1094 547 1122 q 446 1067 492 1067 z "},"Ỵ":{"ha":892,"x_min":6,"x_max":886,"o":"m 365 376 l 6 972 l 182 972 l 446 525 l 710 972 l 886 972 l 526 376 l 526 0 l 365 0 l 365 376 m 446 -293 q 372 -265 400 -293 q 344 -192 344 -237 q 372 -118 344 -146 q 446 -90 400 -90 q 519 -118 492 -90 q 547 -192 547 -146 q 519 -265 547 -237 q 446 -293 492 -293 z "},"Ỳ":{"ha":892,"x_min":6,"x_max":886,"o":"m 365 376 l 6 972 l 182 972 l 446 525 l 710 972 l 886 972 l 526 376 l 526 0 l 365 0 l 365 376 m 215 1311 l 392 1311 l 521 1074 l 369 1074 l 215 1311 z "},"Ỷ":{"ha":892,"x_min":6,"x_max":886,"o":"m 365 376 l 6 972 l 182 972 l 446 525 l 710 972 l 886 972 l 526 376 l 526 0 l 365 0 l 365 376 m 376 1086 q 395 1133 376 1115 q 449 1171 414 1151 q 492 1201 478 1189 q 506 1232 506 1214 l 506 1247 q 494 1279 506 1268 q 460 1290 482 1290 l 432 1290 q 379 1235 379 1290 l 267 1235 q 308 1352 267 1313 q 432 1392 350 1392 l 460 1392 q 581 1355 539 1392 q 622 1247 622 1318 l 622 1232 q 603 1171 622 1193 q 547 1125 583 1149 q 515 1101 525 1111 q 504 1076 504 1090 l 504 1058 l 376 1058 l 376 1086 z "},"Ỹ":{"ha":892,"x_min":6,"x_max":886,"o":"m 365 376 l 6 972 l 182 972 l 446 525 l 710 972 l 886 972 l 526 376 l 526 0 l 365 0 l 365 376 m 533 1063 q 477 1077 501 1063 q 424 1117 453 1092 q 393 1142 406 1133 q 368 1150 381 1150 l 358 1150 q 327 1130 339 1150 q 314 1078 315 1110 l 196 1078 q 239 1211 196 1160 q 351 1263 282 1263 l 363 1263 q 421 1247 396 1263 q 476 1206 446 1232 q 504 1183 493 1190 q 525 1175 515 1175 l 536 1175 q 565 1194 553 1175 q 578 1247 576 1214 l 694 1247 q 653 1113 694 1164 q 543 1063 611 1063 l 533 1063 z "},"Z":{"ha":829,"x_min":39,"x_max":790,"o":"m 39 78 l 565 833 l 64 833 l 64 972 l 790 972 l 790 894 l 261 139 l 776 139 l 776 0 l 39 0 l 39 78 z "},"Ź":{"ha":829,"x_min":39,"x_max":790,"o":"m 39 78 l 565 833 l 64 833 l 64 972 l 790 972 l 790 894 l 261 139 l 776 139 l 776 0 l 39 0 l 39 78 m 467 1311 l 643 1311 l 489 1074 l 338 1074 l 467 1311 z "},"Ž":{"ha":829,"x_min":39,"x_max":790,"o":"m 39 78 l 565 833 l 64 833 l 64 972 l 790 972 l 790 894 l 261 139 l 776 139 l 776 0 l 39 0 l 39 78 m 163 1321 l 306 1321 l 414 1179 l 521 1321 l 665 1321 l 467 1074 l 360 1074 l 163 1321 z "},"Ż":{"ha":829,"x_min":39,"x_max":790,"o":"m 39 78 l 565 833 l 64 833 l 64 972 l 790 972 l 790 894 l 261 139 l 776 139 l 776 0 l 39 0 l 39 78 m 414 1067 q 340 1094 368 1067 q 313 1167 313 1122 q 340 1241 313 1213 q 414 1269 368 1269 q 488 1241 460 1269 q 515 1167 515 1213 q 488 1094 515 1122 q 414 1067 460 1067 z "},"Ẓ":{"ha":829,"x_min":39,"x_max":790,"o":"m 39 78 l 565 833 l 64 833 l 64 972 l 790 972 l 790 894 l 261 139 l 776 139 l 776 0 l 39 0 l 39 78 m 414 -293 q 340 -265 368 -293 q 313 -192 313 -237 q 340 -118 313 -146 q 414 -90 368 -90 q 488 -118 460 -90 q 515 -192 515 -146 q 488 -265 515 -237 q 414 -293 460 -293 z "},"a":{"ha":799,"x_min":67,"x_max":718,"o":"m 301 -11 q 131 42 196 -11 q 67 185 67 96 l 67 235 q 134 375 67 322 q 311 428 201 428 l 397 428 q 481 417 436 428 q 560 388 525 406 l 560 474 q 532 543 560 517 q 460 569 504 569 l 343 569 q 269 548 297 569 q 242 492 242 526 l 86 492 q 157 646 86 588 q 343 704 228 704 l 460 704 q 647 641 576 704 q 718 474 718 578 l 718 0 l 569 0 l 569 88 q 486 16 536 43 q 388 -11 436 -11 l 301 -11 m 397 114 q 497 145 453 114 q 560 228 542 176 l 560 261 q 493 292 536 281 q 403 304 450 304 l 315 304 q 248 283 274 304 q 222 229 222 263 l 222 190 q 249 135 222 156 q 318 114 275 114 l 397 114 z "},"á":{"ha":799,"x_min":67,"x_max":718,"o":"m 301 -11 q 131 42 196 -11 q 67 185 67 96 l 67 235 q 134 375 67 322 q 311 428 201 428 l 397 428 q 481 417 436 428 q 560 388 525 406 l 560 474 q 532 543 560 517 q 460 569 504 569 l 343 569 q 269 548 297 569 q 242 492 242 526 l 86 492 q 157 646 86 588 q 343 704 228 704 l 460 704 q 647 641 576 704 q 718 474 718 578 l 718 0 l 569 0 l 569 88 q 486 16 536 43 q 388 -11 436 -11 l 301 -11 m 397 114 q 497 145 453 114 q 560 228 542 176 l 560 261 q 493 292 536 281 q 403 304 450 304 l 315 304 q 248 283 274 304 q 222 229 222 263 l 222 190 q 249 135 222 156 q 318 114 275 114 l 397 114 m 460 1032 l 636 1032 l 482 794 l 331 794 l 460 1032 z "},"ă":{"ha":799,"x_min":67,"x_max":718,"o":"m 301 -11 q 131 42 196 -11 q 67 185 67 96 l 67 235 q 134 375 67 322 q 311 428 201 428 l 397 428 q 481 417 436 428 q 560 388 525 406 l 560 474 q 532 543 560 517 q 460 569 504 569 l 343 569 q 269 548 297 569 q 242 492 242 526 l 86 492 q 157 646 86 588 q 343 704 228 704 l 460 704 q 647 641 576 704 q 718 474 718 578 l 718 0 l 569 0 l 569 88 q 486 16 536 43 q 388 -11 436 -11 l 301 -11 m 397 114 q 497 145 453 114 q 560 228 542 176 l 560 261 q 493 292 536 281 q 403 304 450 304 l 315 304 q 248 283 274 304 q 222 229 222 263 l 222 190 q 249 135 222 156 q 318 114 275 114 l 397 114 m 399 783 q 238 838 299 783 q 176 983 176 893 l 176 1006 l 301 1006 l 301 983 q 328 915 301 940 q 399 890 354 890 l 415 890 q 487 915 460 890 q 514 983 514 940 l 514 1006 l 638 1006 l 638 983 q 576 838 638 893 q 415 783 515 783 l 399 783 z "},"ắ":{"ha":799,"x_min":67,"x_max":718,"o":"m 301 -11 q 131 42 196 -11 q 67 185 67 96 l 67 235 q 134 375 67 322 q 311 428 201 428 l 397 428 q 481 417 436 428 q 560 388 525 406 l 560 474 q 532 543 560 517 q 460 569 504 569 l 343 569 q 269 548 297 569 q 242 492 242 526 l 86 492 q 157 646 86 588 q 343 704 228 704 l 460 704 q 647 641 576 704 q 718 474 718 578 l 718 0 l 569 0 l 569 88 q 486 16 536 43 q 388 -11 436 -11 l 301 -11 m 397 114 q 497 145 453 114 q 560 228 542 176 l 560 261 q 493 292 536 281 q 403 304 450 304 l 315 304 q 248 283 274 304 q 222 229 222 263 l 222 190 q 249 135 222 156 q 318 114 275 114 l 397 114 m 447 1265 l 596 1265 l 468 1072 l 342 1072 l 447 1265 m 399 783 q 238 838 299 783 q 176 983 176 893 l 176 1006 l 301 1006 l 301 983 q 328 915 301 940 q 399 890 354 890 l 415 890 q 487 915 460 890 q 514 983 514 940 l 514 1006 l 638 1006 l 638 983 q 576 838 638 893 q 415 783 515 783 l 399 783 z "},"ặ":{"ha":799,"x_min":67,"x_max":718,"o":"m 301 -11 q 131 42 196 -11 q 67 185 67 96 l 67 235 q 134 375 67 322 q 311 428 201 428 l 397 428 q 481 417 436 428 q 560 388 525 406 l 560 474 q 532 543 560 517 q 460 569 504 569 l 343 569 q 269 548 297 569 q 242 492 242 526 l 86 492 q 157 646 86 588 q 343 704 228 704 l 460 704 q 647 641 576 704 q 718 474 718 578 l 718 0 l 569 0 l 569 88 q 486 16 536 43 q 388 -11 436 -11 l 301 -11 m 397 114 q 497 145 453 114 q 560 228 542 176 l 560 261 q 493 292 536 281 q 403 304 450 304 l 315 304 q 248 283 274 304 q 222 229 222 263 l 222 190 q 249 135 222 156 q 318 114 275 114 l 397 114 m 414 -297 q 340 -269 368 -297 q 313 -196 313 -242 q 340 -122 313 -150 q 414 -94 368 -94 q 488 -122 460 -94 q 515 -196 515 -150 q 488 -269 515 -242 q 414 -297 460 -297 m 399 783 q 238 838 299 783 q 176 983 176 893 l 176 1006 l 301 1006 l 301 983 q 328 915 301 940 q 399 890 354 890 l 415 890 q 487 915 460 890 q 514 983 514 940 l 514 1006 l 638 1006 l 638 983 q 576 838 638 893 q 415 783 515 783 l 399 783 z "},"ằ":{"ha":799,"x_min":67,"x_max":718,"o":"m 301 -11 q 131 42 196 -11 q 67 185 67 96 l 67 235 q 134 375 67 322 q 311 428 201 428 l 397 428 q 481 417 436 428 q 560 388 525 406 l 560 474 q 532 543 560 517 q 460 569 504 569 l 343 569 q 269 548 297 569 q 242 492 242 526 l 86 492 q 157 646 86 588 q 343 704 228 704 l 460 704 q 647 641 576 704 q 718 474 718 578 l 718 0 l 569 0 l 569 88 q 486 16 536 43 q 388 -11 436 -11 l 301 -11 m 397 114 q 497 145 453 114 q 560 228 542 176 l 560 261 q 493 292 536 281 q 403 304 450 304 l 315 304 q 248 283 274 304 q 222 229 222 263 l 222 190 q 249 135 222 156 q 318 114 275 114 l 397 114 m 221 1265 l 369 1265 l 475 1072 l 349 1072 l 221 1265 m 399 783 q 238 838 299 783 q 176 983 176 893 l 176 1006 l 301 1006 l 301 983 q 328 915 301 940 q 399 890 354 890 l 415 890 q 487 915 460 890 q 514 983 514 940 l 514 1006 l 638 1006 l 638 983 q 576 838 638 893 q 415 783 515 783 l 399 783 z "},"ẳ":{"ha":799,"x_min":67,"x_max":718,"o":"m 301 -11 q 131 42 196 -11 q 67 185 67 96 l 67 235 q 134 375 67 322 q 311 428 201 428 l 397 428 q 481 417 436 428 q 560 388 525 406 l 560 474 q 532 543 560 517 q 460 569 504 569 l 343 569 q 269 548 297 569 q 242 492 242 526 l 86 492 q 157 646 86 588 q 343 704 228 704 l 460 704 q 647 641 576 704 q 718 474 718 578 l 718 0 l 569 0 l 569 88 q 486 16 536 43 q 388 -11 436 -11 l 301 -11 m 397 114 q 497 145 453 114 q 560 228 542 176 l 560 261 q 493 292 536 281 q 403 304 450 304 l 315 304 q 248 283 274 304 q 222 229 222 263 l 222 190 q 249 135 222 156 q 318 114 275 114 l 397 114 m 350 1075 q 365 1114 350 1099 q 411 1146 381 1129 q 447 1171 435 1160 q 460 1197 460 1182 l 460 1213 q 450 1238 460 1229 q 422 1247 440 1247 l 399 1247 q 368 1235 379 1247 q 357 1203 357 1224 l 257 1203 q 293 1303 257 1268 q 399 1338 329 1338 l 422 1338 q 528 1306 492 1338 q 564 1213 564 1274 l 564 1197 q 547 1144 564 1164 q 499 1106 529 1125 q 470 1085 479 1094 q 461 1065 461 1076 l 461 1053 l 350 1053 l 350 1075 m 399 783 q 238 838 299 783 q 176 983 176 893 l 176 1006 l 301 1006 l 301 983 q 328 915 301 940 q 399 890 354 890 l 415 890 q 487 915 460 890 q 514 983 514 940 l 514 1006 l 638 1006 l 638 983 q 576 838 638 893 q 415 783 515 783 l 399 783 z "},"ẵ":{"ha":799,"x_min":67,"x_max":718,"o":"m 301 -11 q 131 42 196 -11 q 67 185 67 96 l 67 235 q 134 375 67 322 q 311 428 201 428 l 397 428 q 481 417 436 428 q 560 388 525 406 l 560 474 q 532 543 560 517 q 460 569 504 569 l 343 569 q 269 548 297 569 q 242 492 242 526 l 86 492 q 157 646 86 588 q 343 704 228 704 l 460 704 q 647 641 576 704 q 718 474 718 578 l 718 0 l 569 0 l 569 88 q 486 16 536 43 q 388 -11 436 -11 l 301 -11 m 397 114 q 497 145 453 114 q 560 228 542 176 l 560 261 q 493 292 536 281 q 403 304 450 304 l 315 304 q 248 283 274 304 q 222 229 222 263 l 222 190 q 249 135 222 156 q 318 114 275 114 l 397 114 m 493 1086 q 444 1097 465 1086 q 396 1131 424 1108 q 365 1153 376 1146 q 342 1160 354 1160 l 333 1160 q 303 1143 315 1160 q 292 1100 292 1126 l 186 1100 q 225 1215 186 1172 q 326 1258 264 1258 l 336 1258 q 385 1247 364 1258 q 439 1211 407 1235 q 467 1190 456 1197 q 488 1183 478 1183 l 496 1183 q 523 1200 513 1183 q 533 1243 533 1217 l 640 1243 q 601 1129 639 1172 q 503 1086 564 1086 l 493 1086 m 399 783 q 238 838 299 783 q 176 983 176 893 l 176 1006 l 301 1006 l 301 983 q 328 915 301 940 q 399 890 354 890 l 415 890 q 487 915 460 890 q 514 983 514 940 l 514 1006 l 638 1006 l 638 983 q 576 838 638 893 q 415 783 515 783 l 399 783 z "},"ǎ":{"ha":799,"x_min":67,"x_max":718,"o":"m 301 -11 q 131 42 196 -11 q 67 185 67 96 l 67 235 q 134 375 67 322 q 311 428 201 428 l 397 428 q 481 417 436 428 q 560 388 525 406 l 560 474 q 532 543 560 517 q 460 569 504 569 l 343 569 q 269 548 297 569 q 242 492 242 526 l 86 492 q 157 646 86 588 q 343 704 228 704 l 460 704 q 647 641 576 704 q 718 474 718 578 l 718 0 l 569 0 l 569 88 q 486 16 536 43 q 388 -11 436 -11 l 301 -11 m 397 114 q 497 145 453 114 q 560 228 542 176 l 560 261 q 493 292 536 281 q 403 304 450 304 l 315 304 q 248 283 274 304 q 222 229 222 263 l 222 190 q 249 135 222 156 q 318 114 275 114 l 397 114 m 156 1042 l 299 1042 l 407 900 l 514 1042 l 658 1042 l 460 794 l 353 794 l 156 1042 z "},"â":{"ha":799,"x_min":67,"x_max":718,"o":"m 301 -11 q 131 42 196 -11 q 67 185 67 96 l 67 235 q 134 375 67 322 q 311 428 201 428 l 397 428 q 481 417 436 428 q 560 388 525 406 l 560 474 q 532 543 560 517 q 460 569 504 569 l 343 569 q 269 548 297 569 q 242 492 242 526 l 86 492 q 157 646 86 588 q 343 704 228 704 l 460 704 q 647 641 576 704 q 718 474 718 578 l 718 0 l 569 0 l 569 88 q 486 16 536 43 q 388 -11 436 -11 l 301 -11 m 397 114 q 497 145 453 114 q 560 228 542 176 l 560 261 q 493 292 536 281 q 403 304 450 304 l 315 304 q 248 283 274 304 q 222 229 222 263 l 222 190 q 249 135 222 156 q 318 114 275 114 l 397 114 m 353 1042 l 460 1042 l 658 794 l 514 794 l 407 936 l 299 794 l 156 794 l 353 1042 z "},"ấ":{"ha":799,"x_min":67,"x_max":814,"o":"m 301 -11 q 131 42 196 -11 q 67 185 67 96 l 67 235 q 134 375 67 322 q 311 428 201 428 l 397 428 q 481 417 436 428 q 560 388 525 406 l 560 474 q 532 543 560 517 q 460 569 504 569 l 343 569 q 269 548 297 569 q 242 492 242 526 l 86 492 q 157 646 86 588 q 343 704 228 704 l 460 704 q 647 641 576 704 q 718 474 718 578 l 718 0 l 569 0 l 569 88 q 486 16 536 43 q 388 -11 436 -11 l 301 -11 m 397 114 q 497 145 453 114 q 560 228 542 176 l 560 261 q 493 292 536 281 q 403 304 450 304 l 315 304 q 248 283 274 304 q 222 229 222 263 l 222 190 q 249 135 222 156 q 318 114 275 114 l 397 114 m 664 1213 l 814 1213 l 686 1021 l 558 1021 l 664 1213 m 353 1042 l 460 1042 l 658 794 l 514 794 l 407 936 l 299 794 l 156 794 l 353 1042 z "},"ậ":{"ha":799,"x_min":67,"x_max":718,"o":"m 301 -11 q 131 42 196 -11 q 67 185 67 96 l 67 235 q 134 375 67 322 q 311 428 201 428 l 397 428 q 481 417 436 428 q 560 388 525 406 l 560 474 q 532 543 560 517 q 460 569 504 569 l 343 569 q 269 548 297 569 q 242 492 242 526 l 86 492 q 157 646 86 588 q 343 704 228 704 l 460 704 q 647 641 576 704 q 718 474 718 578 l 718 0 l 569 0 l 569 88 q 486 16 536 43 q 388 -11 436 -11 l 301 -11 m 397 114 q 497 145 453 114 q 560 228 542 176 l 560 261 q 493 292 536 281 q 403 304 450 304 l 315 304 q 248 283 274 304 q 222 229 222 263 l 222 190 q 249 135 222 156 q 318 114 275 114 l 397 114 m 414 -297 q 340 -269 368 -297 q 313 -196 313 -242 q 340 -122 313 -150 q 414 -94 368 -94 q 488 -122 460 -94 q 515 -196 515 -150 q 488 -269 515 -242 q 414 -297 460 -297 m 353 1042 l 460 1042 l 658 794 l 514 794 l 407 936 l 299 794 l 156 794 l 353 1042 z "},"ầ":{"ha":799,"x_min":67,"x_max":739,"o":"m 301 -11 q 131 42 196 -11 q 67 185 67 96 l 67 235 q 134 375 67 322 q 311 428 201 428 l 397 428 q 481 417 436 428 q 560 388 525 406 l 560 474 q 532 543 560 517 q 460 569 504 569 l 343 569 q 269 548 297 569 q 242 492 242 526 l 86 492 q 157 646 86 588 q 343 704 228 704 l 460 704 q 647 641 576 704 q 718 474 718 578 l 718 0 l 569 0 l 569 88 q 486 16 536 43 q 388 -11 436 -11 l 301 -11 m 397 114 q 497 145 453 114 q 560 228 542 176 l 560 261 q 493 292 536 281 q 403 304 450 304 l 315 304 q 248 283 274 304 q 222 229 222 263 l 222 190 q 249 135 222 156 q 318 114 275 114 l 397 114 m 483 1213 l 633 1213 l 739 1021 l 611 1021 l 483 1213 m 353 1042 l 460 1042 l 658 794 l 514 794 l 407 936 l 299 794 l 156 794 l 353 1042 z "},"ẩ":{"ha":799,"x_min":67,"x_max":801,"o":"m 301 -11 q 131 42 196 -11 q 67 185 67 96 l 67 235 q 134 375 67 322 q 311 428 201 428 l 397 428 q 481 417 436 428 q 560 388 525 406 l 560 474 q 532 543 560 517 q 460 569 504 569 l 343 569 q 269 548 297 569 q 242 492 242 526 l 86 492 q 157 646 86 588 q 343 704 228 704 l 460 704 q 647 641 576 704 q 718 474 718 578 l 718 0 l 569 0 l 569 88 q 486 16 536 43 q 388 -11 436 -11 l 301 -11 m 397 114 q 497 145 453 114 q 560 228 542 176 l 560 261 q 493 292 536 281 q 403 304 450 304 l 315 304 q 248 283 274 304 q 222 229 222 263 l 222 190 q 249 135 222 156 q 318 114 275 114 l 397 114 m 588 1008 q 603 1047 588 1032 q 647 1079 618 1061 q 685 1106 674 1096 q 696 1131 696 1115 l 696 1147 q 660 1181 696 1181 l 636 1181 q 594 1136 594 1181 l 494 1136 q 636 1271 494 1271 l 660 1271 q 801 1147 801 1271 l 801 1131 q 784 1078 801 1097 q 736 1040 767 1060 q 707 1017 715 1025 q 699 999 699 1010 l 699 986 l 588 986 l 588 1008 m 353 1042 l 460 1042 l 658 794 l 514 794 l 407 936 l 299 794 l 156 794 l 353 1042 z "},"ẫ":{"ha":799,"x_min":67,"x_max":718,"o":"m 301 -11 q 131 42 196 -11 q 67 185 67 96 l 67 235 q 134 375 67 322 q 311 428 201 428 l 397 428 q 481 417 436 428 q 560 388 525 406 l 560 474 q 532 543 560 517 q 460 569 504 569 l 343 569 q 269 548 297 569 q 242 492 242 526 l 86 492 q 157 646 86 588 q 343 704 228 704 l 460 704 q 647 641 576 704 q 718 474 718 578 l 718 0 l 569 0 l 569 88 q 486 16 536 43 q 388 -11 436 -11 l 301 -11 m 397 114 q 497 145 453 114 q 560 228 542 176 l 560 261 q 493 292 536 281 q 403 304 450 304 l 315 304 q 248 283 274 304 q 222 229 222 263 l 222 190 q 249 135 222 156 q 318 114 275 114 l 397 114 m 490 1088 q 441 1099 463 1088 q 393 1131 419 1110 q 378 1142 390 1133 q 357 1154 367 1150 q 339 1158 347 1158 l 331 1158 q 301 1142 313 1158 q 289 1100 289 1126 l 183 1100 q 222 1214 183 1171 q 324 1257 261 1257 l 333 1257 q 383 1246 361 1257 q 436 1213 404 1235 q 462 1194 449 1203 q 485 1186 475 1186 l 493 1186 q 520 1201 510 1186 q 531 1243 531 1217 l 638 1243 q 599 1130 636 1172 q 500 1088 561 1088 l 490 1088 m 353 1042 l 460 1042 l 658 794 l 514 794 l 407 936 l 299 794 l 156 794 l 353 1042 z "},"ä":{"ha":799,"x_min":67,"x_max":718,"o":"m 301 -11 q 131 42 196 -11 q 67 185 67 96 l 67 235 q 134 375 67 322 q 311 428 201 428 l 397 428 q 481 417 436 428 q 560 388 525 406 l 560 474 q 532 543 560 517 q 460 569 504 569 l 343 569 q 269 548 297 569 q 242 492 242 526 l 86 492 q 157 646 86 588 q 343 704 228 704 l 460 704 q 647 641 576 704 q 718 474 718 578 l 718 0 l 569 0 l 569 88 q 486 16 536 43 q 388 -11 436 -11 l 301 -11 m 397 114 q 497 145 453 114 q 560 228 542 176 l 560 261 q 493 292 536 281 q 403 304 450 304 l 315 304 q 248 283 274 304 q 222 229 222 263 l 222 190 q 249 135 222 156 q 318 114 275 114 l 397 114 m 246 796 q 181 821 206 796 q 157 885 157 846 q 181 949 157 925 q 246 974 206 974 q 310 949 285 974 q 335 885 335 925 q 310 821 335 846 q 246 796 285 796 m 568 796 q 504 821 529 796 q 479 885 479 846 q 504 949 479 925 q 568 974 529 974 q 633 949 608 974 q 657 885 657 925 q 633 821 657 846 q 568 796 608 796 z "},"ạ":{"ha":799,"x_min":67,"x_max":718,"o":"m 301 -11 q 131 42 196 -11 q 67 185 67 96 l 67 235 q 134 375 67 322 q 311 428 201 428 l 397 428 q 481 417 436 428 q 560 388 525 406 l 560 474 q 532 543 560 517 q 460 569 504 569 l 343 569 q 269 548 297 569 q 242 492 242 526 l 86 492 q 157 646 86 588 q 343 704 228 704 l 460 704 q 647 641 576 704 q 718 474 718 578 l 718 0 l 569 0 l 569 88 q 486 16 536 43 q 388 -11 436 -11 l 301 -11 m 397 114 q 497 145 453 114 q 560 228 542 176 l 560 261 q 493 292 536 281 q 403 304 450 304 l 315 304 q 248 283 274 304 q 222 229 222 263 l 222 190 q 249 135 222 156 q 318 114 275 114 l 397 114 m 414 -297 q 340 -269 368 -297 q 313 -196 313 -242 q 340 -122 313 -150 q 414 -94 368 -94 q 488 -122 460 -94 q 515 -196 515 -150 q 488 -269 515 -242 q 414 -297 460 -297 z "},"à":{"ha":799,"x_min":67,"x_max":718,"o":"m 301 -11 q 131 42 196 -11 q 67 185 67 96 l 67 235 q 134 375 67 322 q 311 428 201 428 l 397 428 q 481 417 436 428 q 560 388 525 406 l 560 474 q 532 543 560 517 q 460 569 504 569 l 343 569 q 269 548 297 569 q 242 492 242 526 l 86 492 q 157 646 86 588 q 343 704 228 704 l 460 704 q 647 641 576 704 q 718 474 718 578 l 718 0 l 569 0 l 569 88 q 486 16 536 43 q 388 -11 436 -11 l 301 -11 m 397 114 q 497 145 453 114 q 560 228 542 176 l 560 261 q 493 292 536 281 q 403 304 450 304 l 315 304 q 248 283 274 304 q 222 229 222 263 l 222 190 q 249 135 222 156 q 318 114 275 114 l 397 114 m 176 1032 l 353 1032 l 482 794 l 331 794 l 176 1032 z "},"ả":{"ha":799,"x_min":67,"x_max":718,"o":"m 301 -11 q 131 42 196 -11 q 67 185 67 96 l 67 235 q 134 375 67 322 q 311 428 201 428 l 397 428 q 481 417 436 428 q 560 388 525 406 l 560 474 q 532 543 560 517 q 460 569 504 569 l 343 569 q 269 548 297 569 q 242 492 242 526 l 86 492 q 157 646 86 588 q 343 704 228 704 l 460 704 q 647 641 576 704 q 718 474 718 578 l 718 0 l 569 0 l 569 88 q 486 16 536 43 q 388 -11 436 -11 l 301 -11 m 397 114 q 497 145 453 114 q 560 228 542 176 l 560 261 q 493 292 536 281 q 403 304 450 304 l 315 304 q 248 283 274 304 q 222 229 222 263 l 222 190 q 249 135 222 156 q 318 114 275 114 l 397 114 m 338 807 q 356 854 338 836 q 410 892 375 872 q 453 922 439 910 q 467 953 467 935 l 467 968 q 455 1000 467 989 q 421 1011 443 1011 l 393 1011 q 340 956 340 1011 l 228 956 q 269 1073 228 1033 q 393 1113 311 1113 l 421 1113 q 542 1076 500 1113 q 583 968 583 1039 l 583 953 q 564 892 583 914 q 508 846 544 869 q 476 822 486 832 q 465 797 465 811 l 465 779 l 338 779 l 338 807 z "},"ɑ":{"ha":838,"x_min":61,"x_max":832,"o":"m 325 -11 q 134 63 207 -11 q 61 258 61 138 l 61 419 q 96 569 61 504 q 194 669 131 633 q 338 704 257 704 l 425 704 q 517 681 472 704 q 590 619 563 658 l 590 693 l 739 693 l 739 204 q 753 155 739 171 q 797 139 767 139 l 832 139 l 832 0 l 768 0 q 672 24 711 0 q 618 90 633 49 l 617 90 q 537 17 586 46 q 433 -11 488 -11 l 325 -11 m 433 126 q 533 176 492 126 q 581 296 575 225 l 581 429 q 538 528 574 490 q 447 567 501 567 l 350 567 q 257 524 293 567 q 221 411 221 481 l 221 268 q 253 165 221 204 q 339 126 286 126 l 433 126 z "},"ā":{"ha":799,"x_min":67,"x_max":718,"o":"m 301 -11 q 131 42 196 -11 q 67 185 67 96 l 67 235 q 134 375 67 322 q 311 428 201 428 l 397 428 q 481 417 436 428 q 560 388 525 406 l 560 474 q 532 543 560 517 q 460 569 504 569 l 343 569 q 269 548 297 569 q 242 492 242 526 l 86 492 q 157 646 86 588 q 343 704 228 704 l 460 704 q 647 641 576 704 q 718 474 718 578 l 718 0 l 569 0 l 569 88 q 486 16 536 43 q 388 -11 436 -11 l 301 -11 m 397 114 q 497 145 453 114 q 560 228 542 176 l 560 261 q 493 292 536 281 q 403 304 450 304 l 315 304 q 248 283 274 304 q 222 229 222 263 l 222 190 q 249 135 222 156 q 318 114 275 114 l 397 114 m 200 935 l 614 935 l 614 813 l 200 813 l 200 935 z "},"ą":{"ha":799,"x_min":67,"x_max":789,"o":"m 704 -204 q 749 -197 725 -204 q 789 -176 772 -189 l 789 -281 q 740 -303 771 -294 q 679 -311 710 -311 l 661 -311 q 538 -273 585 -311 q 492 -171 492 -235 l 492 -153 q 517 -66 492 -108 q 585 0 542 -24 l 569 0 l 569 88 q 486 16 536 43 q 388 -11 436 -11 l 301 -11 q 131 42 196 -11 q 67 185 67 96 l 67 235 q 134 375 67 322 q 311 428 201 428 l 397 428 q 481 417 436 428 q 560 388 525 406 l 560 474 q 532 543 560 517 q 460 569 504 569 l 343 569 q 269 548 297 569 q 242 492 242 526 l 86 492 q 157 646 86 588 q 343 704 228 704 l 460 704 q 647 641 576 704 q 718 474 718 578 l 718 0 q 649 -60 675 -24 q 622 -133 622 -97 l 622 -151 q 640 -190 622 -175 q 686 -204 657 -204 l 704 -204 m 560 261 q 493 292 536 281 q 403 304 450 304 l 315 304 q 248 283 274 304 q 222 229 222 263 l 222 190 q 249 135 222 156 q 318 114 275 114 l 397 114 q 497 145 453 114 q 560 228 542 176 l 560 261 z "},"å":{"ha":799,"x_min":67,"x_max":718,"o":"m 301 -11 q 131 42 196 -11 q 67 185 67 96 l 67 235 q 134 375 67 322 q 311 428 201 428 l 397 428 q 481 417 436 428 q 560 388 525 406 l 560 474 q 532 543 560 517 q 460 569 504 569 l 343 569 q 269 548 297 569 q 242 492 242 526 l 86 492 q 157 646 86 588 q 343 704 228 704 l 460 704 q 647 641 576 704 q 718 474 718 578 l 718 0 l 569 0 l 569 88 q 486 16 536 43 q 388 -11 436 -11 l 301 -11 m 397 114 q 497 145 453 114 q 560 228 542 176 l 560 261 q 493 292 536 281 q 403 304 450 304 l 315 304 q 248 283 274 304 q 222 229 222 263 l 222 190 q 249 135 222 156 q 318 114 275 114 l 397 114 m 407 757 q 289 801 333 757 q 244 917 244 844 q 290 1031 244 988 q 407 1075 335 1075 q 524 1031 479 1075 q 569 917 569 988 q 525 801 569 844 q 407 757 481 757 m 407 850 q 456 868 438 850 q 474 917 474 886 q 456 964 474 946 q 407 982 438 982 q 358 964 376 982 q 340 917 340 946 q 358 868 340 886 q 407 850 376 850 z "},"ǻ":{"ha":799,"x_min":67,"x_max":718,"o":"m 301 -11 q 131 42 196 -11 q 67 185 67 96 l 67 235 q 134 375 67 322 q 311 428 201 428 l 397 428 q 481 417 436 428 q 560 388 525 406 l 560 474 q 532 543 560 517 q 460 569 504 569 l 343 569 q 269 548 297 569 q 242 492 242 526 l 86 492 q 157 646 86 588 q 343 704 228 704 l 460 704 q 647 641 576 704 q 718 474 718 578 l 718 0 l 569 0 l 569 88 q 486 16 536 43 q 388 -11 436 -11 l 301 -11 m 397 114 q 497 145 453 114 q 560 228 542 176 l 560 261 q 493 292 536 281 q 403 304 450 304 l 315 304 q 248 283 274 304 q 222 229 222 263 l 222 190 q 249 135 222 156 q 318 114 275 114 l 397 114 m 407 757 q 289 801 333 757 q 244 917 244 844 q 290 1031 244 988 q 407 1075 335 1075 q 524 1031 479 1075 q 569 917 569 988 q 525 801 569 844 q 407 757 481 757 m 407 850 q 456 868 438 850 q 474 917 474 886 q 456 964 474 946 q 407 982 438 982 q 358 964 376 982 q 340 917 340 946 q 358 868 340 886 q 407 850 376 850 m 460 1382 l 636 1382 l 482 1144 l 331 1144 l 460 1382 z "},"ã":{"ha":799,"x_min":67,"x_max":718,"o":"m 301 -11 q 131 42 196 -11 q 67 185 67 96 l 67 235 q 134 375 67 322 q 311 428 201 428 l 397 428 q 481 417 436 428 q 560 388 525 406 l 560 474 q 532 543 560 517 q 460 569 504 569 l 343 569 q 269 548 297 569 q 242 492 242 526 l 86 492 q 157 646 86 588 q 343 704 228 704 l 460 704 q 647 641 576 704 q 718 474 718 578 l 718 0 l 569 0 l 569 88 q 486 16 536 43 q 388 -11 436 -11 l 301 -11 m 397 114 q 497 145 453 114 q 560 228 542 176 l 560 261 q 493 292 536 281 q 403 304 450 304 l 315 304 q 248 283 274 304 q 222 229 222 263 l 222 190 q 249 135 222 156 q 318 114 275 114 l 397 114 m 494 783 q 438 798 463 783 q 385 838 414 813 q 354 863 367 854 q 329 871 342 871 l 319 871 q 288 851 300 871 q 275 799 276 831 l 157 799 q 200 932 157 881 q 313 983 243 983 l 324 983 q 382 968 357 983 q 438 926 407 953 q 465 903 454 911 q 486 896 476 896 l 497 896 q 526 915 514 896 q 539 968 538 935 l 656 968 q 614 834 656 885 q 504 783 572 783 l 494 783 z "},"æ":{"ha":1282,"x_min":67,"x_max":1226,"o":"m 307 -11 q 133 43 200 -11 q 67 185 67 97 l 67 235 q 134 376 67 322 q 313 429 201 429 l 399 429 q 480 417 436 429 q 560 388 524 406 l 560 474 q 533 543 560 517 q 461 569 506 569 l 344 569 q 270 548 299 569 q 242 492 242 526 l 86 492 q 158 646 86 588 q 344 704 229 704 l 461 704 q 569 681 518 704 q 647 618 619 657 l 649 618 q 733 681 679 657 q 846 704 788 704 l 949 704 q 1150 629 1074 704 q 1226 431 1226 554 l 1226 296 l 719 296 l 719 254 q 754 159 719 194 q 847 124 789 124 l 943 124 q 1034 151 1000 124 q 1068 222 1068 178 l 1224 222 q 1147 53 1224 117 q 942 -11 1069 -11 l 847 -11 q 722 17 779 -11 q 635 93 665 44 l 633 93 q 534 15 592 42 q 419 -11 476 -11 l 307 -11 m 1068 415 l 1068 433 q 1035 532 1068 494 q 949 569 1003 569 l 846 569 q 755 530 790 569 q 719 426 719 490 l 719 415 l 1068 415 m 399 115 q 498 146 454 115 q 560 228 542 176 l 560 261 q 493 292 536 281 q 404 304 450 304 l 318 304 q 248 284 274 304 q 222 229 222 264 l 222 190 q 249 135 222 156 q 319 115 275 115 l 399 115 z "},"ǽ":{"ha":1282,"x_min":67,"x_max":1226,"o":"m 307 -11 q 133 43 200 -11 q 67 185 67 97 l 67 235 q 134 376 67 322 q 313 429 201 429 l 399 429 q 480 417 436 429 q 560 388 524 406 l 560 474 q 533 543 560 517 q 461 569 506 569 l 344 569 q 270 548 299 569 q 242 492 242 526 l 86 492 q 158 646 86 588 q 344 704 229 704 l 461 704 q 569 681 518 704 q 647 618 619 657 l 649 618 q 733 681 679 657 q 846 704 788 704 l 949 704 q 1150 629 1074 704 q 1226 431 1226 554 l 1226 296 l 719 296 l 719 254 q 754 159 719 194 q 847 124 789 124 l 943 124 q 1034 151 1000 124 q 1068 222 1068 178 l 1224 222 q 1147 53 1224 117 q 942 -11 1069 -11 l 847 -11 q 722 17 779 -11 q 635 93 665 44 l 633 93 q 534 15 592 42 q 419 -11 476 -11 l 307 -11 m 1068 415 l 1068 433 q 1035 532 1068 494 q 949 569 1003 569 l 846 569 q 755 530 790 569 q 719 426 719 490 l 719 415 l 1068 415 m 399 115 q 498 146 454 115 q 560 228 542 176 l 560 261 q 493 292 536 281 q 404 304 450 304 l 318 304 q 248 284 274 304 q 222 229 222 264 l 222 190 q 249 135 222 156 q 319 115 275 115 l 399 115 m 701 1032 l 878 1032 l 724 794 l 572 794 l 701 1032 z "},"b":{"ha":826,"x_min":89,"x_max":765,"o":"m 403 -11 q 312 17 358 -11 q 238 89 265 46 l 238 0 l 89 0 l 89 972 l 249 972 l 249 629 q 319 684 276 664 q 406 704 363 704 l 503 704 q 639 670 579 704 q 732 575 699 636 q 765 435 765 514 l 765 269 q 732 122 765 186 q 638 24 699 58 q 500 -11 578 -11 l 403 -11 m 483 129 q 572 170 538 129 q 607 278 607 211 l 607 425 q 574 526 607 488 q 488 564 540 564 l 399 564 q 296 520 338 564 q 249 406 254 476 l 249 269 q 297 169 256 208 q 392 129 338 129 l 483 129 z "},"c":{"ha":767,"x_min":61,"x_max":725,"o":"m 343 -11 q 138 63 215 -11 q 61 257 61 136 l 61 432 q 96 574 61 513 q 194 670 131 636 q 342 704 258 704 l 453 704 q 645 635 572 704 q 718 454 718 567 l 561 454 q 531 535 561 504 q 453 567 501 567 l 343 567 q 255 526 289 567 q 221 422 221 486 l 221 267 q 255 165 221 204 q 344 126 289 126 l 454 126 q 537 164 506 126 q 568 261 568 201 l 725 261 q 651 64 725 139 q 454 -11 576 -11 l 343 -11 z "},"ć":{"ha":767,"x_min":61,"x_max":725,"o":"m 343 -11 q 138 63 215 -11 q 61 257 61 136 l 61 432 q 96 574 61 513 q 194 670 131 636 q 342 704 258 704 l 453 704 q 645 635 572 704 q 718 454 718 567 l 561 454 q 531 535 561 504 q 453 567 501 567 l 343 567 q 255 526 289 567 q 221 422 221 486 l 221 267 q 255 165 221 204 q 344 126 289 126 l 454 126 q 537 164 506 126 q 568 261 568 201 l 725 261 q 651 64 725 139 q 454 -11 576 -11 l 343 -11 m 446 1032 l 622 1032 l 468 794 l 317 794 l 446 1032 z "},"č":{"ha":767,"x_min":61,"x_max":725,"o":"m 343 -11 q 138 63 215 -11 q 61 257 61 136 l 61 432 q 96 574 61 513 q 194 670 131 636 q 342 704 258 704 l 453 704 q 645 635 572 704 q 718 454 718 567 l 561 454 q 531 535 561 504 q 453 567 501 567 l 343 567 q 255 526 289 567 q 221 422 221 486 l 221 267 q 255 165 221 204 q 344 126 289 126 l 454 126 q 537 164 506 126 q 568 261 568 201 l 725 261 q 651 64 725 139 q 454 -11 576 -11 l 343 -11 m 142 1042 l 285 1042 l 393 900 l 500 1042 l 644 1042 l 446 794 l 339 794 l 142 1042 z "},"ç":{"ha":767,"x_min":61,"x_max":725,"o":"m 447 -11 l 422 -68 l 435 -68 q 522 -99 489 -68 q 556 -179 556 -129 l 556 -203 q 509 -299 556 -262 q 386 -335 463 -335 l 271 -335 l 271 -236 l 375 -236 q 419 -226 403 -236 q 435 -200 435 -217 l 435 -181 q 421 -156 435 -165 q 383 -146 407 -146 l 300 -146 l 300 -78 l 329 -11 q 134 66 207 -7 q 61 257 61 139 l 61 432 q 96 574 61 513 q 194 670 131 636 q 342 704 258 704 l 453 704 q 645 635 572 704 q 718 454 718 567 l 561 454 q 531 535 561 504 q 453 567 501 567 l 343 567 q 255 526 289 567 q 221 422 221 486 l 221 267 q 255 165 221 204 q 344 126 289 126 l 454 126 q 537 164 506 126 q 568 261 568 201 l 725 261 q 651 64 725 139 q 454 -11 576 -11 l 447 -11 z "},"ĉ":{"ha":767,"x_min":61,"x_max":725,"o":"m 343 -11 q 138 63 215 -11 q 61 257 61 136 l 61 432 q 96 574 61 513 q 194 670 131 636 q 342 704 258 704 l 453 704 q 645 635 572 704 q 718 454 718 567 l 561 454 q 531 535 561 504 q 453 567 501 567 l 343 567 q 255 526 289 567 q 221 422 221 486 l 221 267 q 255 165 221 204 q 344 126 289 126 l 454 126 q 537 164 506 126 q 568 261 568 201 l 725 261 q 651 64 725 139 q 454 -11 576 -11 l 343 -11 m 339 1042 l 446 1042 l 644 794 l 500 794 l 393 936 l 285 794 l 142 794 l 339 1042 z "},"ċ":{"ha":767,"x_min":61,"x_max":725,"o":"m 343 -11 q 138 63 215 -11 q 61 257 61 136 l 61 432 q 96 574 61 513 q 194 670 131 636 q 342 704 258 704 l 453 704 q 645 635 572 704 q 718 454 718 567 l 561 454 q 531 535 561 504 q 453 567 501 567 l 343 567 q 255 526 289 567 q 221 422 221 486 l 221 267 q 255 165 221 204 q 344 126 289 126 l 454 126 q 537 164 506 126 q 568 261 568 201 l 725 261 q 651 64 725 139 q 454 -11 576 -11 l 343 -11 m 393 788 q 319 815 347 788 q 292 888 292 843 q 319 962 292 933 q 393 990 347 990 q 467 962 439 990 q 494 888 494 933 q 467 815 494 843 q 393 788 439 788 z "},"d":{"ha":826,"x_min":61,"x_max":738,"o":"m 325 -11 q 134 63 207 -11 q 61 258 61 138 l 61 419 q 96 569 61 504 q 194 669 131 633 q 339 704 257 704 l 424 704 q 509 685 467 704 q 579 633 551 665 l 579 972 l 738 972 l 738 0 l 589 0 l 589 96 q 511 18 560 47 q 413 -11 463 -11 l 325 -11 m 425 126 q 528 174 485 126 q 579 293 572 222 l 579 432 q 533 529 569 492 q 444 567 496 567 l 356 567 q 258 524 294 567 q 221 411 221 481 l 221 268 q 255 165 221 204 q 342 126 289 126 l 425 126 z "},"ð":{"ha":842,"x_min":53,"x_max":789,"o":"m 596 981 q 740 796 692 914 q 789 513 789 678 l 789 311 q 748 142 789 215 q 633 29 707 69 q 464 -11 560 -11 l 364 -11 q 201 24 272 -11 q 92 125 131 60 q 53 275 53 190 l 53 417 q 91 573 53 506 q 199 678 129 640 q 360 715 269 715 l 451 715 q 547 694 501 715 q 622 639 593 674 l 624 639 q 508 869 611 794 l 449 793 l 292 793 l 393 922 q 276 935 339 935 l 217 935 l 217 1069 l 276 1069 q 483 1038 390 1069 l 540 1111 l 697 1111 l 596 981 m 629 388 q 581 524 629 471 q 454 578 532 578 l 363 578 q 253 531 294 578 q 213 408 213 485 l 213 283 q 255 169 213 213 q 367 126 297 126 l 461 126 q 583 176 538 126 q 629 308 629 226 l 629 388 z "},"ď":{"ha":1088,"x_min":61,"x_max":1082,"o":"m 325 -11 q 134 63 207 -11 q 61 258 61 138 l 61 419 q 96 569 61 504 q 194 669 131 633 q 339 704 257 704 l 424 704 q 509 685 467 704 q 579 633 551 665 l 579 972 l 738 972 l 738 0 l 589 0 l 589 96 q 511 18 560 47 q 413 -11 463 -11 l 325 -11 m 425 126 q 528 174 485 126 q 579 293 572 222 l 579 432 q 533 529 569 492 q 444 567 496 567 l 356 567 q 258 524 294 567 q 221 411 221 481 l 221 268 q 255 165 221 204 q 342 126 289 126 l 425 126 m 813 729 l 847 758 q 924 913 924 821 l 924 972 l 1082 972 l 1082 913 q 1051 758 1082 824 q 954 642 1019 692 l 914 611 l 813 729 z "},"đ":{"ha":853,"x_min":61,"x_max":844,"o":"m 844 775 l 738 775 l 738 0 l 589 0 l 589 96 q 511 18 560 47 q 413 -11 463 -11 l 325 -11 q 134 63 207 -11 q 61 258 61 138 l 61 419 q 96 569 61 504 q 194 669 131 633 q 339 704 257 704 l 424 704 q 509 685 467 704 q 579 633 551 665 l 579 775 l 375 775 l 375 888 l 579 888 l 579 972 l 738 972 l 738 888 l 844 888 l 844 775 m 579 432 q 533 529 569 492 q 444 567 496 567 l 356 567 q 258 524 294 567 q 221 411 221 481 l 221 268 q 255 165 221 204 q 342 126 289 126 l 425 126 q 528 174 485 126 q 579 293 572 222 l 579 432 z "},"ḍ":{"ha":826,"x_min":61,"x_max":738,"o":"m 325 -11 q 134 63 207 -11 q 61 258 61 138 l 61 419 q 96 569 61 504 q 194 669 131 633 q 339 704 257 704 l 424 704 q 509 685 467 704 q 579 633 551 665 l 579 972 l 738 972 l 738 0 l 589 0 l 589 96 q 511 18 560 47 q 413 -11 463 -11 l 325 -11 m 425 126 q 528 174 485 126 q 579 293 572 222 l 579 432 q 533 529 569 492 q 444 567 496 567 l 356 567 q 258 524 294 567 q 221 411 221 481 l 221 268 q 255 165 221 204 q 342 126 289 126 l 425 126 m 407 -293 q 333 -265 361 -293 q 306 -192 306 -237 q 333 -118 306 -146 q 407 -90 361 -90 q 481 -118 453 -90 q 508 -192 508 -146 q 481 -265 508 -237 q 407 -293 453 -293 z "},"ḏ":{"ha":826,"x_min":61,"x_max":738,"o":"m 325 -11 q 134 63 207 -11 q 61 258 61 138 l 61 419 q 96 569 61 504 q 194 669 131 633 q 339 704 257 704 l 424 704 q 509 685 467 704 q 579 633 551 665 l 579 972 l 738 972 l 738 0 l 589 0 l 589 96 q 511 18 560 47 q 413 -11 463 -11 l 325 -11 m 425 126 q 528 174 485 126 q 579 293 572 222 l 579 432 q 533 529 569 492 q 444 567 496 567 l 356 567 q 258 524 294 567 q 221 411 221 481 l 221 268 q 255 165 221 204 q 342 126 289 126 l 425 126 m 200 -110 l 614 -110 l 614 -235 l 200 -235 l 200 -110 z "},"e":{"ha":790,"x_min":61,"x_max":736,"o":"m 346 -11 q 197 21 261 -11 q 97 111 132 53 q 61 246 61 169 l 61 432 q 97 574 61 513 q 197 670 132 636 q 346 704 261 704 l 457 704 q 660 631 583 704 q 736 435 736 557 l 736 296 l 221 296 l 221 246 q 255 157 221 190 q 346 124 289 124 l 453 124 q 542 151 508 124 q 576 222 576 178 l 733 222 q 656 53 733 117 q 451 -11 578 -11 l 346 -11 m 579 415 l 579 435 q 546 533 579 496 q 458 571 513 571 l 346 571 q 253 531 289 571 q 218 428 218 492 l 218 415 l 579 415 z "},"é":{"ha":790,"x_min":61,"x_max":736,"o":"m 346 -11 q 197 21 261 -11 q 97 111 132 53 q 61 246 61 169 l 61 432 q 97 574 61 513 q 197 670 132 636 q 346 704 261 704 l 457 704 q 660 631 583 704 q 736 435 736 557 l 736 296 l 221 296 l 221 246 q 255 157 221 190 q 346 124 289 124 l 453 124 q 542 151 508 124 q 576 222 576 178 l 733 222 q 656 53 733 117 q 451 -11 578 -11 l 346 -11 m 579 415 l 579 435 q 546 533 579 496 q 458 571 513 571 l 346 571 q 253 531 289 571 q 218 428 218 492 l 218 415 l 579 415 m 451 1032 l 628 1032 l 474 794 l 322 794 l 451 1032 z "},"ĕ":{"ha":790,"x_min":61,"x_max":736,"o":"m 346 -11 q 197 21 261 -11 q 97 111 132 53 q 61 246 61 169 l 61 432 q 97 574 61 513 q 197 670 132 636 q 346 704 261 704 l 457 704 q 660 631 583 704 q 736 435 736 557 l 736 296 l 221 296 l 221 246 q 255 157 221 190 q 346 124 289 124 l 453 124 q 542 151 508 124 q 576 222 576 178 l 733 222 q 656 53 733 117 q 451 -11 578 -11 l 346 -11 m 579 415 l 579 435 q 546 533 579 496 q 458 571 513 571 l 346 571 q 253 531 289 571 q 218 428 218 492 l 218 415 l 579 415 m 390 783 q 229 838 290 783 q 168 983 168 893 l 168 1006 l 293 1006 l 293 983 q 319 915 293 940 q 390 890 346 890 l 407 890 q 478 915 451 890 q 506 983 506 940 l 506 1006 l 629 1006 l 629 983 q 568 838 629 893 q 407 783 507 783 l 390 783 z "},"ě":{"ha":790,"x_min":61,"x_max":736,"o":"m 346 -11 q 197 21 261 -11 q 97 111 132 53 q 61 246 61 169 l 61 432 q 97 574 61 513 q 197 670 132 636 q 346 704 261 704 l 457 704 q 660 631 583 704 q 736 435 736 557 l 736 296 l 221 296 l 221 246 q 255 157 221 190 q 346 124 289 124 l 453 124 q 542 151 508 124 q 576 222 576 178 l 733 222 q 656 53 733 117 q 451 -11 578 -11 l 346 -11 m 579 415 l 579 435 q 546 533 579 496 q 458 571 513 571 l 346 571 q 253 531 289 571 q 218 428 218 492 l 218 415 l 579 415 m 147 1042 l 290 1042 l 399 900 l 506 1042 l 650 1042 l 451 794 l 344 794 l 147 1042 z "},"ê":{"ha":790,"x_min":61,"x_max":736,"o":"m 346 -11 q 197 21 261 -11 q 97 111 132 53 q 61 246 61 169 l 61 432 q 97 574 61 513 q 197 670 132 636 q 346 704 261 704 l 457 704 q 660 631 583 704 q 736 435 736 557 l 736 296 l 221 296 l 221 246 q 255 157 221 190 q 346 124 289 124 l 453 124 q 542 151 508 124 q 576 222 576 178 l 733 222 q 656 53 733 117 q 451 -11 578 -11 l 346 -11 m 579 415 l 579 435 q 546 533 579 496 q 458 571 513 571 l 346 571 q 253 531 289 571 q 218 428 218 492 l 218 415 l 579 415 m 344 1042 l 451 1042 l 650 794 l 506 794 l 399 936 l 290 794 l 147 794 l 344 1042 z "},"ế":{"ha":790,"x_min":61,"x_max":806,"o":"m 346 -11 q 197 21 261 -11 q 97 111 132 53 q 61 246 61 169 l 61 432 q 97 574 61 513 q 197 670 132 636 q 346 704 261 704 l 457 704 q 660 631 583 704 q 736 435 736 557 l 736 296 l 221 296 l 221 246 q 255 157 221 190 q 346 124 289 124 l 453 124 q 542 151 508 124 q 576 222 576 178 l 733 222 q 656 53 733 117 q 451 -11 578 -11 l 346 -11 m 579 415 l 579 435 q 546 533 579 496 q 458 571 513 571 l 346 571 q 253 531 289 571 q 218 428 218 492 l 218 415 l 579 415 m 656 1213 l 806 1213 l 678 1021 l 550 1021 l 656 1213 m 344 1042 l 451 1042 l 650 794 l 506 794 l 399 936 l 290 794 l 147 794 l 344 1042 z "},"ệ":{"ha":790,"x_min":61,"x_max":736,"o":"m 346 -11 q 197 21 261 -11 q 97 111 132 53 q 61 246 61 169 l 61 432 q 97 574 61 513 q 197 670 132 636 q 346 704 261 704 l 457 704 q 660 631 583 704 q 736 435 736 557 l 736 296 l 221 296 l 221 246 q 255 157 221 190 q 346 124 289 124 l 453 124 q 542 151 508 124 q 576 222 576 178 l 733 222 q 656 53 733 117 q 451 -11 578 -11 l 346 -11 m 579 415 l 579 435 q 546 533 579 496 q 458 571 513 571 l 346 571 q 253 531 289 571 q 218 428 218 492 l 218 415 l 579 415 m 403 -293 q 329 -265 357 -293 q 301 -192 301 -237 q 329 -118 301 -146 q 403 -90 357 -90 q 476 -118 449 -90 q 504 -192 504 -146 q 476 -265 504 -237 q 403 -293 449 -293 m 344 1042 l 451 1042 l 650 794 l 506 794 l 399 936 l 290 794 l 147 794 l 344 1042 z "},"ề":{"ha":790,"x_min":61,"x_max":736,"o":"m 346 -11 q 197 21 261 -11 q 97 111 132 53 q 61 246 61 169 l 61 432 q 97 574 61 513 q 197 670 132 636 q 346 704 261 704 l 457 704 q 660 631 583 704 q 736 435 736 557 l 736 296 l 221 296 l 221 246 q 255 157 221 190 q 346 124 289 124 l 453 124 q 542 151 508 124 q 576 222 576 178 l 733 222 q 656 53 733 117 q 451 -11 578 -11 l 346 -11 m 579 415 l 579 435 q 546 533 579 496 q 458 571 513 571 l 346 571 q 253 531 289 571 q 218 428 218 492 l 218 415 l 579 415 m 475 1213 l 625 1213 l 731 1021 l 603 1021 l 475 1213 m 344 1042 l 451 1042 l 650 794 l 506 794 l 399 936 l 290 794 l 147 794 l 344 1042 z "},"ể":{"ha":790,"x_min":61,"x_max":793,"o":"m 346 -11 q 197 21 261 -11 q 97 111 132 53 q 61 246 61 169 l 61 432 q 97 574 61 513 q 197 670 132 636 q 346 704 261 704 l 457 704 q 660 631 583 704 q 736 435 736 557 l 736 296 l 221 296 l 221 246 q 255 157 221 190 q 346 124 289 124 l 453 124 q 542 151 508 124 q 576 222 576 178 l 733 222 q 656 53 733 117 q 451 -11 578 -11 l 346 -11 m 579 415 l 579 435 q 546 533 579 496 q 458 571 513 571 l 346 571 q 253 531 289 571 q 218 428 218 492 l 218 415 l 579 415 m 579 1008 q 594 1047 579 1032 q 639 1079 610 1061 q 676 1106 665 1096 q 688 1131 688 1115 l 688 1147 q 651 1181 688 1181 l 628 1181 q 586 1136 586 1181 l 486 1136 q 628 1271 486 1271 l 651 1271 q 793 1147 793 1271 l 793 1131 q 776 1078 793 1097 q 728 1040 758 1060 q 699 1017 707 1025 q 690 999 690 1010 l 690 986 l 579 986 l 579 1008 m 344 1042 l 451 1042 l 650 794 l 506 794 l 399 936 l 290 794 l 147 794 l 344 1042 z "},"ễ":{"ha":790,"x_min":61,"x_max":736,"o":"m 346 -11 q 197 21 261 -11 q 97 111 132 53 q 61 246 61 169 l 61 432 q 97 574 61 513 q 197 670 132 636 q 346 704 261 704 l 457 704 q 660 631 583 704 q 736 435 736 557 l 736 296 l 221 296 l 221 246 q 255 157 221 190 q 346 124 289 124 l 453 124 q 542 151 508 124 q 576 222 576 178 l 733 222 q 656 53 733 117 q 451 -11 578 -11 l 346 -11 m 579 415 l 579 435 q 546 533 579 496 q 458 571 513 571 l 346 571 q 253 531 289 571 q 218 428 218 492 l 218 415 l 579 415 m 482 1088 q 433 1099 454 1088 q 385 1131 411 1110 q 370 1142 382 1133 q 349 1154 358 1150 q 331 1158 339 1158 l 322 1158 q 292 1142 304 1158 q 281 1100 281 1126 l 175 1100 q 214 1214 175 1171 q 315 1257 253 1257 l 325 1257 q 374 1246 353 1257 q 428 1213 396 1235 q 453 1194 440 1203 q 476 1186 467 1186 l 485 1186 q 512 1201 501 1186 q 522 1243 522 1217 l 629 1243 q 590 1130 628 1172 q 492 1088 553 1088 l 482 1088 m 344 1042 l 451 1042 l 650 794 l 506 794 l 399 936 l 290 794 l 147 794 l 344 1042 z "},"ë":{"ha":790,"x_min":61,"x_max":736,"o":"m 346 -11 q 197 21 261 -11 q 97 111 132 53 q 61 246 61 169 l 61 432 q 97 574 61 513 q 197 670 132 636 q 346 704 261 704 l 457 704 q 660 631 583 704 q 736 435 736 557 l 736 296 l 221 296 l 221 246 q 255 157 221 190 q 346 124 289 124 l 453 124 q 542 151 508 124 q 576 222 576 178 l 733 222 q 656 53 733 117 q 451 -11 578 -11 l 346 -11 m 579 415 l 579 435 q 546 533 579 496 q 458 571 513 571 l 346 571 q 253 531 289 571 q 218 428 218 492 l 218 415 l 579 415 m 238 796 q 173 821 197 796 q 149 885 149 846 q 173 949 149 925 q 238 974 197 974 q 301 949 276 974 q 326 885 326 925 q 301 821 326 846 q 238 796 276 796 m 560 796 q 496 821 521 796 q 471 885 471 846 q 496 949 471 925 q 560 974 521 974 q 624 949 600 974 q 649 885 649 925 q 624 821 649 846 q 560 796 600 796 z "},"ė":{"ha":790,"x_min":61,"x_max":736,"o":"m 346 -11 q 197 21 261 -11 q 97 111 132 53 q 61 246 61 169 l 61 432 q 97 574 61 513 q 197 670 132 636 q 346 704 261 704 l 457 704 q 660 631 583 704 q 736 435 736 557 l 736 296 l 221 296 l 221 246 q 255 157 221 190 q 346 124 289 124 l 453 124 q 542 151 508 124 q 576 222 576 178 l 733 222 q 656 53 733 117 q 451 -11 578 -11 l 346 -11 m 579 415 l 579 435 q 546 533 579 496 q 458 571 513 571 l 346 571 q 253 531 289 571 q 218 428 218 492 l 218 415 l 579 415 m 399 788 q 325 815 353 788 q 297 888 297 843 q 325 962 297 933 q 399 990 353 990 q 472 962 444 990 q 500 888 500 933 q 472 815 500 843 q 399 788 444 788 z "},"ẹ":{"ha":790,"x_min":61,"x_max":736,"o":"m 346 -11 q 197 21 261 -11 q 97 111 132 53 q 61 246 61 169 l 61 432 q 97 574 61 513 q 197 670 132 636 q 346 704 261 704 l 457 704 q 660 631 583 704 q 736 435 736 557 l 736 296 l 221 296 l 221 246 q 255 157 221 190 q 346 124 289 124 l 453 124 q 542 151 508 124 q 576 222 576 178 l 733 222 q 656 53 733 117 q 451 -11 578 -11 l 346 -11 m 579 415 l 579 435 q 546 533 579 496 q 458 571 513 571 l 346 571 q 253 531 289 571 q 218 428 218 492 l 218 415 l 579 415 m 403 -293 q 329 -265 357 -293 q 301 -192 301 -237 q 329 -118 301 -146 q 403 -90 357 -90 q 476 -118 449 -90 q 504 -192 504 -146 q 476 -265 504 -237 q 403 -293 449 -293 z "},"è":{"ha":790,"x_min":61,"x_max":736,"o":"m 346 -11 q 197 21 261 -11 q 97 111 132 53 q 61 246 61 169 l 61 432 q 97 574 61 513 q 197 670 132 636 q 346 704 261 704 l 457 704 q 660 631 583 704 q 736 435 736 557 l 736 296 l 221 296 l 221 246 q 255 157 221 190 q 346 124 289 124 l 453 124 q 542 151 508 124 q 576 222 576 178 l 733 222 q 656 53 733 117 q 451 -11 578 -11 l 346 -11 m 579 415 l 579 435 q 546 533 579 496 q 458 571 513 571 l 346 571 q 253 531 289 571 q 218 428 218 492 l 218 415 l 579 415 m 168 1032 l 344 1032 l 474 794 l 322 794 l 168 1032 z "},"ẻ":{"ha":790,"x_min":61,"x_max":736,"o":"m 346 -11 q 197 21 261 -11 q 97 111 132 53 q 61 246 61 169 l 61 432 q 97 574 61 513 q 197 670 132 636 q 346 704 261 704 l 457 704 q 660 631 583 704 q 736 435 736 557 l 736 296 l 221 296 l 221 246 q 255 157 221 190 q 346 124 289 124 l 453 124 q 542 151 508 124 q 576 222 576 178 l 733 222 q 656 53 733 117 q 451 -11 578 -11 l 346 -11 m 579 415 l 579 435 q 546 533 579 496 q 458 571 513 571 l 346 571 q 253 531 289 571 q 218 428 218 492 l 218 415 l 579 415 m 329 807 q 348 854 329 836 q 401 892 367 872 q 444 922 431 910 q 458 953 458 935 l 458 968 q 447 1000 458 989 q 413 1011 435 1011 l 385 1011 q 332 956 332 1011 l 219 956 q 261 1073 219 1033 q 385 1113 303 1113 l 413 1113 q 533 1076 492 1113 q 575 968 575 1039 l 575 953 q 556 892 575 914 q 500 846 536 869 q 467 822 478 832 q 457 797 457 811 l 457 779 l 329 779 l 329 807 z "},"ē":{"ha":790,"x_min":61,"x_max":736,"o":"m 346 -11 q 197 21 261 -11 q 97 111 132 53 q 61 246 61 169 l 61 432 q 97 574 61 513 q 197 670 132 636 q 346 704 261 704 l 457 704 q 660 631 583 704 q 736 435 736 557 l 736 296 l 221 296 l 221 246 q 255 157 221 190 q 346 124 289 124 l 453 124 q 542 151 508 124 q 576 222 576 178 l 733 222 q 656 53 733 117 q 451 -11 578 -11 l 346 -11 m 579 415 l 579 435 q 546 533 579 496 q 458 571 513 571 l 346 571 q 253 531 289 571 q 218 428 218 492 l 218 415 l 579 415 m 192 935 l 606 935 l 606 813 l 192 813 l 192 935 z "},"ę":{"ha":790,"x_min":61,"x_max":736,"o":"m 221 296 l 221 246 q 255 157 221 190 q 346 124 289 124 l 453 124 q 542 151 508 124 q 576 222 576 178 l 733 222 q 683 81 733 139 q 546 0 633 22 l 549 0 q 479 -60 506 -24 q 453 -133 453 -97 l 453 -151 q 470 -190 453 -175 q 517 -204 488 -204 l 535 -204 q 579 -197 556 -204 q 619 -176 603 -189 l 619 -281 q 571 -303 601 -294 q 510 -311 540 -311 l 492 -311 q 369 -273 415 -311 q 322 -171 322 -235 l 322 -153 q 342 -74 322 -112 q 397 -11 363 -36 l 346 -11 q 197 21 261 -11 q 97 111 132 53 q 61 246 61 169 l 61 432 q 97 574 61 513 q 197 670 132 636 q 346 704 261 704 l 457 704 q 660 631 583 704 q 736 435 736 557 l 736 296 l 221 296 m 579 415 l 579 435 q 546 533 579 496 q 458 571 513 571 l 346 571 q 253 531 289 571 q 218 428 218 492 l 218 415 l 579 415 z "},"ẽ":{"ha":790,"x_min":61,"x_max":736,"o":"m 346 -11 q 197 21 261 -11 q 97 111 132 53 q 61 246 61 169 l 61 432 q 97 574 61 513 q 197 670 132 636 q 346 704 261 704 l 457 704 q 660 631 583 704 q 736 435 736 557 l 736 296 l 221 296 l 221 246 q 255 157 221 190 q 346 124 289 124 l 453 124 q 542 151 508 124 q 576 222 576 178 l 733 222 q 656 53 733 117 q 451 -11 578 -11 l 346 -11 m 579 415 l 579 435 q 546 533 579 496 q 458 571 513 571 l 346 571 q 253 531 289 571 q 218 428 218 492 l 218 415 l 579 415 m 486 783 q 430 798 454 783 q 376 838 406 813 q 346 863 358 854 q 321 871 333 871 l 311 871 q 280 851 292 871 q 267 799 268 831 l 149 799 q 192 932 149 881 q 304 983 235 983 l 315 983 q 374 968 349 983 q 429 926 399 953 q 457 903 446 911 q 478 896 468 896 l 489 896 q 517 915 506 896 q 531 968 529 935 l 647 968 q 606 834 647 885 q 496 783 564 783 l 486 783 z "},"ə":{"ha":789,"x_min":54,"x_max":728,"o":"m 332 -11 q 131 64 207 -11 q 54 263 54 139 l 54 397 l 569 397 l 569 438 q 534 533 569 497 q 442 569 499 569 l 338 569 q 248 542 282 569 q 214 471 214 515 l 57 471 q 135 640 57 576 q 339 704 213 704 l 442 704 q 649 633 571 704 q 728 447 728 563 l 728 261 q 692 119 728 181 q 592 23 657 57 q 443 -11 528 -11 l 332 -11 m 443 124 q 535 163 500 124 q 569 267 569 203 l 569 278 l 213 278 l 213 260 q 245 161 213 199 q 332 124 278 124 l 443 124 z "},"f":{"ha":517,"x_min":35,"x_max":496,"o":"m 154 556 l 35 556 l 35 693 l 154 693 l 154 742 q 222 916 154 854 q 411 978 289 978 l 496 978 l 496 842 l 414 842 q 338 817 363 842 q 314 740 314 793 l 314 693 l 481 693 l 481 556 l 314 556 l 314 0 l 154 0 l 154 556 z "},"g":{"ha":829,"x_min":61,"x_max":740,"o":"m 343 -282 q 169 -224 239 -282 q 93 -69 100 -165 l 250 -69 q 280 -125 254 -104 q 343 -146 306 -146 l 465 -146 q 549 -106 518 -146 q 581 0 581 -67 l 581 79 q 509 25 551 46 q 426 4 467 4 l 329 4 q 135 78 210 4 q 61 274 61 153 l 61 422 q 96 569 61 506 q 194 669 131 633 q 339 704 257 704 l 425 704 q 518 681 472 704 q 590 621 564 658 l 590 693 l 740 693 l 740 0 q 666 -206 740 -129 q 465 -282 592 -282 l 343 -282 m 435 140 q 535 188 494 140 q 581 310 575 235 l 581 431 q 538 528 575 490 q 447 567 500 567 l 351 567 q 257 524 293 567 q 221 413 221 482 l 221 283 q 253 180 221 219 q 339 140 286 140 l 435 140 z "},"ğ":{"ha":829,"x_min":61,"x_max":740,"o":"m 343 -282 q 169 -224 239 -282 q 93 -69 100 -165 l 250 -69 q 280 -125 254 -104 q 343 -146 306 -146 l 465 -146 q 549 -106 518 -146 q 581 0 581 -67 l 581 79 q 509 25 551 46 q 426 4 467 4 l 329 4 q 135 78 210 4 q 61 274 61 153 l 61 422 q 96 569 61 506 q 194 669 131 633 q 339 704 257 704 l 425 704 q 518 681 472 704 q 590 621 564 658 l 590 693 l 740 693 l 740 0 q 666 -206 740 -129 q 465 -282 592 -282 l 343 -282 m 435 140 q 535 188 494 140 q 581 310 575 235 l 581 431 q 538 528 575 490 q 447 567 500 567 l 351 567 q 257 524 293 567 q 221 413 221 482 l 221 283 q 253 180 221 219 q 339 140 286 140 l 435 140 m 394 783 q 233 838 294 783 q 172 983 172 893 l 172 1006 l 297 1006 l 297 983 q 324 915 297 940 q 394 890 350 890 l 411 890 q 483 915 456 890 q 510 983 510 940 l 510 1006 l 633 1006 l 633 983 q 572 838 633 893 q 411 783 511 783 l 394 783 z "},"ǧ":{"ha":829,"x_min":61,"x_max":740,"o":"m 343 -282 q 169 -224 239 -282 q 93 -69 100 -165 l 250 -69 q 280 -125 254 -104 q 343 -146 306 -146 l 465 -146 q 549 -106 518 -146 q 581 0 581 -67 l 581 79 q 509 25 551 46 q 426 4 467 4 l 329 4 q 135 78 210 4 q 61 274 61 153 l 61 422 q 96 569 61 506 q 194 669 131 633 q 339 704 257 704 l 425 704 q 518 681 472 704 q 590 621 564 658 l 590 693 l 740 693 l 740 0 q 666 -206 740 -129 q 465 -282 592 -282 l 343 -282 m 435 140 q 535 188 494 140 q 581 310 575 235 l 581 431 q 538 528 575 490 q 447 567 500 567 l 351 567 q 257 524 293 567 q 221 413 221 482 l 221 283 q 253 180 221 219 q 339 140 286 140 l 435 140 m 151 1042 l 294 1042 l 403 900 l 510 1042 l 654 1042 l 456 794 l 349 794 l 151 1042 z "},"ĝ":{"ha":829,"x_min":61,"x_max":740,"o":"m 343 -282 q 169 -224 239 -282 q 93 -69 100 -165 l 250 -69 q 280 -125 254 -104 q 343 -146 306 -146 l 465 -146 q 549 -106 518 -146 q 581 0 581 -67 l 581 79 q 509 25 551 46 q 426 4 467 4 l 329 4 q 135 78 210 4 q 61 274 61 153 l 61 422 q 96 569 61 506 q 194 669 131 633 q 339 704 257 704 l 425 704 q 518 681 472 704 q 590 621 564 658 l 590 693 l 740 693 l 740 0 q 666 -206 740 -129 q 465 -282 592 -282 l 343 -282 m 435 140 q 535 188 494 140 q 581 310 575 235 l 581 431 q 538 528 575 490 q 447 567 500 567 l 351 567 q 257 524 293 567 q 221 413 221 482 l 221 283 q 253 180 221 219 q 339 140 286 140 l 435 140 m 349 1042 l 456 1042 l 654 794 l 510 794 l 403 936 l 294 794 l 151 794 l 349 1042 z "},"ģ":{"ha":829,"x_min":61,"x_max":740,"o":"m 343 -282 q 169 -224 239 -282 q 93 -69 100 -165 l 250 -69 q 280 -125 254 -104 q 343 -146 306 -146 l 465 -146 q 549 -106 518 -146 q 581 0 581 -67 l 581 79 q 509 25 551 46 q 426 4 467 4 l 329 4 q 135 78 210 4 q 61 274 61 153 l 61 422 q 96 569 61 506 q 194 669 131 633 q 339 704 257 704 l 425 704 q 518 681 472 704 q 590 621 564 658 l 590 693 l 740 693 l 740 0 q 666 -206 740 -129 q 465 -282 592 -282 l 343 -282 m 435 140 q 535 188 494 140 q 581 310 575 235 l 581 431 q 538 528 575 490 q 447 567 500 567 l 351 567 q 257 524 293 567 q 221 413 221 482 l 221 283 q 253 180 221 219 q 339 140 286 140 l 435 140 m 321 847 q 352 1003 321 938 q 450 1118 383 1068 l 490 1149 l 592 1031 l 557 1001 q 481 847 481 939 l 481 788 l 321 788 l 321 847 z "},"ġ":{"ha":829,"x_min":61,"x_max":740,"o":"m 343 -282 q 169 -224 239 -282 q 93 -69 100 -165 l 250 -69 q 280 -125 254 -104 q 343 -146 306 -146 l 465 -146 q 549 -106 518 -146 q 581 0 581 -67 l 581 79 q 509 25 551 46 q 426 4 467 4 l 329 4 q 135 78 210 4 q 61 274 61 153 l 61 422 q 96 569 61 506 q 194 669 131 633 q 339 704 257 704 l 425 704 q 518 681 472 704 q 590 621 564 658 l 590 693 l 740 693 l 740 0 q 666 -206 740 -129 q 465 -282 592 -282 l 343 -282 m 435 140 q 535 188 494 140 q 581 310 575 235 l 581 431 q 538 528 575 490 q 447 567 500 567 l 351 567 q 257 524 293 567 q 221 413 221 482 l 221 283 q 253 180 221 219 q 339 140 286 140 l 435 140 m 403 788 q 329 815 357 788 q 301 888 301 843 q 329 962 301 933 q 403 990 357 990 q 476 962 449 990 q 504 888 504 933 q 476 815 504 843 q 403 788 449 788 z "},"ḡ":{"ha":829,"x_min":61,"x_max":740,"o":"m 343 -282 q 169 -224 239 -282 q 93 -69 100 -165 l 250 -69 q 280 -125 254 -104 q 343 -146 306 -146 l 465 -146 q 549 -106 518 -146 q 581 0 581 -67 l 581 79 q 509 25 551 46 q 426 4 467 4 l 329 4 q 135 78 210 4 q 61 274 61 153 l 61 422 q 96 569 61 506 q 194 669 131 633 q 339 704 257 704 l 425 704 q 518 681 472 704 q 590 621 564 658 l 590 693 l 740 693 l 740 0 q 666 -206 740 -129 q 465 -282 592 -282 l 343 -282 m 435 140 q 535 188 494 140 q 581 310 575 235 l 581 431 q 538 528 575 490 q 447 567 500 567 l 351 567 q 257 524 293 567 q 221 413 221 482 l 221 283 q 253 180 221 219 q 339 140 286 140 l 435 140 m 196 935 l 610 935 l 610 813 l 196 813 l 196 935 z "},"h":{"ha":824,"x_min":89,"x_max":743,"o":"m 89 972 l 249 972 l 249 615 q 327 680 281 656 q 418 704 374 704 l 507 704 q 678 636 614 704 q 743 457 743 568 l 743 0 l 583 0 l 583 453 q 558 534 583 503 q 490 565 532 565 l 401 565 q 304 525 347 565 q 249 419 261 485 l 249 0 l 89 0 l 89 972 z "},"ħ":{"ha":865,"x_min":19,"x_max":785,"o":"m 549 704 q 720 636 656 704 q 785 457 785 568 l 785 0 l 625 0 l 625 453 q 599 534 625 503 q 532 565 574 565 l 443 565 q 346 525 389 565 q 290 419 303 485 l 290 0 l 131 0 l 131 775 l 19 775 l 19 888 l 131 888 l 131 972 l 290 972 l 290 888 l 479 888 l 479 775 l 290 775 l 290 615 q 369 680 322 656 q 460 704 415 704 l 549 704 z "},"ḫ":{"ha":824,"x_min":89,"x_max":743,"o":"m 89 972 l 249 972 l 249 615 q 327 680 281 656 q 418 704 374 704 l 507 704 q 678 636 614 704 q 743 457 743 568 l 743 0 l 583 0 l 583 453 q 558 534 583 503 q 490 565 532 565 l 401 565 q 304 525 347 565 q 249 419 261 485 l 249 0 l 89 0 l 89 972 m 408 -311 q 247 -256 308 -311 q 186 -111 186 -201 l 186 -89 l 311 -89 l 311 -111 q 338 -179 311 -154 q 408 -204 364 -204 l 425 -204 q 497 -179 469 -204 q 524 -111 524 -154 l 524 -89 l 647 -89 l 647 -111 q 586 -256 647 -201 q 425 -311 525 -311 l 408 -311 z "},"ĥ":{"ha":824,"x_min":89,"x_max":743,"o":"m 89 972 l 249 972 l 249 615 q 327 680 281 656 q 418 704 374 704 l 507 704 q 678 636 614 704 q 743 457 743 568 l 743 0 l 583 0 l 583 453 q 558 534 583 503 q 490 565 532 565 l 401 565 q 304 525 347 565 q 249 419 261 485 l 249 0 l 89 0 l 89 972 m 361 1321 l 468 1321 l 667 1074 l 522 1074 l 415 1215 l 307 1074 l 164 1074 l 361 1321 z "},"ḥ":{"ha":824,"x_min":89,"x_max":743,"o":"m 89 972 l 249 972 l 249 615 q 327 680 281 656 q 418 704 374 704 l 507 704 q 678 636 614 704 q 743 457 743 568 l 743 0 l 583 0 l 583 453 q 558 534 583 503 q 490 565 532 565 l 401 565 q 304 525 347 565 q 249 419 261 485 l 249 0 l 89 0 l 89 972 m 417 -293 q 343 -265 371 -293 q 315 -192 315 -237 q 343 -118 315 -146 q 417 -90 371 -90 q 490 -118 463 -90 q 518 -192 518 -146 q 490 -265 518 -237 q 417 -293 463 -293 z "},"i":{"ha":388,"x_min":89,"x_max":299,"o":"m 193 771 q 117 799 146 771 q 89 872 89 828 q 117 945 89 917 q 193 974 146 974 q 269 945 240 974 q 299 872 299 917 q 269 799 299 828 q 193 771 240 771 m 114 693 l 274 693 l 274 0 l 114 0 l 114 693 z "},"ı":{"ha":354,"x_min":97,"x_max":257,"o":"m 97 693 l 257 693 l 257 0 l 97 0 l 97 693 z "},"í":{"ha":354,"x_min":97,"x_max":403,"o":"m 97 693 l 257 693 l 257 0 l 97 0 l 97 693 m 226 1046 l 403 1046 l 249 808 l 97 808 l 226 1046 z "},"ĭ":{"ha":354,"x_min":-54,"x_max":407,"o":"m 97 693 l 257 693 l 257 0 l 97 0 l 97 693 m 168 783 q 7 838 68 783 q -54 983 -54 893 l -54 1006 l 71 1006 l 71 983 q 97 915 71 940 q 168 890 124 890 l 185 890 q 256 915 229 890 q 283 983 283 940 l 283 1006 l 407 1006 l 407 983 q 346 838 407 893 q 185 783 285 783 l 168 783 z "},"ǐ":{"ha":354,"x_min":-75,"x_max":428,"o":"m 97 693 l 257 693 l 257 0 l 97 0 l 97 693 m -75 1042 l 68 1042 l 176 900 l 283 1042 l 428 1042 l 229 794 l 122 794 l -75 1042 z "},"î":{"ha":354,"x_min":-75,"x_max":428,"o":"m 97 693 l 257 693 l 257 0 l 97 0 l 97 693 m 122 1042 l 229 1042 l 428 794 l 283 794 l 176 936 l 68 794 l -75 794 l 122 1042 z "},"ï":{"ha":354,"x_min":-74,"x_max":426,"o":"m 97 693 l 257 693 l 257 0 l 97 0 l 97 693 m 15 796 q -49 821 -25 796 q -74 885 -74 846 q -49 949 -74 925 q 15 974 -25 974 q 79 949 54 974 q 104 885 104 925 q 79 821 104 846 q 15 796 54 796 m 338 796 q 274 821 299 796 q 249 885 249 846 q 274 949 249 925 q 338 974 299 974 q 402 949 378 974 q 426 885 426 925 q 402 821 426 846 q 338 796 378 796 z "},"ị":{"ha":388,"x_min":89,"x_max":299,"o":"m 193 771 q 117 799 146 771 q 89 872 89 828 q 117 945 89 917 q 193 974 146 974 q 269 945 240 974 q 299 872 299 917 q 269 799 299 828 q 193 771 240 771 m 114 693 l 274 693 l 274 0 l 114 0 l 114 693 m 193 -293 q 119 -265 147 -293 q 92 -192 92 -237 q 119 -118 92 -146 q 193 -90 147 -90 q 267 -118 239 -90 q 294 -192 294 -146 q 267 -265 294 -237 q 193 -293 239 -293 z "},"ì":{"ha":354,"x_min":-50,"x_max":257,"o":"m 97 693 l 257 693 l 257 0 l 97 0 l 97 693 m -50 1046 l 126 1046 l 256 808 l 104 808 l -50 1046 z "},"ỉ":{"ha":354,"x_min":0,"x_max":356,"o":"m 97 693 l 257 693 l 257 0 l 97 0 l 97 693 m 110 807 q 128 854 110 836 q 182 892 147 872 q 225 922 211 910 q 239 953 239 935 l 239 968 q 227 1000 239 989 q 193 1011 215 1011 l 165 1011 q 113 956 113 1011 l 0 956 q 42 1073 0 1033 q 165 1113 83 1113 l 193 1113 q 314 1076 272 1113 q 356 968 356 1039 l 356 953 q 336 892 356 914 q 281 846 317 869 q 248 822 258 832 q 238 797 238 811 l 238 779 l 110 779 l 110 807 z "},"ĳ":{"ha":776,"x_min":89,"x_max":689,"o":"m 193 771 q 117 799 146 771 q 89 872 89 828 q 117 945 89 917 q 193 974 146 974 q 269 945 240 974 q 299 872 299 917 q 269 799 299 828 q 193 771 240 771 m 114 693 l 274 693 l 274 0 l 114 0 l 114 693 m 583 771 q 508 799 536 771 q 479 872 479 828 q 508 945 479 917 q 583 974 536 974 q 660 945 631 974 q 689 872 689 917 q 660 799 689 828 q 583 771 631 771 m 321 -139 l 394 -139 q 478 -105 451 -139 q 504 6 504 -71 l 504 693 l 664 693 l 664 13 q 599 -207 664 -137 q 394 -276 535 -276 l 321 -276 l 321 -139 z "},"ī":{"ha":354,"x_min":-31,"x_max":383,"o":"m 97 693 l 257 693 l 257 0 l 97 0 l 97 693 m -31 935 l 383 935 l 383 813 l -31 813 l -31 935 z "},"į":{"ha":388,"x_min":46,"x_max":344,"o":"m 193 771 q 117 799 146 771 q 89 872 89 828 q 117 945 89 917 q 193 974 146 974 q 269 945 240 974 q 299 872 299 917 q 269 799 299 828 q 193 771 240 771 m 114 693 l 274 693 l 274 0 l 114 0 l 114 693 m 217 -311 q 92 -273 139 -311 q 46 -171 46 -235 l 46 -153 q 72 -66 46 -108 q 139 0 97 -24 l 272 0 q 203 -60 229 -24 q 176 -133 176 -97 l 176 -151 q 194 -190 176 -175 q 240 -204 211 -204 l 260 -204 q 304 -197 281 -204 q 344 -176 328 -189 l 344 -281 q 296 -303 326 -294 q 235 -311 265 -311 l 217 -311 z "},"ĩ":{"ha":354,"x_min":-74,"x_max":425,"o":"m 97 693 l 257 693 l 257 0 l 97 0 l 97 693 m 264 783 q 208 798 232 783 q 154 838 183 813 q 124 863 136 854 q 99 871 111 871 l 89 871 q 58 851 69 871 q 44 799 46 831 l -74 799 q -31 932 -74 881 q 82 983 13 983 l 93 983 q 151 968 126 983 q 207 926 176 953 q 235 903 224 911 q 256 896 246 896 l 267 896 q 295 915 283 896 q 308 968 307 935 l 425 968 q 383 834 425 885 q 274 783 342 783 l 264 783 z "},"j":{"ha":401,"x_min":-56,"x_max":313,"o":"m 207 771 q 131 799 160 771 q 103 872 103 828 q 131 945 103 917 q 207 974 160 974 q 283 945 254 974 q 313 872 313 917 q 283 799 313 828 q 207 771 254 771 m -56 -139 l 18 -139 q 101 -105 75 -139 q 128 6 128 -71 l 128 693 l 288 693 l 288 13 q 223 -207 288 -137 q 18 -276 158 -276 l -56 -276 l -56 -139 z "},"ȷ":{"ha":385,"x_min":-56,"x_max":288,"o":"m -56 -139 l 22 -139 q 103 -106 79 -139 q 128 6 128 -72 l 128 694 l 288 694 l 288 13 q 226 -210 288 -143 q 22 -276 165 -276 l -56 -276 l -56 -139 z "},"ĵ":{"ha":385,"x_min":-56,"x_max":458,"o":"m -56 -139 l 22 -139 q 103 -106 79 -139 q 128 6 128 -72 l 128 694 l 288 694 l 288 13 q 226 -210 288 -143 q 22 -276 165 -276 l -56 -276 l -56 -139 m 153 1042 l 260 1042 l 458 794 l 314 794 l 207 936 l 99 794 l -44 794 l 153 1042 z "},"k":{"ha":750,"x_min":89,"x_max":747,"o":"m 564 0 l 329 294 l 249 214 l 249 0 l 89 0 l 89 972 l 249 972 l 249 396 l 544 693 l 732 693 l 433 397 l 747 0 l 564 0 z "},"ķ":{"ha":750,"x_min":89,"x_max":747,"o":"m 564 0 l 329 294 l 249 214 l 249 0 l 89 0 l 89 972 l 249 972 l 249 396 l 544 693 l 732 693 l 433 397 l 747 0 l 564 0 m 206 -326 l 240 -296 q 317 -143 317 -233 l 317 -92 l 475 -92 l 475 -143 q 444 -298 475 -232 q 347 -412 413 -364 l 307 -443 l 206 -326 z "},"ĸ":{"ha":776,"x_min":89,"x_max":772,"o":"m 583 0 l 340 286 l 249 196 l 249 0 l 89 0 l 89 693 l 249 693 l 249 378 l 568 693 l 756 693 l 444 389 l 772 0 l 583 0 z "},"l":{"ha":399,"x_min":89,"x_max":388,"o":"m 313 0 q 142 49 196 0 q 89 206 89 99 l 89 972 l 249 972 l 249 213 q 265 155 249 172 q 321 138 282 138 l 388 138 l 388 0 l 313 0 z "},"ĺ":{"ha":399,"x_min":89,"x_max":397,"o":"m 313 0 q 142 49 196 0 q 89 206 89 99 l 89 972 l 249 972 l 249 213 q 265 155 249 172 q 321 138 282 138 l 388 138 l 388 0 l 313 0 m 221 1311 l 397 1311 l 243 1074 l 92 1074 l 221 1311 z "},"ľ":{"ha":631,"x_min":89,"x_max":625,"o":"m 313 0 q 142 49 196 0 q 89 206 89 99 l 89 972 l 249 972 l 249 213 q 265 155 249 172 q 321 138 282 138 l 388 138 l 388 0 l 313 0 m 356 729 l 390 758 q 467 913 467 821 l 467 972 l 625 972 l 625 913 q 594 758 625 824 q 497 642 563 692 l 457 611 l 356 729 z "},"ļ":{"ha":399,"x_min":44,"x_max":388,"o":"m 313 0 q 142 49 196 0 q 89 206 89 99 l 89 972 l 249 972 l 249 213 q 265 155 249 172 q 321 138 282 138 l 388 138 l 388 0 l 313 0 m 44 -326 l 79 -296 q 156 -143 156 -233 l 156 -92 l 314 -92 l 314 -143 q 283 -298 314 -232 q 186 -412 251 -364 l 146 -443 l 44 -326 z "},"ŀ":{"ha":574,"x_min":89,"x_max":575,"o":"m 313 0 q 142 49 196 0 q 89 206 89 99 l 89 972 l 249 972 l 249 213 q 265 155 249 172 q 321 138 282 138 l 388 138 l 388 0 l 313 0 z "},"ḷ":{"ha":399,"x_min":89,"x_max":388,"o":"m 313 0 q 142 49 196 0 q 89 206 89 99 l 89 972 l 249 972 l 249 213 q 265 155 249 172 q 321 138 282 138 l 388 138 l 388 0 l 313 0 m 233 -293 q 160 -265 188 -293 q 132 -192 132 -237 q 160 -118 132 -146 q 233 -90 188 -90 q 307 -118 279 -90 q 335 -192 335 -146 q 307 -265 335 -237 q 233 -293 279 -293 z "},"ḹ":{"ha":399,"x_min":-39,"x_max":388,"o":"m 313 0 q 142 49 196 0 q 89 206 89 99 l 89 972 l 249 972 l 249 213 q 265 155 249 172 q 321 138 282 138 l 388 138 l 388 0 l 313 0 m 233 -293 q 160 -265 188 -293 q 132 -192 132 -237 q 160 -118 132 -146 q 233 -90 188 -90 q 307 -118 279 -90 q 335 -192 335 -146 q 307 -265 335 -237 q 233 -293 279 -293 m -39 1214 l 375 1214 l 375 1092 l -39 1092 l -39 1214 z "},"ḻ":{"ha":399,"x_min":26,"x_max":440,"o":"m 313 0 q 142 49 196 0 q 89 206 89 99 l 89 972 l 249 972 l 249 213 q 265 155 249 172 q 321 138 282 138 l 388 138 l 388 0 l 313 0 m 26 -110 l 440 -110 l 440 -235 l 26 -235 l 26 -110 z "},"ł":{"ha":447,"x_min":14,"x_max":436,"o":"m 436 138 l 436 0 l 361 0 q 191 49 244 0 q 138 206 138 99 l 138 344 l 14 272 l 14 426 l 138 499 l 138 972 l 297 972 l 297 592 l 426 667 l 426 513 l 297 438 l 297 213 q 314 155 297 172 q 369 138 331 138 l 436 138 z "},"m":{"ha":1172,"x_min":89,"x_max":1092,"o":"m 869 704 q 1031 639 971 704 q 1092 464 1092 574 l 1092 0 l 932 0 l 932 465 q 911 538 932 511 q 856 565 890 565 l 789 565 q 711 533 743 565 q 669 444 679 500 l 669 0 l 511 0 l 511 461 q 490 537 511 508 q 435 565 469 565 l 372 565 q 292 524 326 565 q 249 418 258 483 l 249 0 l 89 0 l 89 693 l 238 693 l 238 606 q 304 678 264 651 q 386 704 344 704 l 465 704 q 560 677 518 704 q 625 601 601 650 q 699 677 656 650 q 790 704 742 704 l 869 704 z "},"ṃ":{"ha":1172,"x_min":89,"x_max":1092,"o":"m 869 704 q 1031 639 971 704 q 1092 464 1092 574 l 1092 0 l 932 0 l 932 465 q 911 538 932 511 q 856 565 890 565 l 789 565 q 711 533 743 565 q 669 444 679 500 l 669 0 l 511 0 l 511 461 q 490 537 511 508 q 435 565 469 565 l 372 565 q 292 524 326 565 q 249 418 258 483 l 249 0 l 89 0 l 89 693 l 238 693 l 238 606 q 304 678 264 651 q 386 704 344 704 l 465 704 q 560 677 518 704 q 625 601 601 650 q 699 677 656 650 q 790 704 742 704 l 869 704 m 590 -293 q 517 -265 544 -293 q 489 -192 489 -237 q 517 -118 489 -146 q 590 -90 544 -90 q 664 -118 636 -90 q 692 -192 692 -146 q 664 -265 692 -237 q 590 -293 636 -293 z "},"n":{"ha":821,"x_min":89,"x_max":740,"o":"m 89 693 l 238 693 l 238 603 q 318 676 268 649 q 418 704 368 704 l 504 704 q 676 636 611 704 q 740 457 740 568 l 740 0 l 581 0 l 581 453 q 555 534 581 503 q 488 565 529 565 l 401 565 q 304 524 347 565 q 249 419 261 483 l 249 0 l 89 0 l 89 693 z "},"ń":{"ha":821,"x_min":89,"x_max":740,"o":"m 89 693 l 238 693 l 238 603 q 318 676 268 649 q 418 704 368 704 l 504 704 q 676 636 611 704 q 740 457 740 568 l 740 0 l 581 0 l 581 453 q 555 534 581 503 q 488 565 529 565 l 401 565 q 304 524 347 565 q 249 419 261 483 l 249 0 l 89 0 l 89 693 m 474 1032 l 650 1032 l 496 794 l 344 794 l 474 1032 z "},"ŉ":{"ha":1047,"x_min":6,"x_max":968,"o":"m 317 693 l 465 693 l 465 603 q 546 676 496 649 q 646 704 596 704 l 732 704 q 903 636 839 704 q 968 457 968 568 l 968 0 l 808 0 l 808 453 q 783 534 808 503 q 715 565 757 565 l 629 565 q 532 524 575 565 q 476 419 489 483 l 476 0 l 317 0 l 317 693 m 6 729 l 40 758 q 117 913 117 821 l 117 972 l 275 972 l 275 913 q 244 758 275 824 q 147 642 213 692 l 107 611 l 6 729 z "},"ň":{"ha":821,"x_min":89,"x_max":740,"o":"m 89 693 l 238 693 l 238 603 q 318 676 268 649 q 418 704 368 704 l 504 704 q 676 636 611 704 q 740 457 740 568 l 740 0 l 581 0 l 581 453 q 555 534 581 503 q 488 565 529 565 l 401 565 q 304 524 347 565 q 249 419 261 483 l 249 0 l 89 0 l 89 693 m 169 1042 l 313 1042 l 421 900 l 528 1042 l 672 1042 l 474 794 l 367 794 l 169 1042 z "},"ņ":{"ha":821,"x_min":89,"x_max":740,"o":"m 89 693 l 238 693 l 238 603 q 318 676 268 649 q 418 704 368 704 l 504 704 q 676 636 611 704 q 740 457 740 568 l 740 0 l 581 0 l 581 453 q 555 534 581 503 q 488 565 529 565 l 401 565 q 304 524 347 565 q 249 419 261 483 l 249 0 l 89 0 l 89 693 m 225 -326 l 260 -296 q 336 -143 336 -233 l 336 -92 l 494 -92 l 494 -143 q 463 -298 494 -232 q 367 -412 432 -364 l 326 -443 l 225 -326 z "},"ṅ":{"ha":821,"x_min":89,"x_max":740,"o":"m 89 693 l 238 693 l 238 603 q 318 676 268 649 q 418 704 368 704 l 504 704 q 676 636 611 704 q 740 457 740 568 l 740 0 l 581 0 l 581 453 q 555 534 581 503 q 488 565 529 565 l 401 565 q 304 524 347 565 q 249 419 261 483 l 249 0 l 89 0 l 89 693 m 421 788 q 347 815 375 788 q 319 888 319 843 q 347 962 319 933 q 421 990 375 990 q 494 962 467 990 q 522 888 522 933 q 494 815 522 843 q 421 788 467 788 z "},"ṇ":{"ha":821,"x_min":89,"x_max":740,"o":"m 89 693 l 238 693 l 238 603 q 318 676 268 649 q 418 704 368 704 l 504 704 q 676 636 611 704 q 740 457 740 568 l 740 0 l 581 0 l 581 453 q 555 534 581 503 q 488 565 529 565 l 401 565 q 304 524 347 565 q 249 419 261 483 l 249 0 l 89 0 l 89 693 m 413 -293 q 339 -265 367 -293 q 311 -192 311 -237 q 339 -118 311 -146 q 413 -90 367 -90 q 486 -118 458 -90 q 514 -192 514 -146 q 486 -265 514 -237 q 413 -293 458 -293 z "},"ŋ":{"ha":821,"x_min":89,"x_max":740,"o":"m 397 -139 l 475 -139 q 556 -106 532 -139 q 581 6 581 -72 l 581 453 q 555 534 581 503 q 488 565 529 565 l 401 565 q 304 524 347 565 q 249 419 261 483 l 249 0 l 89 0 l 89 693 l 238 693 l 238 603 q 318 676 268 649 q 418 704 368 704 l 504 704 q 676 636 611 704 q 740 457 740 568 l 740 3 q 677 -210 740 -143 q 475 -276 614 -276 l 397 -276 l 397 -139 z "},"ṉ":{"ha":821,"x_min":89,"x_max":740,"o":"m 89 693 l 238 693 l 238 603 q 318 676 268 649 q 418 704 368 704 l 504 704 q 676 636 611 704 q 740 457 740 568 l 740 0 l 581 0 l 581 453 q 555 534 581 503 q 488 565 529 565 l 401 565 q 304 524 347 565 q 249 419 261 483 l 249 0 l 89 0 l 89 693 m 206 -110 l 619 -110 l 619 -235 l 206 -235 l 206 -110 z "},"ñ":{"ha":821,"x_min":89,"x_max":740,"o":"m 89 693 l 238 693 l 238 603 q 318 676 268 649 q 418 704 368 704 l 504 704 q 676 636 611 704 q 740 457 740 568 l 740 0 l 581 0 l 581 453 q 555 534 581 503 q 488 565 529 565 l 401 565 q 304 524 347 565 q 249 419 261 483 l 249 0 l 89 0 l 89 693 m 508 783 q 452 798 476 783 q 399 838 428 813 q 368 863 381 854 q 343 871 356 871 l 333 871 q 302 851 314 871 q 289 799 290 831 l 171 799 q 214 932 171 881 q 326 983 257 983 l 338 983 q 396 968 371 983 q 451 926 421 953 q 479 903 468 911 q 500 896 490 896 l 511 896 q 540 915 528 896 q 553 968 551 935 l 669 968 q 628 834 669 885 q 518 783 586 783 l 508 783 z "},"o":{"ha":814,"x_min":61,"x_max":753,"o":"m 344 -11 q 139 63 217 -11 q 61 260 61 138 l 61 432 q 97 574 61 513 q 197 670 132 636 q 346 704 261 704 l 468 704 q 617 670 553 704 q 717 574 682 636 q 753 432 753 513 l 753 260 q 674 63 753 138 q 465 -11 596 -11 l 344 -11 m 464 126 q 558 166 522 126 q 593 269 593 206 l 593 424 q 558 527 593 488 q 465 567 524 567 l 349 567 q 256 527 290 567 q 221 424 221 488 l 221 269 q 256 166 221 206 q 346 126 290 126 l 464 126 z "},"ó":{"ha":814,"x_min":61,"x_max":753,"o":"m 344 -11 q 139 63 217 -11 q 61 260 61 138 l 61 432 q 97 574 61 513 q 197 670 132 636 q 346 704 261 704 l 468 704 q 617 670 553 704 q 717 574 682 636 q 753 432 753 513 l 753 260 q 674 63 753 138 q 465 -11 596 -11 l 344 -11 m 464 126 q 558 166 522 126 q 593 269 593 206 l 593 424 q 558 527 593 488 q 465 567 524 567 l 349 567 q 256 527 290 567 q 221 424 221 488 l 221 269 q 256 166 221 206 q 346 126 290 126 l 464 126 m 460 1032 l 636 1032 l 482 794 l 331 794 l 460 1032 z "},"ŏ":{"ha":814,"x_min":61,"x_max":753,"o":"m 344 -11 q 139 63 217 -11 q 61 260 61 138 l 61 432 q 97 574 61 513 q 197 670 132 636 q 346 704 261 704 l 468 704 q 617 670 553 704 q 717 574 682 636 q 753 432 753 513 l 753 260 q 674 63 753 138 q 465 -11 596 -11 l 344 -11 m 464 126 q 558 166 522 126 q 593 269 593 206 l 593 424 q 558 527 593 488 q 465 567 524 567 l 349 567 q 256 527 290 567 q 221 424 221 488 l 221 269 q 256 166 221 206 q 346 126 290 126 l 464 126 m 399 783 q 238 838 299 783 q 176 983 176 893 l 176 1006 l 301 1006 l 301 983 q 328 915 301 940 q 399 890 354 890 l 415 890 q 487 915 460 890 q 514 983 514 940 l 514 1006 l 638 1006 l 638 983 q 576 838 638 893 q 415 783 515 783 l 399 783 z "},"ǒ":{"ha":814,"x_min":61,"x_max":753,"o":"m 344 -11 q 139 63 217 -11 q 61 260 61 138 l 61 432 q 97 574 61 513 q 197 670 132 636 q 346 704 261 704 l 468 704 q 617 670 553 704 q 717 574 682 636 q 753 432 753 513 l 753 260 q 674 63 753 138 q 465 -11 596 -11 l 344 -11 m 464 126 q 558 166 522 126 q 593 269 593 206 l 593 424 q 558 527 593 488 q 465 567 524 567 l 349 567 q 256 527 290 567 q 221 424 221 488 l 221 269 q 256 166 221 206 q 346 126 290 126 l 464 126 m 156 1042 l 299 1042 l 407 900 l 514 1042 l 658 1042 l 460 794 l 353 794 l 156 1042 z "},"ô":{"ha":814,"x_min":61,"x_max":753,"o":"m 344 -11 q 139 63 217 -11 q 61 260 61 138 l 61 432 q 97 574 61 513 q 197 670 132 636 q 346 704 261 704 l 468 704 q 617 670 553 704 q 717 574 682 636 q 753 432 753 513 l 753 260 q 674 63 753 138 q 465 -11 596 -11 l 344 -11 m 464 126 q 558 166 522 126 q 593 269 593 206 l 593 424 q 558 527 593 488 q 465 567 524 567 l 349 567 q 256 527 290 567 q 221 424 221 488 l 221 269 q 256 166 221 206 q 346 126 290 126 l 464 126 m 353 1042 l 460 1042 l 658 794 l 514 794 l 407 936 l 299 794 l 156 794 l 353 1042 z "},"ố":{"ha":814,"x_min":61,"x_max":814,"o":"m 344 -11 q 139 63 217 -11 q 61 260 61 138 l 61 432 q 97 574 61 513 q 197 670 132 636 q 346 704 261 704 l 468 704 q 617 670 553 704 q 717 574 682 636 q 753 432 753 513 l 753 260 q 674 63 753 138 q 465 -11 596 -11 l 344 -11 m 464 126 q 558 166 522 126 q 593 269 593 206 l 593 424 q 558 527 593 488 q 465 567 524 567 l 349 567 q 256 527 290 567 q 221 424 221 488 l 221 269 q 256 166 221 206 q 346 126 290 126 l 464 126 m 664 1213 l 814 1213 l 686 1021 l 558 1021 l 664 1213 m 353 1042 l 460 1042 l 658 794 l 514 794 l 407 936 l 299 794 l 156 794 l 353 1042 z "},"ộ":{"ha":814,"x_min":61,"x_max":753,"o":"m 344 -11 q 139 63 217 -11 q 61 260 61 138 l 61 432 q 97 574 61 513 q 197 670 132 636 q 346 704 261 704 l 468 704 q 617 670 553 704 q 717 574 682 636 q 753 432 753 513 l 753 260 q 674 63 753 138 q 465 -11 596 -11 l 344 -11 m 464 126 q 558 166 522 126 q 593 269 593 206 l 593 424 q 558 527 593 488 q 465 567 524 567 l 349 567 q 256 527 290 567 q 221 424 221 488 l 221 269 q 256 166 221 206 q 346 126 290 126 l 464 126 m 407 -293 q 333 -265 361 -293 q 306 -192 306 -237 q 333 -118 306 -146 q 407 -90 361 -90 q 481 -118 453 -90 q 508 -192 508 -146 q 481 -265 508 -237 q 407 -293 453 -293 m 353 1042 l 460 1042 l 658 794 l 514 794 l 407 936 l 299 794 l 156 794 l 353 1042 z "},"ồ":{"ha":814,"x_min":61,"x_max":753,"o":"m 344 -11 q 139 63 217 -11 q 61 260 61 138 l 61 432 q 97 574 61 513 q 197 670 132 636 q 346 704 261 704 l 468 704 q 617 670 553 704 q 717 574 682 636 q 753 432 753 513 l 753 260 q 674 63 753 138 q 465 -11 596 -11 l 344 -11 m 464 126 q 558 166 522 126 q 593 269 593 206 l 593 424 q 558 527 593 488 q 465 567 524 567 l 349 567 q 256 527 290 567 q 221 424 221 488 l 221 269 q 256 166 221 206 q 346 126 290 126 l 464 126 m 483 1213 l 633 1213 l 739 1021 l 611 1021 l 483 1213 m 353 1042 l 460 1042 l 658 794 l 514 794 l 407 936 l 299 794 l 156 794 l 353 1042 z "},"ổ":{"ha":814,"x_min":61,"x_max":801,"o":"m 344 -11 q 139 63 217 -11 q 61 260 61 138 l 61 432 q 97 574 61 513 q 197 670 132 636 q 346 704 261 704 l 468 704 q 617 670 553 704 q 717 574 682 636 q 753 432 753 513 l 753 260 q 674 63 753 138 q 465 -11 596 -11 l 344 -11 m 464 126 q 558 166 522 126 q 593 269 593 206 l 593 424 q 558 527 593 488 q 465 567 524 567 l 349 567 q 256 527 290 567 q 221 424 221 488 l 221 269 q 256 166 221 206 q 346 126 290 126 l 464 126 m 588 1008 q 603 1047 588 1032 q 647 1079 618 1061 q 685 1106 674 1096 q 696 1131 696 1115 l 696 1147 q 660 1181 696 1181 l 636 1181 q 594 1136 594 1181 l 494 1136 q 636 1271 494 1271 l 660 1271 q 801 1147 801 1271 l 801 1131 q 784 1078 801 1097 q 736 1040 767 1060 q 707 1017 715 1025 q 699 999 699 1010 l 699 986 l 588 986 l 588 1008 m 353 1042 l 460 1042 l 658 794 l 514 794 l 407 936 l 299 794 l 156 794 l 353 1042 z "},"ỗ":{"ha":814,"x_min":61,"x_max":753,"o":"m 344 -11 q 139 63 217 -11 q 61 260 61 138 l 61 432 q 97 574 61 513 q 197 670 132 636 q 346 704 261 704 l 468 704 q 617 670 553 704 q 717 574 682 636 q 753 432 753 513 l 753 260 q 674 63 753 138 q 465 -11 596 -11 l 344 -11 m 464 126 q 558 166 522 126 q 593 269 593 206 l 593 424 q 558 527 593 488 q 465 567 524 567 l 349 567 q 256 527 290 567 q 221 424 221 488 l 221 269 q 256 166 221 206 q 346 126 290 126 l 464 126 m 490 1088 q 441 1099 463 1088 q 393 1131 419 1110 q 378 1142 390 1133 q 357 1154 367 1150 q 339 1158 347 1158 l 331 1158 q 301 1142 313 1158 q 289 1100 289 1126 l 183 1100 q 222 1214 183 1171 q 324 1257 261 1257 l 333 1257 q 383 1246 361 1257 q 436 1213 404 1235 q 462 1194 449 1203 q 485 1186 475 1186 l 493 1186 q 520 1201 510 1186 q 531 1243 531 1217 l 638 1243 q 599 1130 636 1172 q 500 1088 561 1088 l 490 1088 m 353 1042 l 460 1042 l 658 794 l 514 794 l 407 936 l 299 794 l 156 794 l 353 1042 z "},"ö":{"ha":814,"x_min":61,"x_max":753,"o":"m 344 -11 q 139 63 217 -11 q 61 260 61 138 l 61 432 q 97 574 61 513 q 197 670 132 636 q 346 704 261 704 l 468 704 q 617 670 553 704 q 717 574 682 636 q 753 432 753 513 l 753 260 q 674 63 753 138 q 465 -11 596 -11 l 344 -11 m 464 126 q 558 166 522 126 q 593 269 593 206 l 593 424 q 558 527 593 488 q 465 567 524 567 l 349 567 q 256 527 290 567 q 221 424 221 488 l 221 269 q 256 166 221 206 q 346 126 290 126 l 464 126 m 246 796 q 181 821 206 796 q 157 885 157 846 q 181 949 157 925 q 246 974 206 974 q 310 949 285 974 q 335 885 335 925 q 310 821 335 846 q 246 796 285 796 m 568 796 q 504 821 529 796 q 479 885 479 846 q 504 949 479 925 q 568 974 529 974 q 633 949 608 974 q 657 885 657 925 q 633 821 657 846 q 568 796 608 796 z "},"ọ":{"ha":814,"x_min":61,"x_max":753,"o":"m 344 -11 q 139 63 217 -11 q 61 260 61 138 l 61 432 q 97 574 61 513 q 197 670 132 636 q 346 704 261 704 l 468 704 q 617 670 553 704 q 717 574 682 636 q 753 432 753 513 l 753 260 q 674 63 753 138 q 465 -11 596 -11 l 344 -11 m 464 126 q 558 166 522 126 q 593 269 593 206 l 593 424 q 558 527 593 488 q 465 567 524 567 l 349 567 q 256 527 290 567 q 221 424 221 488 l 221 269 q 256 166 221 206 q 346 126 290 126 l 464 126 m 407 -293 q 333 -265 361 -293 q 306 -192 306 -237 q 333 -118 306 -146 q 407 -90 361 -90 q 481 -118 453 -90 q 508 -192 508 -146 q 481 -265 508 -237 q 407 -293 453 -293 z "},"ò":{"ha":814,"x_min":61,"x_max":753,"o":"m 344 -11 q 139 63 217 -11 q 61 260 61 138 l 61 432 q 97 574 61 513 q 197 670 132 636 q 346 704 261 704 l 468 704 q 617 670 553 704 q 717 574 682 636 q 753 432 753 513 l 753 260 q 674 63 753 138 q 465 -11 596 -11 l 344 -11 m 464 126 q 558 166 522 126 q 593 269 593 206 l 593 424 q 558 527 593 488 q 465 567 524 567 l 349 567 q 256 527 290 567 q 221 424 221 488 l 221 269 q 256 166 221 206 q 346 126 290 126 l 464 126 m 176 1032 l 353 1032 l 482 794 l 331 794 l 176 1032 z "},"ỏ":{"ha":814,"x_min":61,"x_max":753,"o":"m 344 -11 q 139 63 217 -11 q 61 260 61 138 l 61 432 q 97 574 61 513 q 197 670 132 636 q 346 704 261 704 l 468 704 q 617 670 553 704 q 717 574 682 636 q 753 432 753 513 l 753 260 q 674 63 753 138 q 465 -11 596 -11 l 344 -11 m 464 126 q 558 166 522 126 q 593 269 593 206 l 593 424 q 558 527 593 488 q 465 567 524 567 l 349 567 q 256 527 290 567 q 221 424 221 488 l 221 269 q 256 166 221 206 q 346 126 290 126 l 464 126 m 338 807 q 356 854 338 836 q 410 892 375 872 q 453 922 439 910 q 467 953 467 935 l 467 968 q 455 1000 467 989 q 421 1011 443 1011 l 393 1011 q 340 956 340 1011 l 228 956 q 269 1073 228 1033 q 393 1113 311 1113 l 421 1113 q 542 1076 500 1113 q 583 968 583 1039 l 583 953 q 564 892 583 914 q 508 846 544 869 q 476 822 486 832 q 465 797 465 811 l 465 779 l 338 779 l 338 807 z "},"ơ":{"ha":965,"x_min":61,"x_max":961,"o":"m 961 700 l 961 650 q 906 463 961 532 q 753 385 851 393 l 753 260 q 674 63 753 138 q 465 -11 596 -11 l 344 -11 q 139 63 217 -11 q 61 260 61 138 l 61 432 q 97 574 61 513 q 197 670 132 636 q 346 704 261 704 l 468 704 q 644 654 571 704 q 742 518 717 604 q 794 560 775 526 q 813 650 813 594 l 813 700 l 961 700 m 593 424 q 558 527 593 488 q 465 567 524 567 l 349 567 q 256 527 290 567 q 221 424 221 488 l 221 269 q 256 166 221 206 q 346 126 290 126 l 464 126 q 558 166 522 126 q 593 269 593 206 l 593 424 z "},"ớ":{"ha":965,"x_min":61,"x_max":961,"o":"m 961 700 l 961 650 q 906 463 961 532 q 753 385 851 393 l 753 260 q 674 63 753 138 q 465 -11 596 -11 l 344 -11 q 139 63 217 -11 q 61 260 61 138 l 61 432 q 97 574 61 513 q 197 670 132 636 q 346 704 261 704 l 468 704 q 644 654 571 704 q 742 518 717 604 q 794 560 775 526 q 813 650 813 594 l 813 700 l 961 700 m 593 424 q 558 527 593 488 q 465 567 524 567 l 349 567 q 256 527 290 567 q 221 424 221 488 l 221 269 q 256 166 221 206 q 346 126 290 126 l 464 126 q 558 166 522 126 q 593 269 593 206 l 593 424 m 461 1032 l 638 1032 l 483 794 l 332 794 l 461 1032 z "},"ợ":{"ha":965,"x_min":61,"x_max":961,"o":"m 961 700 l 961 650 q 906 463 961 532 q 753 385 851 393 l 753 260 q 674 63 753 138 q 465 -11 596 -11 l 344 -11 q 139 63 217 -11 q 61 260 61 138 l 61 432 q 97 574 61 513 q 197 670 132 636 q 346 704 261 704 l 468 704 q 644 654 571 704 q 742 518 717 604 q 794 560 775 526 q 813 650 813 594 l 813 700 l 961 700 m 593 424 q 558 527 593 488 q 465 567 524 567 l 349 567 q 256 527 290 567 q 221 424 221 488 l 221 269 q 256 166 221 206 q 346 126 290 126 l 464 126 q 558 166 522 126 q 593 269 593 206 l 593 424 m 408 -293 q 335 -265 363 -293 q 307 -192 307 -237 q 335 -118 307 -146 q 408 -90 363 -90 q 482 -118 454 -90 q 510 -192 510 -146 q 482 -265 510 -237 q 408 -293 454 -293 z "},"ờ":{"ha":965,"x_min":61,"x_max":961,"o":"m 961 700 l 961 650 q 906 463 961 532 q 753 385 851 393 l 753 260 q 674 63 753 138 q 465 -11 596 -11 l 344 -11 q 139 63 217 -11 q 61 260 61 138 l 61 432 q 97 574 61 513 q 197 670 132 636 q 346 704 261 704 l 468 704 q 644 654 571 704 q 742 518 717 604 q 794 560 775 526 q 813 650 813 594 l 813 700 l 961 700 m 593 424 q 558 527 593 488 q 465 567 524 567 l 349 567 q 256 527 290 567 q 221 424 221 488 l 221 269 q 256 166 221 206 q 346 126 290 126 l 464 126 q 558 166 522 126 q 593 269 593 206 l 593 424 m 178 1032 l 354 1032 l 483 794 l 332 794 l 178 1032 z "},"ở":{"ha":965,"x_min":61,"x_max":961,"o":"m 961 700 l 961 650 q 906 463 961 532 q 753 385 851 393 l 753 260 q 674 63 753 138 q 465 -11 596 -11 l 344 -11 q 139 63 217 -11 q 61 260 61 138 l 61 432 q 97 574 61 513 q 197 670 132 636 q 346 704 261 704 l 468 704 q 644 654 571 704 q 742 518 717 604 q 794 560 775 526 q 813 650 813 594 l 813 700 l 961 700 m 593 424 q 558 527 593 488 q 465 567 524 567 l 349 567 q 256 527 290 567 q 221 424 221 488 l 221 269 q 256 166 221 206 q 346 126 290 126 l 464 126 q 558 166 522 126 q 593 269 593 206 l 593 424 m 339 807 q 358 854 339 836 q 411 892 376 872 q 454 922 440 910 q 468 953 468 935 l 468 968 q 456 1000 468 989 q 422 1011 444 1011 l 394 1011 q 342 956 342 1011 l 229 956 q 271 1073 229 1033 q 394 1113 313 1113 l 422 1113 q 543 1076 501 1113 q 585 968 585 1039 l 585 953 q 565 892 585 914 q 510 846 546 869 q 477 822 488 832 q 467 797 467 811 l 467 779 l 339 779 l 339 807 z "},"ỡ":{"ha":965,"x_min":61,"x_max":961,"o":"m 961 700 l 961 650 q 906 463 961 532 q 753 385 851 393 l 753 260 q 674 63 753 138 q 465 -11 596 -11 l 344 -11 q 139 63 217 -11 q 61 260 61 138 l 61 432 q 97 574 61 513 q 197 670 132 636 q 346 704 261 704 l 468 704 q 644 654 571 704 q 742 518 717 604 q 794 560 775 526 q 813 650 813 594 l 813 700 l 961 700 m 593 424 q 558 527 593 488 q 465 567 524 567 l 349 567 q 256 527 290 567 q 221 424 221 488 l 221 269 q 256 166 221 206 q 346 126 290 126 l 464 126 q 558 166 522 126 q 593 269 593 206 l 593 424 m 496 783 q 440 798 464 783 q 386 838 415 813 q 356 863 368 854 q 331 871 343 871 l 321 871 q 290 851 301 871 q 276 799 278 831 l 158 799 q 201 932 158 881 q 314 983 244 983 l 325 983 q 383 968 358 983 q 439 926 408 953 q 467 903 456 911 q 488 896 478 896 l 499 896 q 527 915 515 896 q 540 968 539 935 l 657 968 q 615 834 657 885 q 506 783 574 783 l 496 783 z "},"ő":{"ha":814,"x_min":61,"x_max":753,"o":"m 344 -11 q 139 63 217 -11 q 61 260 61 138 l 61 432 q 97 574 61 513 q 197 670 132 636 q 346 704 261 704 l 468 704 q 617 670 553 704 q 717 574 682 636 q 753 432 753 513 l 753 260 q 674 63 753 138 q 465 -11 596 -11 l 344 -11 m 464 126 q 558 166 522 126 q 593 269 593 206 l 593 424 q 558 527 593 488 q 465 567 524 567 l 349 567 q 256 527 290 567 q 221 424 221 488 l 221 269 q 256 166 221 206 q 346 126 290 126 l 464 126 m 331 1032 l 500 1032 l 346 794 l 203 794 l 331 1032 m 569 1032 l 739 1032 l 586 794 l 442 794 l 569 1032 z "},"ō":{"ha":814,"x_min":61,"x_max":753,"o":"m 344 -11 q 139 63 217 -11 q 61 260 61 138 l 61 432 q 97 574 61 513 q 197 670 132 636 q 346 704 261 704 l 468 704 q 617 670 553 704 q 717 574 682 636 q 753 432 753 513 l 753 260 q 674 63 753 138 q 465 -11 596 -11 l 344 -11 m 464 126 q 558 166 522 126 q 593 269 593 206 l 593 424 q 558 527 593 488 q 465 567 524 567 l 349 567 q 256 527 290 567 q 221 424 221 488 l 221 269 q 256 166 221 206 q 346 126 290 126 l 464 126 m 200 935 l 614 935 l 614 813 l 200 813 l 200 935 z "},"ø":{"ha":814,"x_min":58,"x_max":756,"o":"m 671 632 q 732 545 711 596 q 753 432 753 494 l 753 260 q 674 63 753 138 q 465 -11 596 -11 l 344 -11 q 233 7 282 -11 l 189 -58 l 58 -58 l 142 61 q 61 260 61 135 l 61 432 q 97 574 61 513 q 197 670 132 636 q 346 704 261 704 l 468 704 q 579 686 531 704 l 625 753 l 756 753 l 671 632 m 221 269 q 236 196 221 229 l 493 564 q 465 567 476 567 l 349 567 q 256 527 290 567 q 221 424 221 488 l 221 269 m 593 424 q 578 497 593 464 l 319 129 q 346 126 336 126 l 464 126 q 558 166 522 126 q 593 269 593 206 l 593 424 z "},"ǿ":{"ha":814,"x_min":58,"x_max":756,"o":"m 671 632 q 732 545 711 596 q 753 432 753 494 l 753 260 q 674 63 753 138 q 465 -11 596 -11 l 344 -11 q 233 7 282 -11 l 189 -58 l 58 -58 l 142 61 q 61 260 61 135 l 61 432 q 97 574 61 513 q 197 670 132 636 q 346 704 261 704 l 468 704 q 579 686 531 704 l 625 753 l 756 753 l 671 632 m 221 269 q 236 196 221 229 l 493 564 q 465 567 476 567 l 349 567 q 256 527 290 567 q 221 424 221 488 l 221 269 m 593 424 q 578 497 593 464 l 319 129 q 346 126 336 126 l 464 126 q 558 166 522 126 q 593 269 593 206 l 593 424 m 458 1032 l 635 1032 l 481 794 l 329 794 l 458 1032 z "},"õ":{"ha":814,"x_min":61,"x_max":753,"o":"m 344 -11 q 139 63 217 -11 q 61 260 61 138 l 61 432 q 97 574 61 513 q 197 670 132 636 q 346 704 261 704 l 468 704 q 617 670 553 704 q 717 574 682 636 q 753 432 753 513 l 753 260 q 674 63 753 138 q 465 -11 596 -11 l 344 -11 m 464 126 q 558 166 522 126 q 593 269 593 206 l 593 424 q 558 527 593 488 q 465 567 524 567 l 349 567 q 256 527 290 567 q 221 424 221 488 l 221 269 q 256 166 221 206 q 346 126 290 126 l 464 126 m 494 783 q 438 798 463 783 q 385 838 414 813 q 354 863 367 854 q 329 871 342 871 l 319 871 q 288 851 300 871 q 275 799 276 831 l 157 799 q 200 932 157 881 q 313 983 243 983 l 324 983 q 382 968 357 983 q 438 926 407 953 q 465 903 454 911 q 486 896 476 896 l 497 896 q 526 915 514 896 q 539 968 538 935 l 656 968 q 614 834 656 885 q 504 783 572 783 l 494 783 z "},"œ":{"ha":1319,"x_min":61,"x_max":1265,"o":"m 751 296 l 751 256 q 786 160 751 196 q 879 124 821 124 l 982 124 q 1072 151 1038 124 q 1106 222 1106 178 l 1263 222 q 1185 53 1263 117 q 979 -11 1107 -11 l 879 -11 q 668 79 740 -11 q 463 -11 596 -11 l 346 -11 q 197 23 261 -11 q 97 119 132 57 q 61 261 61 181 l 61 432 q 97 574 61 513 q 197 670 132 636 q 346 704 261 704 l 467 704 q 671 611 599 704 q 876 704 742 704 l 986 704 q 1189 629 1113 704 q 1265 431 1265 554 l 1265 296 l 751 296 m 751 415 l 1107 415 l 1107 433 q 1074 532 1107 494 q 986 569 1042 569 l 876 569 q 786 530 821 569 q 751 426 751 490 l 751 415 m 592 424 q 556 527 592 488 q 465 567 521 567 l 347 567 q 256 527 292 567 q 221 424 221 488 l 221 269 q 256 166 221 206 q 347 126 292 126 l 461 126 q 556 166 519 126 q 592 269 592 206 l 592 424 z "},"p":{"ha":826,"x_min":89,"x_max":765,"o":"m 89 693 l 238 693 l 238 611 q 313 678 267 653 q 404 704 360 704 l 496 704 q 691 631 617 704 q 765 439 765 558 l 765 278 q 692 68 765 147 q 496 -11 618 -11 l 403 -11 q 319 9 363 -11 q 249 63 276 29 l 249 -278 l 89 -278 l 89 693 m 479 126 q 572 171 536 126 q 607 288 607 215 l 607 429 q 572 528 607 490 q 481 567 538 567 l 392 567 q 305 530 344 567 q 249 435 265 493 l 249 274 q 295 167 256 208 q 390 126 335 126 l 479 126 z "},"þ":{"ha":826,"x_min":89,"x_max":765,"o":"m 89 972 l 249 972 l 249 622 q 319 681 276 658 q 404 704 361 704 l 496 704 q 691 631 617 704 q 765 439 765 558 l 765 276 q 732 126 765 192 q 638 24 699 60 q 496 -12 576 -12 l 403 -12 q 319 8 363 -12 q 249 61 276 28 l 249 -279 l 89 -279 l 89 972 m 479 126 q 572 170 536 126 q 607 286 607 214 l 607 429 q 572 528 607 490 q 481 567 538 567 l 392 567 q 305 530 344 567 q 249 435 265 493 l 249 272 q 294 167 256 207 q 390 126 333 126 l 479 126 z "},"q":{"ha":826,"x_min":61,"x_max":738,"o":"m 579 67 q 509 10 551 32 q 428 -11 467 -11 l 328 -11 q 135 63 208 -11 q 61 260 61 138 l 61 422 q 137 627 61 550 q 338 704 213 704 l 433 704 q 519 681 476 704 q 589 621 563 658 l 589 693 l 738 693 l 738 -279 l 579 -279 l 579 67 m 433 126 q 532 174 492 126 q 579 296 572 221 l 579 431 q 535 529 572 492 q 446 567 499 567 l 349 567 q 256 524 292 567 q 221 413 221 482 l 221 269 q 253 166 221 206 q 338 126 285 126 l 433 126 z "},"r":{"ha":519,"x_min":89,"x_max":508,"o":"m 89 693 l 238 693 l 238 599 q 317 669 265 642 q 425 696 369 696 l 508 696 l 508 557 l 425 557 q 297 508 346 557 q 249 382 249 460 l 249 0 l 89 0 l 89 693 z "},"ŕ":{"ha":519,"x_min":89,"x_max":522,"o":"m 89 693 l 238 693 l 238 599 q 317 669 265 642 q 425 696 369 696 l 508 696 l 508 557 l 425 557 q 297 508 346 557 q 249 382 249 460 l 249 0 l 89 0 l 89 693 m 346 1032 l 522 1032 l 368 794 l 217 794 l 346 1032 z "},"ř":{"ha":519,"x_min":42,"x_max":544,"o":"m 89 693 l 238 693 l 238 599 q 317 669 265 642 q 425 696 369 696 l 508 696 l 508 557 l 425 557 q 297 508 346 557 q 249 382 249 460 l 249 0 l 89 0 l 89 693 m 42 1042 l 185 1042 l 293 900 l 400 1042 l 544 1042 l 346 794 l 239 794 l 42 1042 z "},"ŗ":{"ha":519,"x_min":-19,"x_max":508,"o":"m 89 693 l 238 693 l 238 599 q 317 669 265 642 q 425 696 369 696 l 508 696 l 508 557 l 425 557 q 297 508 346 557 q 249 382 249 460 l 249 0 l 89 0 l 89 693 m -19 -326 l 15 -296 q 92 -143 92 -233 l 92 -92 l 250 -92 l 250 -143 q 219 -298 250 -232 q 122 -412 188 -364 l 82 -443 l -19 -326 z "},"ṛ":{"ha":519,"x_min":67,"x_max":508,"o":"m 89 693 l 238 693 l 238 599 q 317 669 265 642 q 425 696 369 696 l 508 696 l 508 557 l 425 557 q 297 508 346 557 q 249 382 249 460 l 249 0 l 89 0 l 89 693 m 168 -293 q 94 -265 122 -293 q 67 -192 67 -237 q 94 -118 67 -146 q 168 -90 122 -90 q 242 -118 214 -90 q 269 -192 269 -146 q 242 -265 269 -237 q 168 -293 214 -293 z "},"ṝ":{"ha":519,"x_min":67,"x_max":508,"o":"m 89 693 l 238 693 l 238 599 q 317 669 265 642 q 425 696 369 696 l 508 696 l 508 557 l 425 557 q 297 508 346 557 q 249 382 249 460 l 249 0 l 89 0 l 89 693 m 168 -293 q 94 -265 122 -293 q 67 -192 67 -237 q 94 -118 67 -146 q 168 -90 122 -90 q 242 -118 214 -90 q 269 -192 269 -146 q 242 -265 269 -237 q 168 -293 214 -293 m 86 935 l 500 935 l 500 813 l 86 813 l 86 935 z "},"ṟ":{"ha":519,"x_min":-39,"x_max":508,"o":"m 89 693 l 238 693 l 238 599 q 317 669 265 642 q 425 696 369 696 l 508 696 l 508 557 l 425 557 q 297 508 346 557 q 249 382 249 460 l 249 0 l 89 0 l 89 693 m -39 -110 l 375 -110 l 375 -235 l -39 -235 l -39 -110 z "},"s":{"ha":749,"x_min":54,"x_max":701,"o":"m 318 -11 q 126 53 199 -11 q 54 222 54 117 l 211 222 q 240 151 211 178 q 318 124 269 124 l 442 124 q 516 140 489 124 q 543 183 543 156 l 543 214 q 527 247 543 233 q 483 267 511 261 l 243 308 q 115 367 163 322 q 68 472 68 413 l 68 518 q 137 654 68 604 q 326 704 206 704 l 438 704 q 615 644 547 704 q 683 488 683 585 l 526 488 q 502 547 526 525 q 438 569 478 569 l 328 569 q 253 554 279 569 q 226 511 226 539 l 226 483 q 242 450 226 464 q 285 432 258 436 l 533 388 q 656 329 610 372 q 701 228 701 286 l 701 176 q 631 40 701 90 q 442 -11 560 -11 l 318 -11 z "},"ś":{"ha":749,"x_min":54,"x_max":701,"o":"m 318 -11 q 126 53 199 -11 q 54 222 54 117 l 211 222 q 240 151 211 178 q 318 124 269 124 l 442 124 q 516 140 489 124 q 543 183 543 156 l 543 214 q 527 247 543 233 q 483 267 511 261 l 243 308 q 115 367 163 322 q 68 472 68 413 l 68 518 q 137 654 68 604 q 326 704 206 704 l 438 704 q 615 644 547 704 q 683 488 683 585 l 526 488 q 502 547 526 525 q 438 569 478 569 l 328 569 q 253 554 279 569 q 226 511 226 539 l 226 483 q 242 450 226 464 q 285 432 258 436 l 533 388 q 656 329 610 372 q 701 228 701 286 l 701 176 q 631 40 701 90 q 442 -11 560 -11 l 318 -11 m 428 1032 l 604 1032 l 450 794 l 299 794 l 428 1032 z "},"š":{"ha":749,"x_min":54,"x_max":701,"o":"m 318 -11 q 126 53 199 -11 q 54 222 54 117 l 211 222 q 240 151 211 178 q 318 124 269 124 l 442 124 q 516 140 489 124 q 543 183 543 156 l 543 214 q 527 247 543 233 q 483 267 511 261 l 243 308 q 115 367 163 322 q 68 472 68 413 l 68 518 q 137 654 68 604 q 326 704 206 704 l 438 704 q 615 644 547 704 q 683 488 683 585 l 526 488 q 502 547 526 525 q 438 569 478 569 l 328 569 q 253 554 279 569 q 226 511 226 539 l 226 483 q 242 450 226 464 q 285 432 258 436 l 533 388 q 656 329 610 372 q 701 228 701 286 l 701 176 q 631 40 701 90 q 442 -11 560 -11 l 318 -11 m 124 1042 l 267 1042 l 375 900 l 482 1042 l 626 1042 l 428 794 l 321 794 l 124 1042 z "},"ş":{"ha":749,"x_min":54,"x_max":701,"o":"m 533 388 q 656 329 610 372 q 701 228 701 286 l 701 176 q 631 40 701 90 q 442 -11 560 -11 l 440 -11 l 415 -68 l 428 -68 q 515 -99 482 -68 q 549 -179 549 -129 l 549 -203 q 502 -299 549 -262 q 379 -335 456 -335 l 264 -335 l 264 -236 l 368 -236 q 412 -226 396 -236 q 428 -200 428 -217 l 428 -181 q 414 -156 428 -165 q 376 -146 400 -146 l 293 -146 l 293 -78 l 321 -11 l 318 -11 q 126 53 199 -11 q 54 222 54 117 l 211 222 q 240 151 211 178 q 318 124 269 124 l 442 124 q 516 140 489 124 q 543 183 543 156 l 543 214 q 527 247 543 233 q 483 267 511 261 l 243 308 q 115 367 163 322 q 68 472 68 413 l 68 518 q 137 654 68 604 q 326 704 206 704 l 438 704 q 615 644 547 704 q 683 488 683 585 l 526 488 q 502 547 526 525 q 438 569 478 569 l 328 569 q 253 554 279 569 q 226 511 226 539 l 226 483 q 242 450 226 464 q 285 432 258 436 l 533 388 z "},"ŝ":{"ha":749,"x_min":54,"x_max":701,"o":"m 318 -11 q 126 53 199 -11 q 54 222 54 117 l 211 222 q 240 151 211 178 q 318 124 269 124 l 442 124 q 516 140 489 124 q 543 183 543 156 l 543 214 q 527 247 543 233 q 483 267 511 261 l 243 308 q 115 367 163 322 q 68 472 68 413 l 68 518 q 137 654 68 604 q 326 704 206 704 l 438 704 q 615 644 547 704 q 683 488 683 585 l 526 488 q 502 547 526 525 q 438 569 478 569 l 328 569 q 253 554 279 569 q 226 511 226 539 l 226 483 q 242 450 226 464 q 285 432 258 436 l 533 388 q 656 329 610 372 q 701 228 701 286 l 701 176 q 631 40 701 90 q 442 -11 560 -11 l 318 -11 m 321 1042 l 428 1042 l 626 794 l 482 794 l 375 936 l 267 794 l 124 794 l 321 1042 z "},"ș":{"ha":749,"x_min":54,"x_max":701,"o":"m 318 -11 q 126 53 199 -11 q 54 222 54 117 l 211 222 q 240 151 211 178 q 318 124 269 124 l 442 124 q 516 140 489 124 q 543 183 543 156 l 543 214 q 527 247 543 233 q 483 267 511 261 l 243 308 q 115 367 163 322 q 68 472 68 413 l 68 518 q 137 654 68 604 q 326 704 206 704 l 438 704 q 615 644 547 704 q 683 488 683 585 l 526 488 q 502 547 526 525 q 438 569 478 569 l 328 569 q 253 554 279 569 q 226 511 226 539 l 226 483 q 242 450 226 464 q 285 432 258 436 l 533 388 q 656 329 610 372 q 701 228 701 286 l 701 176 q 631 40 701 90 q 442 -11 560 -11 l 318 -11 m 206 -326 l 240 -296 q 317 -143 317 -233 l 317 -92 l 475 -92 l 475 -143 q 444 -298 475 -232 q 347 -412 413 -364 l 307 -443 l 206 -326 z "},"ṡ":{"ha":749,"x_min":54,"x_max":701,"o":"m 318 -11 q 126 53 199 -11 q 54 222 54 117 l 211 222 q 240 151 211 178 q 318 124 269 124 l 442 124 q 516 140 489 124 q 543 183 543 156 l 543 214 q 527 247 543 233 q 483 267 511 261 l 243 308 q 115 367 163 322 q 68 472 68 413 l 68 518 q 137 654 68 604 q 326 704 206 704 l 438 704 q 615 644 547 704 q 683 488 683 585 l 526 488 q 502 547 526 525 q 438 569 478 569 l 328 569 q 253 554 279 569 q 226 511 226 539 l 226 483 q 242 450 226 464 q 285 432 258 436 l 533 388 q 656 329 610 372 q 701 228 701 286 l 701 176 q 631 40 701 90 q 442 -11 560 -11 l 318 -11 m 375 788 q 301 815 329 788 q 274 888 274 843 q 301 962 274 933 q 375 990 329 990 q 449 962 421 990 q 476 888 476 933 q 449 815 476 843 q 375 788 421 788 z "},"ṣ":{"ha":749,"x_min":54,"x_max":701,"o":"m 318 -11 q 126 53 199 -11 q 54 222 54 117 l 211 222 q 240 151 211 178 q 318 124 269 124 l 442 124 q 516 140 489 124 q 543 183 543 156 l 543 214 q 527 247 543 233 q 483 267 511 261 l 243 308 q 115 367 163 322 q 68 472 68 413 l 68 518 q 137 654 68 604 q 326 704 206 704 l 438 704 q 615 644 547 704 q 683 488 683 585 l 526 488 q 502 547 526 525 q 438 569 478 569 l 328 569 q 253 554 279 569 q 226 511 226 539 l 226 483 q 242 450 226 464 q 285 432 258 436 l 533 388 q 656 329 610 372 q 701 228 701 286 l 701 176 q 631 40 701 90 q 442 -11 560 -11 l 318 -11 m 394 -293 q 321 -265 349 -293 q 293 -192 293 -237 q 321 -118 293 -146 q 394 -90 349 -90 q 468 -118 440 -90 q 496 -192 496 -146 q 468 -265 496 -237 q 394 -293 440 -293 z "},"ß":{"ha":967,"x_min":6,"x_max":933,"o":"m 619 -11 q 443 49 508 -11 q 378 215 378 110 l 525 215 q 551 149 525 172 q 619 126 576 126 l 685 126 q 750 148 725 126 q 775 204 775 169 l 775 236 q 748 298 775 272 q 665 360 721 324 q 566 436 600 401 q 532 524 532 471 l 532 553 q 576 654 532 613 q 694 708 619 696 q 656 805 694 769 q 554 840 618 840 l 449 840 q 330 797 375 840 q 285 682 285 754 l 285 0 l 125 0 l 125 518 l 6 518 l 6 654 l 125 654 l 125 682 q 165 837 125 769 q 279 941 206 904 q 449 978 353 978 l 554 978 q 709 944 642 978 q 814 848 776 910 q 851 706 851 786 l 851 608 l 808 608 q 690 549 690 608 l 690 528 q 709 493 690 510 q 772 447 728 476 q 890 354 847 400 q 933 236 933 308 l 933 204 q 867 47 933 106 q 685 -11 800 -11 l 619 -11 z "},"t":{"ha":557,"x_min":33,"x_max":496,"o":"m 382 0 q 210 53 264 0 q 156 219 156 106 l 156 556 l 33 556 l 33 693 l 160 693 l 160 903 l 315 903 l 315 693 l 496 693 l 496 556 l 315 556 l 315 225 q 333 158 315 179 q 390 138 351 138 l 496 138 l 496 0 l 382 0 z "},"ŧ":{"ha":539,"x_min":33,"x_max":497,"o":"m 317 556 l 317 417 l 496 417 l 496 303 l 317 303 l 317 225 q 335 158 317 179 q 393 138 353 138 l 497 138 l 497 0 l 383 0 q 211 53 265 0 q 157 219 157 106 l 157 303 l 33 303 l 33 417 l 157 417 l 157 556 l 35 556 l 35 693 l 161 693 l 161 903 l 317 903 l 317 693 l 497 693 l 497 556 l 317 556 z "},"ť":{"ha":825,"x_min":33,"x_max":819,"o":"m 382 0 q 210 53 264 0 q 156 219 156 106 l 156 556 l 33 556 l 33 693 l 160 693 l 160 903 l 315 903 l 315 693 l 496 693 l 496 556 l 315 556 l 315 225 q 333 158 315 179 q 390 138 351 138 l 496 138 l 496 0 l 382 0 m 550 729 l 585 758 q 661 913 661 821 l 661 972 l 819 972 l 819 913 q 788 758 819 824 q 692 642 757 692 l 651 611 l 550 729 z "},"ţ":{"ha":557,"x_min":33,"x_max":496,"o":"m 315 556 l 315 225 q 333 158 315 179 q 390 138 351 138 l 496 138 l 496 0 l 383 0 l 353 -68 l 365 -68 q 453 -99 419 -68 q 486 -179 486 -129 l 486 -203 q 440 -299 486 -262 q 317 -335 393 -335 l 201 -335 l 201 -236 l 306 -236 q 349 -226 333 -236 q 365 -200 365 -217 l 365 -181 q 351 -156 365 -165 q 314 -146 338 -146 l 231 -146 l 231 -78 l 271 17 q 183 88 211 38 q 156 219 156 138 l 156 556 l 33 556 l 33 693 l 160 693 l 160 903 l 315 903 l 315 693 l 496 693 l 496 556 l 315 556 z "},"ț":{"ha":557,"x_min":33,"x_max":496,"o":"m 382 0 q 210 53 264 0 q 156 219 156 106 l 156 556 l 33 556 l 33 693 l 160 693 l 160 903 l 315 903 l 315 693 l 496 693 l 496 556 l 315 556 l 315 225 q 333 158 315 179 q 390 138 351 138 l 496 138 l 496 0 l 382 0 m 143 -326 l 178 -296 q 254 -143 254 -233 l 254 -92 l 413 -92 l 413 -143 q 381 -298 413 -232 q 285 -412 350 -364 l 244 -443 l 143 -326 z "},"ẗ":{"ha":557,"x_min":3,"x_max":503,"o":"m 382 0 q 210 53 264 0 q 156 219 156 106 l 156 556 l 33 556 l 33 693 l 160 693 l 160 903 l 315 903 l 315 693 l 496 693 l 496 556 l 315 556 l 315 225 q 333 158 315 179 q 390 138 351 138 l 496 138 l 496 0 l 382 0 m 92 1006 q 27 1031 51 1006 q 3 1094 3 1056 q 27 1159 3 1135 q 92 1183 51 1183 q 156 1159 131 1183 q 181 1094 181 1135 q 156 1031 181 1056 q 92 1006 131 1006 m 414 1006 q 350 1031 375 1006 q 325 1094 325 1056 q 350 1159 325 1135 q 414 1183 375 1183 q 478 1159 454 1183 q 503 1094 503 1135 q 478 1031 503 1056 q 414 1006 454 1006 z "},"ṭ":{"ha":557,"x_min":33,"x_max":496,"o":"m 382 0 q 210 53 264 0 q 156 219 156 106 l 156 556 l 33 556 l 33 693 l 160 693 l 160 903 l 315 903 l 315 693 l 496 693 l 496 556 l 315 556 l 315 225 q 333 158 315 179 q 390 138 351 138 l 496 138 l 496 0 l 382 0 m 332 -293 q 258 -265 286 -293 q 231 -192 231 -237 q 258 -118 231 -146 q 332 -90 286 -90 q 406 -118 378 -90 q 433 -192 433 -146 q 406 -265 433 -237 q 332 -293 378 -293 z "},"ṯ":{"ha":557,"x_min":33,"x_max":539,"o":"m 382 0 q 210 53 264 0 q 156 219 156 106 l 156 556 l 33 556 l 33 693 l 160 693 l 160 903 l 315 903 l 315 693 l 496 693 l 496 556 l 315 556 l 315 225 q 333 158 315 179 q 390 138 351 138 l 496 138 l 496 0 l 382 0 m 125 -110 l 539 -110 l 539 -235 l 125 -235 l 125 -110 z "},"u":{"ha":818,"x_min":81,"x_max":729,"o":"m 314 -11 q 145 60 210 -11 q 81 247 81 132 l 81 693 l 240 693 l 240 244 q 266 160 240 192 q 333 128 292 128 l 417 128 q 512 170 469 128 q 569 281 554 213 l 569 693 l 729 693 l 729 0 l 579 0 l 579 94 q 499 18 549 47 q 406 -11 450 -11 l 314 -11 z "},"ú":{"ha":818,"x_min":81,"x_max":729,"o":"m 314 -11 q 145 60 210 -11 q 81 247 81 132 l 81 693 l 240 693 l 240 244 q 266 160 240 192 q 333 128 292 128 l 417 128 q 512 170 469 128 q 569 281 554 213 l 569 693 l 729 693 l 729 0 l 579 0 l 579 94 q 499 18 549 47 q 406 -11 450 -11 l 314 -11 m 461 1032 l 638 1032 l 483 794 l 332 794 l 461 1032 z "},"ŭ":{"ha":818,"x_min":81,"x_max":729,"o":"m 314 -11 q 145 60 210 -11 q 81 247 81 132 l 81 693 l 240 693 l 240 244 q 266 160 240 192 q 333 128 292 128 l 417 128 q 512 170 469 128 q 569 281 554 213 l 569 693 l 729 693 l 729 0 l 579 0 l 579 94 q 499 18 549 47 q 406 -11 450 -11 l 314 -11 m 400 783 q 239 838 300 783 q 178 983 178 893 l 178 1006 l 303 1006 l 303 983 q 329 915 303 940 q 400 890 356 890 l 417 890 q 488 915 461 890 q 515 983 515 940 l 515 1006 l 639 1006 l 639 983 q 578 838 639 893 q 417 783 517 783 l 400 783 z "},"ǔ":{"ha":818,"x_min":81,"x_max":729,"o":"m 314 -11 q 145 60 210 -11 q 81 247 81 132 l 81 693 l 240 693 l 240 244 q 266 160 240 192 q 333 128 292 128 l 417 128 q 512 170 469 128 q 569 281 554 213 l 569 693 l 729 693 l 729 0 l 579 0 l 579 94 q 499 18 549 47 q 406 -11 450 -11 l 314 -11 m 157 1042 l 300 1042 l 408 900 l 515 1042 l 660 1042 l 461 794 l 354 794 l 157 1042 z "},"û":{"ha":818,"x_min":81,"x_max":729,"o":"m 314 -11 q 145 60 210 -11 q 81 247 81 132 l 81 693 l 240 693 l 240 244 q 266 160 240 192 q 333 128 292 128 l 417 128 q 512 170 469 128 q 569 281 554 213 l 569 693 l 729 693 l 729 0 l 579 0 l 579 94 q 499 18 549 47 q 406 -11 450 -11 l 314 -11 m 354 1042 l 461 1042 l 660 794 l 515 794 l 408 936 l 300 794 l 157 794 l 354 1042 z "},"ü":{"ha":818,"x_min":81,"x_max":729,"o":"m 314 -11 q 145 60 210 -11 q 81 247 81 132 l 81 693 l 240 693 l 240 244 q 266 160 240 192 q 333 128 292 128 l 417 128 q 512 170 469 128 q 569 281 554 213 l 569 693 l 729 693 l 729 0 l 579 0 l 579 94 q 499 18 549 47 q 406 -11 450 -11 l 314 -11 m 247 796 q 183 821 207 796 q 158 885 158 846 q 183 949 158 925 q 247 974 207 974 q 311 949 286 974 q 336 885 336 925 q 311 821 336 846 q 247 796 286 796 m 569 796 q 506 821 531 796 q 481 885 481 846 q 506 949 481 925 q 569 974 531 974 q 634 949 610 974 q 658 885 658 925 q 634 821 658 846 q 569 796 610 796 z "},"ǘ":{"ha":818,"x_min":81,"x_max":729,"o":"m 314 -11 q 145 60 210 -11 q 81 247 81 132 l 81 693 l 240 693 l 240 244 q 266 160 240 192 q 333 128 292 128 l 417 128 q 512 170 469 128 q 569 281 554 213 l 569 693 l 729 693 l 729 0 l 579 0 l 579 94 q 499 18 549 47 q 406 -11 450 -11 l 314 -11 m 449 1228 l 597 1228 l 469 1035 l 343 1035 l 449 1228 m 247 796 q 183 821 207 796 q 158 885 158 846 q 183 949 158 925 q 247 974 207 974 q 311 949 286 974 q 336 885 336 925 q 311 821 336 846 q 247 796 286 796 m 569 796 q 506 821 531 796 q 481 885 481 846 q 506 949 481 925 q 569 974 531 974 q 634 949 610 974 q 658 885 658 925 q 634 821 658 846 q 569 796 610 796 z "}}}
